<mxfile host="drawio-plugin" modified="2022-11-15T14:26:08.344Z" agent="5.0 (Macintosh; Intel Mac OS X 10_15_7) AppleWebKit/537.36 (KHTML, like Gecko) Chrome/98.0.4758.102 Safari/537.36" etag="3Zn7zVVMMmlgDGhpiIAe" version="15.5.4" type="embed"><diagram id="sUWjghB93tTMbhF1fQ62" name="tetris"><mxGraphModel dx="1337" dy="730" grid="1" gridSize="10" guides="1" tooltips="1" connect="1" arrows="1" fold="1" page="1" pageScale="1" pageWidth="850" pageHeight="1100" math="0" shadow="0"><root><mxCell id="nHsgwOCxEVJ2XdIft6rS-0"/><mxCell id="nHsgwOCxEVJ2XdIft6rS-1" parent="nHsgwOCxEVJ2XdIft6rS-0"/><mxCell id="nHsgwOCxEVJ2XdIft6rS-2" value="&lt;p style=&quot;margin: 0px ; margin-top: 4px ; text-align: center&quot;&gt;&lt;i&gt;&amp;lt;&amp;lt;Block&amp;gt;&amp;gt;&lt;/i&gt;&lt;br&gt;&lt;/p&gt;&lt;hr size=&quot;1&quot;&gt;&lt;p style=&quot;margin: 0px ; margin-left: 4px&quot;&gt;+ x: Type&lt;br&gt;+ y: Type&lt;/p&gt;&lt;p style=&quot;margin: 0px ; margin-left: 4px&quot;&gt;+ color:&amp;nbsp;&lt;/p&gt;&lt;hr size=&quot;1&quot;&gt;&lt;p style=&quot;margin: 0px ; margin-left: 4px&quot;&gt;+ method1(Type): Type&lt;br&gt;+ method2(Type, Type): Type&lt;/p&gt;" style="verticalAlign=top;align=left;overflow=fill;fontSize=12;fontFamily=Helvetica;html=1;rounded=0;shadow=0;comic=0;labelBackgroundColor=none;strokeWidth=1" parent="nHsgwOCxEVJ2XdIft6rS-1" vertex="1"><mxGeometry x="60" y="87" width="190" height="140" as="geometry"/></mxCell><mxCell id="nHsgwOCxEVJ2XdIft6rS-3" style="edgeStyle=orthogonalEdgeStyle;rounded=0;orthogonalLoop=1;jettySize=auto;html=1;entryX=1;entryY=0.25;entryDx=0;entryDy=0;" parent="nHsgwOCxEVJ2XdIft6rS-1" source="nHsgwOCxEVJ2XdIft6rS-7" target="nHsgwOCxEVJ2XdIft6rS-8" edge="1"><mxGeometry relative="1" as="geometry"/></mxCell><mxCell id="nHsgwOCxEVJ2XdIft6rS-4" value="1" style="edgeLabel;html=1;align=center;verticalAlign=middle;resizable=0;points=[];" parent="nHsgwOCxEVJ2XdIft6rS-3" vertex="1" connectable="0"><mxGeometry x="0.7311" relative="1" as="geometry"><mxPoint x="18" y="-158" as="offset"/></mxGeometry></mxCell><mxCell id="nHsgwOCxEVJ2XdIft6rS-5" style="edgeStyle=orthogonalEdgeStyle;rounded=0;orthogonalLoop=1;jettySize=auto;html=1;entryX=0.5;entryY=0;entryDx=0;entryDy=0;" parent="nHsgwOCxEVJ2XdIft6rS-1" source="nHsgwOCxEVJ2XdIft6rS-7" target="nHsgwOCxEVJ2XdIft6rS-2" edge="1"><mxGeometry relative="1" as="geometry"><Array as="points"><mxPoint x="425" y="67"/><mxPoint x="155" y="67"/></Array></mxGeometry></mxCell><mxCell id="nHsgwOCxEVJ2XdIft6rS-6" value="*" style="edgeLabel;html=1;align=center;verticalAlign=middle;resizable=0;points=[];" parent="nHsgwOCxEVJ2XdIft6rS-5" vertex="1" connectable="0"><mxGeometry x="-0.9062" y="-1" relative="1" as="geometry"><mxPoint as="offset"/></mxGeometry></mxCell><mxCell id="nHsgwOCxEVJ2XdIft6rS-7" value="&lt;p style=&quot;margin: 0px ; margin-top: 4px ; text-align: center&quot;&gt;&lt;i&gt;&amp;lt;&amp;lt;Field&amp;gt;&amp;gt;&lt;/i&gt;&lt;br&gt;&lt;/p&gt;&lt;hr size=&quot;1&quot;&gt;&lt;p style=&quot;margin: 0px ; margin-left: 4px&quot;&gt;+ sizee: Type&lt;br&gt;&lt;/p&gt;&lt;hr size=&quot;1&quot;&gt;&lt;p style=&quot;margin: 0px ; margin-left: 4px&quot;&gt;+ method1(Type): Type&lt;br&gt;+ method2(Type, Type): Type&lt;/p&gt;" style="verticalAlign=top;align=left;overflow=fill;fontSize=12;fontFamily=Helvetica;html=1;rounded=0;shadow=0;comic=0;labelBackgroundColor=none;strokeWidth=1" parent="nHsgwOCxEVJ2XdIft6rS-1" vertex="1"><mxGeometry x="330" y="97" width="190" height="140" as="geometry"/></mxCell><mxCell id="nHsgwOCxEVJ2XdIft6rS-8" value="&lt;p style=&quot;margin: 0px ; margin-top: 4px ; text-align: center&quot;&gt;&lt;i&gt;&amp;lt;&amp;lt;Figure&amp;gt;&amp;gt;&lt;/i&gt;&lt;br&gt;&lt;/p&gt;&lt;hr size=&quot;1&quot;&gt;&lt;p style=&quot;margin: 0px ; margin-left: 4px&quot;&gt;+ color: Type&lt;br&gt;&lt;/p&gt;&lt;p style=&quot;margin: 0px ; margin-left: 4px&quot;&gt;+ shape:&lt;/p&gt;&lt;hr size=&quot;1&quot;&gt;&lt;p style=&quot;margin: 0px ; margin-left: 4px&quot;&gt;+ totate(Type): Type&lt;br&gt;+ move(Type, Type): Type&lt;/p&gt;" style="verticalAlign=top;align=left;overflow=fill;fontSize=12;fontFamily=Helvetica;html=1;rounded=0;shadow=0;comic=0;labelBackgroundColor=none;strokeWidth=1" parent="nHsgwOCxEVJ2XdIft6rS-1" vertex="1"><mxGeometry x="60" y="290" width="190" height="140" as="geometry"/></mxCell><mxCell id="nHsgwOCxEVJ2XdIft6rS-9" value="&lt;p style=&quot;margin: 0px ; margin-top: 4px ; text-align: center&quot;&gt;&lt;i&gt;&amp;lt;&amp;lt;Game&amp;gt;&amp;gt;&lt;/i&gt;&lt;br&gt;&lt;/p&gt;&lt;hr size=&quot;1&quot;&gt;&lt;p style=&quot;margin: 0px ; margin-left: 4px&quot;&gt;+ score: Type&lt;br&gt;&lt;/p&gt;&lt;p style=&quot;margin: 0px ; margin-left: 4px&quot;&gt;+ level&lt;/p&gt;&lt;hr size=&quot;1&quot;&gt;&lt;p style=&quot;margin: 0px ; margin-left: 4px&quot;&gt;+ rotate figures(Type): Type&lt;br&gt;+ creates figures(Type, Type): Type&lt;/p&gt;" style="verticalAlign=top;align=left;overflow=fill;fontSize=12;fontFamily=Helvetica;html=1;rounded=0;shadow=0;comic=0;labelBackgroundColor=none;strokeWidth=1" parent="nHsgwOCxEVJ2XdIft6rS-1" vertex="1"><mxGeometry x="280" y="430" width="190" height="140" as="geometry"/></mxCell><mxCell id="nHsgwOCxEVJ2XdIft6rS-10" value="color (int)" style="swimlane;fontStyle=0;childLayout=stackLayout;horizontal=1;startSize=30;horizontalStack=0;resizeParent=1;resizeParentMax=0;resizeLast=0;collapsible=1;marginBottom=0;" parent="nHsgwOCxEVJ2XdIft6rS-1" vertex="1"><mxGeometry x="60" y="620" width="140" height="270" as="geometry"/></mxCell><mxCell id="nHsgwOCxEVJ2XdIft6rS-11" value="0 = black" style="text;strokeColor=none;fillColor=none;align=left;verticalAlign=middle;spacingLeft=4;spacingRight=4;overflow=hidden;points=[[0,0.5],[1,0.5]];portConstraint=eastwest;rotatable=0;" parent="nHsgwOCxEVJ2XdIft6rS-10" vertex="1"><mxGeometry y="30" width="140" height="30" as="geometry"/></mxCell><mxCell id="nHsgwOCxEVJ2XdIft6rS-12" value="1 = red" style="text;strokeColor=none;fillColor=none;align=left;verticalAlign=middle;spacingLeft=4;spacingRight=4;overflow=hidden;points=[[0,0.5],[1,0.5]];portConstraint=eastwest;rotatable=0;" parent="nHsgwOCxEVJ2XdIft6rS-10" vertex="1"><mxGeometry y="60" width="140" height="30" as="geometry"/></mxCell><mxCell id="nHsgwOCxEVJ2XdIft6rS-13" value="2 = yellow" style="text;strokeColor=none;fillColor=none;align=left;verticalAlign=middle;spacingLeft=4;spacingRight=4;overflow=hidden;points=[[0,0.5],[1,0.5]];portConstraint=eastwest;rotatable=0;" parent="nHsgwOCxEVJ2XdIft6rS-10" vertex="1"><mxGeometry y="90" width="140" height="30" as="geometry"/></mxCell><mxCell id="nHsgwOCxEVJ2XdIft6rS-14" value="3 = magenta" style="text;strokeColor=none;fillColor=none;align=left;verticalAlign=middle;spacingLeft=4;spacingRight=4;overflow=hidden;points=[[0,0.5],[1,0.5]];portConstraint=eastwest;rotatable=0;" parent="nHsgwOCxEVJ2XdIft6rS-10" vertex="1"><mxGeometry y="120" width="140" height="30" as="geometry"/></mxCell><mxCell id="nHsgwOCxEVJ2XdIft6rS-15" value="4 = blue" style="text;strokeColor=none;fillColor=none;align=left;verticalAlign=middle;spacingLeft=4;spacingRight=4;overflow=hidden;points=[[0,0.5],[1,0.5]];portConstraint=eastwest;rotatable=0;" parent="nHsgwOCxEVJ2XdIft6rS-10" vertex="1"><mxGeometry y="150" width="140" height="30" as="geometry"/></mxCell><mxCell id="nHsgwOCxEVJ2XdIft6rS-16" value="5 = cyan" style="text;strokeColor=none;fillColor=none;align=left;verticalAlign=middle;spacingLeft=4;spacingRight=4;overflow=hidden;points=[[0,0.5],[1,0.5]];portConstraint=eastwest;rotatable=0;" parent="nHsgwOCxEVJ2XdIft6rS-10" vertex="1"><mxGeometry y="180" width="140" height="30" as="geometry"/></mxCell><mxCell id="nHsgwOCxEVJ2XdIft6rS-17" value="6 = green" style="text;strokeColor=none;fillColor=none;align=left;verticalAlign=middle;spacingLeft=4;spacingRight=4;overflow=hidden;points=[[0,0.5],[1,0.5]];portConstraint=eastwest;rotatable=0;" parent="nHsgwOCxEVJ2XdIft6rS-10" vertex="1"><mxGeometry y="210" width="140" height="30" as="geometry"/></mxCell><mxCell id="nHsgwOCxEVJ2XdIft6rS-18" value="7 = gray" style="text;strokeColor=none;fillColor=none;align=left;verticalAlign=middle;spacingLeft=4;spacingRight=4;overflow=hidden;points=[[0,0.5],[1,0.5]];portConstraint=eastwest;rotatable=0;" parent="nHsgwOCxEVJ2XdIft6rS-10" vertex="1"><mxGeometry y="240" width="140" height="30" as="geometry"/></mxCell><mxCell id="nHsgwOCxEVJ2XdIft6rS-19" value="" style="shape=image;aspect=fixed;image=data:image/png,iVBORw0KGgoAAAANSUhEUgAAAlcAAAHnCAYAAACVGXhsAAABXmlDQ1BJQ0MgUHJvZmlsZQAAKJF1kDFLw3AQxV+0UigRHUQKdsjg4NCKRkE3qUVEKBLaCtXJNI2pkLZ/koh0kQ7iXnB2qYO7oIuIih9AEB0UwckvoGTREO/fqG0VD4778bg7Hg/oEVXGzBCAcsWxMovzUn51TQq/IIIR6kn0q5rNkoqSphV8z+5y7yHweZvgv2LwjvPZ9bvzy51o3Xy7/rvfVZGibms0P6hljVkOIEwQK9sO41wnHrLIFPE+ZyPgI86FgM9aO7lMiviGeFArqUXiZ+J4oUM3OrhsbmlfHrh7Ua+sZGkOU8eQxgKWISEHGTPYRIKSIFf/3Ey3blKogqEGi/YNlODQfZIUBhM68RIq0DCOOLFM32TIPOvfGba16iEw6wK9jbZWoAxO94DoQ1sbPQAGdoGTK6Za6k+yghuyN6bkgMU5oO/J91/HgHAD8Bq+/970fa9J/x+Bi9onTjFk5uY7b+MAAABWZVhJZk1NACoAAAAIAAGHaQAEAAAAAQAAABoAAAAAAAOShgAHAAAAEgAAAESgAgAEAAAAAQAAAlegAwAEAAAAAQAAAecAAAAAQVNDSUkAAABTY3JlZW5zaG902x3ZUQAAAdZpVFh0WE1MOmNvbS5hZG9iZS54bXAAAAAAADx4OnhtcG1ldGEgeG1sbnM6eD0iYWRvYmU6bnM6bWV0YS8iIHg6eG1wdGs9IlhNUCBDb3JlIDYuMC4wIj4KICAgPHJkZjpSREYgeG1sbnM6cmRmPSJodHRwOi8vd3d3LnczLm9yZy8xOTk5LzAyLzIyLXJkZi1zeW50YXgtbnMjIj4KICAgICAgPHJkZjpEZXNjcmlwdGlvbiByZGY6YWJvdXQ9IiIKICAgICAgICAgICAgeG1sbnM6ZXhpZj0iaHR0cDovL25zLmFkb2JlLmNvbS9leGlmLzEuMC8iPgogICAgICAgICA8ZXhpZjpQaXhlbFlEaW1lbnNpb24+NDg3PC9leGlmOlBpeGVsWURpbWVuc2lvbj4KICAgICAgICAgPGV4aWY6UGl4ZWxYRGltZW5zaW9uPjU5OTwvZXhpZjpQaXhlbFhEaW1lbnNpb24+CiAgICAgICAgIDxleGlmOlVzZXJDb21tZW50PlNjcmVlbnNob3Q8L2V4aWY6VXNlckNvbW1lbnQ+CiAgICAgIDwvcmRmOkRlc2NyaXB0aW9uPgogICA8L3JkZjpSREY+CjwveDp4bXBtZXRhPgrxnbChAABAAElEQVR4AeydB7wU1fm/30vHhiKiqKBRsYsdsBAQxajB3hvYvRaMJZZoLIk1GrvXEuu1BFAkxl7jz5JopFhAFI2KAqIgAjYE7mX/8z3/nM3ssjtbZu9l7+7zfj73zsw5Z055zpkz77znndmaRCCGQAACEIAABCAAAQiUhECrkuRCJhCAAAQgAAEIQAACjgDKFQMBAhCAAAQgAAEIlJAAylUJYZIVBCAAAQhAAAIQQLliDEAAAhCAAAQgAIESEkC5KiFMsoIABCAAAQhAAAIoV4wBCEAAAhCAAAQgUEICKFclhElWEIAABCAAAQhAAOWKMQABCEAAAhCAAARKSADlqoQwyQoCEIAABCAAAQigXDEGIAABCEAAAhCAQAkJoFyVECZZQQACEIAABCAAAZQrxgAEIAABCEAAAhAoIYE2xeT14Ycf2vDhw23KlCk2Y8YMW3755W2ttdayzTff3A499FBr165dMdlmPOezzz6zl156ycX17NnT+vfvnzFdPoH55PXGG2/YJ598Yo2NjbbSSivZXnvtlU/WS6T517/+ZZMmTXLh/fr1sw022GCJNNkC7rrrrmTUscceazU1NcljdiAAAQhAAAIQKG8CNYlA8q3iTz/9ZCeddJK9/fbbWU/p0KGDnX/++bbPPvtkTVNIxIMPPmhXX321O2W77bazO+64o5DTU9JG5SUMhx9+uE2cODHlnPfeey/lON+Dk08+2V5//XWX/KyzzrKhQ4fme6r16tUrmVasW7dunTxmBwIQgAAEIACB8iaQ97KgLDlHH310pGKlpv7888920UUX2WuvvVbeLU+r3eOPP76EYpWWhEMIQAACEIAABCCQk0Dey4Jamvvggw+SGe633352yimnWJcuXZxS8n//939299132+LFi12a008/3caOHRt7Sat379523HHHuTwLWVpLVjTPnbCFSsuPt9xyizU0NOR5NskgAAEIQAACEIDA/yeQt3IlXyQva6+9tl1yySX+0DbbbDP3J+Xnt7/9rQtftGiRffTRRzl9jaSMtWqV3YC2/vrrm/7ykVx5ReUh3zEvgwcPtm7duvnDjNs4ZYUz9Kuy+FWFqbAPAQhAAAIQaLkE8lauPv3002Qr582bl9wP7+yyyy4mn6uFCxe6YPkvSeGaM2eOyZIlhWTDDTc0OWn/8Y9/tAkTJpjy6tSpk2200UbO5yndYV2O4bfddpvLTz5X8mUKy+zZs+3GG2+08ePH2xdffGFt27Z1PksDBgywIUOG5LScyUL173//2yZPnpzMVr5Z//jHP1w+Z599djJc9b3zzjtdvVWu6r3lllva/vvvX5CjvRQqWflGjx5tX375peOivPbYYw/7zW9+kyyPHQhAAAIQgAAEWh6BvJWrNddcM+lvJWVJflVnnnmmrbjiislWywL11ltvJY/9zvfff588V0ra008/bQrzIgXrzTffdH9SiLz1S/FK/+6777qkyyyzjD/FbceMGeOWJuXn5UUWs3Hjxrm/V1991W699VZr3769j15iqzx8/j5y1qxZpj+vJCq8vr7err32Wp/EbVVvLYfq7/jjj7dhw4alxGc6UJ56o/Ljjz9OiVZeegPzxRdfTAnnAAIQgAAEIACBlkUg+3pcWjsOO+ywlJDHHnvMZB1SuN7gC1t+UhKmHUip0p8UJVlq9KkDWW283H///U758sfZtrIcSaHxitVqq61mBx54oMl65pcZpTilW7rS89thhx1sxx13dJ+T8HGrrLKKC9t1111dkJzzw4rVpptu6hSkrbfe2p/iLFrhTygkI9J2br755hTFSvXed999TWXJ6ialDoEABCAAAQhAoOUSyNtytckmm9gZZ5xh119/fbK1WubT0p/+6urq3JJg3759nTUpyvlc/kwjR45MWr3mz5/vlvC8giZFZvfdd49c0rvqqquSzvNS8m644YakUiWrkBQt1U8Klr7LpeXITHLCCSe4YH1i4p///Kfb11uRRxxxhNtXHrLSeTnnnHOScQp79NFH7Q9/+IOL/stf/uLake07X3PnznUWMJ/XTjvt5Hh6ZXDatGl28MEHp1j1fFq2EIAABCAAAQi0DAJ5W67UHCkdWroKW4fCzZQVSUtkUmykaGST3//+90nFSmk6duxo1113XTK5rDdhH69kxH935LP03HPPJYOvuOKKpGKlQL3tp29WeYmqi0+TbavvTMlKJpEjv1e6fHr5W6k8idqvTzpkk/fffz8ZJYVKCqJXrBShpdfTTjstmYYdCEAAAhCAAARaHoG8LVe+abJgSRGSRUeKxyuvvOK+aaWvmodFjuJKq2W3sEiZ0BfL06V79+62zjrrJJUq5bfuuuumJ3PHU6dOTYYrv0svvTR57Hf+85//+F0Lp08G5rkT/vyEfM3OPffcJc785ptvkmFyqs8menvSi5zzpVSmy69+9Su7/PLL04M5hgAEIAABCECghRAoWLny7ZJSI58j/cmxXUte9913n91zzz0+ibNepStX+qmcbCJfJ2+xilJSws7gUvKeeeaZbFm68O+++y4yPioyrDTK6TxXWUqTTT7//PNkVNeuXZP74Z3wCwLhcPYhAAEIQAACEGgZBPJSrvRZAn1KwYve7Et/c09KgdLo9/QULwlbj/y5+gmdbOKd0xUfdnJPT7/yyisng6TkHXTQQcnjTDu5vlmV6Rwf1rlzZ79rcj4fEPh3RUmfPn2yRocVqnBbwycsWLAgfMg+BCAAAQhAAAItjEBeypU+EhoWOYmnf4/Kx8v/yCtXyy23nA9ObvWphExLfgr3P3SsxPJvyibrrbdeMkq/u3feeeel+C4p8ocffjA5iEv0FfliJfwBUylp+t3EdJGPmPfL0g9YZ5Nwm/T1+kyiz0cgEIAABCAAAQi0XAJ5ObRruS68nCcFY+bMmUu0WkuD+kSDl2233dbvpmwvu+wy818m9xH33nuvScGSyBqlj4pmEyltK620kovWOfp8Q7rop3lk0dKfPvxZrKT/iLJ/o9HnJyVuzz33TJalb2xlE31w1IsUsnTnd1mtwm9j+rRsIQABCEAAAhBoOQTyslypOfpe1J/+9CfXMn2nSm8M6m/jjTe2Nm3a2GeffWZ///vfk59HUMJf//rXLn36PykgeutObx8uu+yy7s0/fa3cy957722ZrF4+Xls5lstiJZGDvb50PmjQIGdB0kdK5Wzv5aijjvK7BW9lrZLy9MQTT7hz9V0vfSx0iy22cJ94GDFihPmlTil8+mZWNlFeclj3bzrqrUn5j8kKqPrrO1ne2pYtD8IhAAEIQAACEChvAnkrV/q0gX7+RYqLF31NPNsXxfU9KL0Rl02Ulxzh00UKyqmnnpoevMSxPkAqhcd/m0pKjv7SRQpYHJ8r5aefwNHP8GjpT5ay8GcjfHmytulr8LlEX5/XV+z15qFEX37XHwIBCEAAAhCAQGUQyGtZ0DdV32W65pprbPXVV/dBS2y1nKevkKd/D8on1G8PSjkJLzP6OH35XNYvLUN6kdLiRV8wD4t+c1BKXHq40sj5XHUNf1k+Kq9wHuF95SVn/WeffdZZsHScLptvvrlT7PTpCS/Zylp11VXtqaeeyqh4qlx97d4veSovftDZE2ULAQhAAAIQaBkEagLfp0QxVZ0xY4ZNmTLF9HkBKQA9evRw36mS8pAu+qzC4MGDXbCUK//7g/qops6X8iJ/pEzffUrPK9vxV1995b4UL6VG38sKO49nO6eYcH36QUug8r2SEiTn+rAyWEiejY2NbmlRDLS82lR1LqROpIUABCAAAQhAIB6BopWrQorNplwVkgdpIQABCEAAAhCAQEsg8L81t5ZQW+oIAQhAAAIQgAAEypwAylWZdxDVgwAEIAABCECgZRHI+23BOM3S19Z33313k49R1JfX45TBuRCAAAQgAAEIQKAcCDSLz1U5NJQ6QAACEIAABCAAgeYgwLJgc1CmDAhAAAIQgAAEqoYAylXVdDUNhQAEIAABCECgOQigXDUHZcqAAAQgAAEIQKBqCKBcVU1X01AIQAACEIAABJqDAMpVc1CmDAhAAAIQgAAEqoYAylXVdDUNhQAEIAABCECgOQigXDUHZcqAAAQgAAEIQKBqCKBcVU1X01AIQAACEIAABJqDAMpVc1CmDAhAAAIQgAAEqoYAylXVdDUNhQAEIAABCECgOQigXDUHZcqAAAQgAAEIQKBqCKBcVU1X01AIQAACEIAABJqDAMpVc1CmDAhAAAIQgAAEqoZA60sCyae1kydPttmzZ7u/efPmWceOHa1t27b5nFp0msWLF9ubb75pr732mk2dOtVWWGEFW2655fLO7/vvv7fp06fbSiutlPOcKVOmWCKRcO1S4sbGRhs3bpy1atXKll9++aznK93HH3/s0rRp0yZjuk8//dQU1759+yXi08tdIkEzBSxYsMA++eQT69Spk7Vu3bqZSi19Mb4/NFZacjvSycyYMcN+/PHHgsZ/eh75Hv/www/2+eef28orr7zEKUuTr+YfzQN+Hvr222/tp59+ctdeTU3NEnUtRcBXX31lmkei5gCVU4rrZ+HChfaf//wnci4ppE1ipfqHeTU0NMQaQ4XMqYXUVWNO7W/Xrt0Sp2nM/fzzz01+v0kveO7cuabrLtP9Y/78+aZ5XeMifd7XOXPmzHFzaXqe6celGDfpeep40aJFjme2e7SuG0klzZGuQeX0L1Ao8pLNNtsskf63/fbbJx566KFEoATllUchiYKBm9hxxx1dmZtvvnmy7Lq6uryzGT58uDsvnxPUlquvvtol/fLLLxO+TB+WLY9gAnNl/Otf/8qWJLHVVlslbrrppozx2267beKGG27IGBc38KWXXkpcccUVeWXz3nvvuXZ88MEHWdOff/75iTFjxmSNL4eIfPqjHOpZaB2OOOKIxFFHHZX1tEL6Omsm/42Ium6WJt8//elPyXkgPBfpWn3++edzNauo+GHDhiX222+/nOfmc/3kyuTDDz907Xv77bdzJc0rfp999snI65e//GUiUJ7zyiM9UfrYKNWcsPfeeyfOPffclOJmzpyZOOyww5JtGDBgQLPOP3fddZe7D6RU6r8H//znP129Xn311SWijz/+eHfv8hGBcujuAQ8++GBi9OjRbj94UHLRpRg3vhxtdX0ecMABSWa77rprYvz48ckk2h84cGAy/qCDDkoECngynp3SEShoWXCPPfawJ5980h5//HG77bbb7Ne//rVdddVV9sc//rHk+uJJJ53krEgq65133nHl7rnnnnb77be743wK7NOnjwUXbD5JU9I88cQT7lgWs7POOislriUdBJO0/f3vfy9ZlcUluAGULL+myKhz5852zjnn2HrrrdcU2ZdtnqXu62wNLQe+moP8PHTnnXfa2muvbWeffbazHmWrd7Hhhx56qJ188snFnr7Uz1t99dUdK/F67LHH7M9//rPJ6iJexUj6nBpnTvjoo4/suuuus/33399ZgdLrI+6y7KvO99xzj6ktxx13nLPEpact52NZVXWv3GCDDdxYHTx4cJNY4WStOvzww52FW/fJv/zlL7biiiva0UcfbbIMyuoofrqGxfP666+3wJBgJ554Yjnja7F1K0i50pJRjx493ADZYYcdLHhqMU0+jz76qDPXi0Kg7ZvievXqZVtvvbVdcMEFpuU9iW70/fv3T8ZdfPHFbinORab9kzm7W7durixFqVyl14Uo07ZE+5deeqntu+++tsUWW7i8b775Zhenf7p4NYi8BE8JFjzNubS/+tWv7K9//auPSm5///vf2x133OHqrLTBE4qLe+SRR2znnXd256rcsWPHJs8J73zxxRd2yCGHuLar/VdeeWU4OuO+JpBsbdAJUWVnY3reeee59sn8u9NOO9krr7ziyo7KSwk0Wfr+E6P333/fcVQeksAC5y5Wd5D2L3hqsuBJ0zFS/wdPTaabvmTkyJG21157pZxx+eWX25lnnunCJk2a5OLVj/obOnSoM62nnPDfAy0TqN9VTzE+9thj7ZtvvnGxmkDuvvtuZ85X/6veUtD1YKB8fZt8vlFjQufcd999dvDBB7tz1R7lKba9e/dOjm+fV/pW6QOLkrs5q56SKP4a82q30upPk+LXX3+dzFYTpNqqdijer+hn6+uotmkJRtemGCo/TfjZxvQbb7zhOIp5mK8qpnxUvvIRE12jqmN9fb2rd1RfaUxovGjO0Lygehx55JGm5Zgo0Vzg5yHd7HWen2N0nsaC6iBG/fr1c5x8vMab5gjd1FVntS0q/f/93/+58ePro/Hg5wHlnT6HZLp+/LnpW12Tu+22m6u/8nrqqadSkkTVK1M7Uk7+70GHDh0cK/FaZ5113DWpZS4tR0nUT2L13HPPuWvj2muvjeTh51R/bSmP8JwQ1d9KG5bARuDcL/r27buEshFYrUyuKFKwdB1ts802Flj4XT8/88wz4Wzcvq/PZ599lox7+umn3bkKyDTWhgwZkjLWZDDw9yddD3L3KIWoH7VUqLZIkdE9Qku1YYkaN1HXcTgP3Ue0HKlrMFiJMXE97bTTHDM9FAfWXbdcqD4WT43jM844wym2qhNSWgIFKVeZitbAl6jzZOnRhbbxxhvbhRdeaIH50d2sFa4BpjBd5Jqkpcn/7W9/s1GjRmXK1k3UujFL6dCEJn8grcdr4GhgSHQz181qmWWWcU9iKldPsvqTaKDNmjXL7cv3KlhacX5Pv/vd79xThKxumlTCokEpq4d8rWQpW2ONNdzkqjoHS3juRqInBD0B6IIJi240gZnVDdba2loLlnHcRa30UaIbcLY2SDHIVnYUU11Ymkx9O/TUF5WXr98DDzzgFFDVX/nrBiylWiwkevpSv2aSU045xU2IJ5xwglO8v/vuO9fnSiv/GPVBWKZNm5ZUyoPlF5Mvn8qT1fLdd99NKg/hc7SvNFLoxfrUU0+1CRMmuL5VnFhr4pJ/km4g2r/ooouccqB6+TYpba4xoac63YR/8Ytf2G9/+1uXV2Byt3//+9+u/8VYk2KwJKzslhApSypbSosm7Sj+uvkfeOCBNnHiRAuWFdxDi8Z/2Gqim404qi6bbrqpBUsM9vrrr7tJNL2vc7VNeajuurmLoX+qVR+EJVgGdv2x5pprOitwmK/SnX766aabmB5E1G+6nnSOv3lE9ZXaovZKudK1omtd/a6bXJRI4defuN5yyy2uHeoL+TSKo5Rh3WxVN80z4vSHP/zBZSlfshEjRrg5ZZNNNrHVVlstMr2ucY1TiW7QGg9iLYu2rinNIf4BTGkyXT8KTxfNlxrzuj7VF7qmNM95KbQdehDNJOpXz0vzsOYStUn9JdH8qJUBWfhl5QiWWCN5+Dk125wQ1d/p9dNcIgua/rp06ZIS7eeKsAV6lVVWcbx0XaaLv9a90qh4jUFdg5JMY03t9mPt3nvvdfu6h4iF/A01rnOJ/K48X7/1Y1/nqh81Z+ia0BiXIitlSQ/o4ftCtnGT6zoO10/3Klmr9LDhRT7LkrXWWis5/+oe7MXz9WPch7MtAYF8Vxjl45DJf0dr94oLBof703pv4Hzosg0ubBcXDNxEMIm6/aDzk0Uqv+CGkzwO7wQWl0TwZO7Wp71/hfyitA7uRf5KWj/WmraXwJKWCJ5m3WHYP0C+ATo/UIB80kQwCSf9KRTn/avkHyU/KS8qI7hx+MOE2qX4a665xq1xq37yuQoURdfG4Gk4mVa+MIpXnpkkVxuiys7FNDCnJ1mo7Ki8ggve1TPs0xZYllJ8Dnw/Z2qH+iCYsBNi7iVQphNqn+TWW29NYaqwQIFz/gHal9/MMccck+zLhx9+OBGYrRWVIoFy5Oqp8eZFfgSqm7iHfYJytSnXmFCd5D/hJVj+duV4vzSNUZUrX4pMojiNxeCG5KKj+AcWSJdX2HcvsLom5Gei60k+Vxpz6deWuErS+zqqbfJlUd38eNf5gSKXkC+OyvfXjbiKQXBTSF43Yb6BVc3lEx7bgcLjwoKn40SuvlLdVY9AoVIVnARKvGurPw5vs/lcKQ+VKwmsPy5P+Wx6ufHGG1071F/yn1J6tVeSK33Y50p9Efa/kt9MYAlNBJawRK6x5uvit4HFwNVJc4kXP75Ut1z1Sm+HzyO81fWotqb/qZ/VdxLNYYr3132ucv3Y8OXoXH8t5upvf06mbfCQnuJzpXGovMNjQ+fpGhCndPH8/bWp+Pvvv9/lof30sRYoPYnwWJN/b7hvFR8o5q6PdH66eJ+rdLb+WPlJgqVYVwfdB7z4tgVKfs5xE3Ud+/yybXVvVX2Ch16XRNe7ruewBA8hS9QvHM9+8QQyv95WgNKmJwJJ165dnQk2GFTO1KwnUr1t50VPBHq6kklepnRZiGR63W677XySlK3eRpSVSk/+WjKSCV1WqmCidD4DetqW7LLLLu5pxp+spZxgELk1Zh+mrZ4q9MaJll28yPIlC0eUyMytpzs9gWgJw4vCZVnQEqAXPY3qSVRP0V6CG2pK/Xx4eJutDbIiRJWtp+d8meZqh5bLJOH+6N69u2t3uK7Z9tVuWZNketbTsfo/mOhMyxL5SODQ6iyZYqflJZmsZdJOF+UpkcUz/ckyUAZMFpZ0ydamfMaEt5IqTz2t6+2bDTfc0BWhMSoJLj+3zfRPY1wWgVz8tdQthuG6allQf170pO/fONVbs2Ir/5lMEtU2WXUkula86GnXLx3LuiNR2Rr3sm5leuvI94W3XuscLcWpHRIfn62v5IuitFpC9qKnb1kXoyS4aSbLUFot46uusoTL8iWRBcWLLAlqh1/m0ZO7f7rPJ73y0fnKR1YxL7I2P/vss+5Q1lNJuP+irh+9FRjc6FLe3NNY0Rwnyade4Xa4kzL8k2VOPksStUF9q2Mt0XurhuJkUZHkU65LmOFfrv4Oz4sZTk8J8m9/6rpJFx+XHp7rONtYkwVJc61WNryoDM2JcjGIEi3PBgpfShK5O3jrmu5dKlf3AS8aI7qeFKf7oiTbuIm6jn1+6VvNCYFhwrR8qutRy4CSTNw8X94aTKcY/zi2ciXTvEQXuiY3KUS64etC0s1RA02ijtUyhHyEXnzxRTcp6Vg+FunOlVr+CJ403BKc8pL5Xn+aADSR6zyvXKW/uutvPvI1CosUKw1oTTZetK+BHyXev0s30vRze/bsmXKqLtJMgzRTWPjEbG3QspokW9mFMM23HV5hCNcvn32Z4zVhy0dIE4WUZ5nW/fjIlIe/sBWnZRtNQJoQtMwSvIVjgUXIKWzhc9WPEvmNhF+RVt94E3c4vfaztSmfMZE+PnL1ZXrZXtnLxV9LNenjID0vP7bTwzMdR7VNvluSbFx8fupHPYDoYUU3GimJYfF9kc7Ip/Hx2fpKS/2F8lTeXjHy5XjfKi1J+mWh9GtV84c+zyHRcp6XfNIrrZ9Pcj0s5GLqy5ULQfor/OG886lXuB0+3/StFMCw8ip2KleuEYG1xyVXuX5s5VNuehn+OFd/+3T5bPUgI5HvlRcx0xzr43x4tm14flGabGPNX5tR/ZGtjHXXXTeFr9Kpfl65Es9M5epe5FnrnGzjJuo61nnpoodxuUto+VYv9oQVRtVLCrauf/9JI6WX+GsjPT+OiycQS7mS46nWqrUWrqd5XbBrr722U6B041cneuVK69tSigIzp/Mt0cCSj4neYElXrnShv/zyy24SDT+5K1xr8/Ij8BK2jinMH8uSFhb5SWgyl8+EFyl6fm3fh6VvVaYmKPlbeb8NpZEFTevYYZFvji7+KYFjoThI9LSssCjxdfZp/LGefKPKLpRpVF6+7GK3UqKkIMgyKf8iiZ6evGjiEgf9eSuI+kNvrmgcyVlVVkX5sEikpEtZV//ImuFl/fXXd7uyGHprm8ZZsLzhFHyfLp9tsWMin7x9Gj9h5xpHYqKJVAz1QCGRcikfRvnkFSpRbfNjU+NM6SSyZunlFPWDl2CpyIVrspYFWXUJiz9XPmj+QUNjUhO4JFdfqf9LIfJ7kWhseQVb9fXKoKxKsp55rr5PdE4+6ZVONyP1kbfsKEw3b1mdZQGUda8Q0dyhvMTKK6fi6CWfeoXb4c/LZxvmpfS+fO3nU67SZZJc/Z3pnGxhfm596623kte5nxf9WAuf61mEX4bwFtpwukz7UmykYCp/b8FTOvlJxRV/T9BYlyIm0QOLlHXF5ZKo6zjTufIrlRIq/86wb5XS+v4RU29J89ZLfy1nypOw4ghEm23S8pQpW8s+ekKUKV7OolJ0pFRJtDwi86pMz7I+ycFZohuG4mTyDvwm3NOI3k7QzUSKWbpo8tfAkAIj5U03WP1pcpey4t9c03laflI65eeXH/xNN5yvLGSqh5aspPyoHbqB+4synDZ9X86HutHLoVXlyAlS5mI/Afj0chLVRCUnZJlzNanLaTWXRLUhV9lRTGUJEWNZgjTp5MorVz3VNt081bZ08UtjWhrQ06Z4SXHWha6y/YWuvhJ/WUPCT01Kq6Ucve0jJ1Q9eUnSHV2VjyZXff4j8F1wN385oMrild4f6XVMP44zJtLzyuc4ir9/k1IWWV07usY0zrTMnusDlio7va+j2qblRSkaWi7Q23K6qYi9FAiV50X9rYcmPQTprTk5RIdF/aBrVa90a4lWy4q/+c1vkklK2VfJTIMdsdH1qz85w/s3TnfffXfT8rLqrRcyxFFtk8O4xpwU3HQpJL3yl6KreUB5S4HTUmHYXSA9/2zH6h/dYFU3jXnlqwcTL4XUy5+TaavryLMSN729fF/gOK8xFfjjLHFKoeWG54RS9rceBLfccktnudZDuRRPPaxJwQ2PUd8Ab8XTfUmKjB6c9fmJfEUvU+jlEI0nzfHaesUj3zwypQvfE3Q/0FKgXvwQNzm655Ko6zj9XLmpqO16SNIcrAde/ydjhlaTxE8GD7VN12zwnUr3kpKsWlL6VF+1HYlPoCDLlTR5r83r4tRTjl7D3mijjVxNpFTIFOlvFIHjpJt8AydI55ukgaK3IvS2jkQd6teDXUDonz6hIKVNE7f+JBqQ6vzwt6s0wcsHw6+Ny8KkSS9dtMSh1051c5dCory0dBW2jPlz0s24Wt7Ucpe3wunC1xOOlhqksHlRe3RD1ISpAS7RW13+jRWfLn2rm122NkSVrXyimOr1bk2kupilVEbllUlhSq+nXl3XRK0bliyLYdEr8WqrlnP1pydBfXNF/a3+EhfFq53607KNztHSp/pCSrfeJtXkLtEkoBt+phui3hCTEqIbqESKwmWXXeZM6+G+U75RUsiYiMon37go/spD14LaLGVGdZfvmVccsrXFh6f3tThGjXf1hxj6b9zoOtL4zuSXoWtavkWyOqd/ekBv5qpdmgdUFz3Y6Cal/pNE9ZWvu0sY+pct3Nct3dKtBzT5Efknc38NiqNE11fY6hwqyikZ+aZXG6VM+XlA5YqxLKthi0k4/2z7UhDETXzkJiHR8qauLbVf82u+9cpWhvKRcqX5yIvC1NfBy0QZl6ELLTd9Tojqb1+HTFv1bXq/q44an7omJJpTZKH2S1rhfDT36m08zXdSlDT+tNVDniQ9b3+uD9d1JoVED/D6U7jua1KiM4kfi5niwmGql5QV+cdqPpT4+4TcJnLdGwqZozR2JHpjUH9hkT+s+l1tU11k4ZL4hyztawVAVk0pWUh8AjWBxSG7N24R+ctSoUGqiUc3RpnO5XS66qqrutwUrwElU2wmq1V6kepwWcJkYdKTUXhtWjcfDVhZh/S0oYGS6WacnqesYErrL6z0+GzHaovqHl6mypZWDKSEZZoIMp2j5YGoNkSVXSjTqLwy1a2QMG+N8n2rY63n+37Rsfoy7C/l8xcDKbHa5tM/Ghty3vRl+XyK2RY7JoopKxd/MdCSlmdWTBnhc6La5pfYdVMtVNRPwVud7olYS9i64ah/Bw0a5JR5rygr31L2Vb71lMKjsZbvNZhvel1vstCXYtxp+lX/aH70Cml6+/KtV/p5cY/jlFvK/lY9xDzd1SNT+1SuxrTmj2JE5Wju1hyfrwKVbzlqh/o709yXTx5R13E+54fT6D4mZdUvnYfj2C8NgZIrV6WpVn65eOUqvBSR35mkggAESkFAb3VKZN3SzUg+W1IOtUSYr1JTinqQBwQgAIFyIhC9blJONc1QF5ltZc1CIACBpUNAPpFrB35X/rMpWuqQHweK1dLpD0qFAATKg0CLtlyVB0JqAQEIQAACEIAABP5HoEVbrv7XDPYgAAEIQAACEIBAeRBAuSqPfqAWEIAABCAAAQhUCAGUqwrpSJoBAQhAAAIQgEB5EEC5Ko9+oBYQgAAEIAABCFQIAZSrCulImgEBCEAAAhCAQHkQQLkqj36gFhCAAAQgAAEIVAgBlKsK6UiaAQEIQAACEIBAeRBAuSqPfqAWEIAABCAAAQhUCAGUqwrpSJoBAQhAAAIQgEB5EEC5Ko9+oBYQgAAEIAABCFQIAZSrCulImgEBCEAAAhCAQHkQaDbl6ueff7ZNNtnEFixYUB4tpxYQgAAEIAABCECgCQg0m3J1xhln2HfffWfaIhCAAAQgAAEIQKBSCdQkAmnqxkmp6tGjh82bN89WWGEFmzZtmi2//PJNXSz5QwACEIAABCAAgWYn0CyWq3PPPdfOPPNM1zhtdYxAAAIQgAAEIACBSiTQ5JYrb7WaO3eu1dTUmAxlnTp1wnpViaOJNkEAAhCAAAQgYE1uuTrnnHPsrLPOSkEtv6vzzjsvJYwDCEAAAhCAAAQgUAkEmtRyJR+rtdZay2S1knjLlfblczVjxgxbbrnldIhAAAIQgAAEIACBiiDQpJYr+ValW608NYXje+VpsIUABCAAAQhAoFIINJnlKt1qJWBhy5WOsV6JAgIBCEAAAhCAQCURaDLLVZTVygPEeuVJsIUABCAAAQhAoFIINInlatGiRfbUU0/ZPvvsk8Ip3XKlyNGjR7t0rVo1mZ6XUgcOIAABCEAAAhCAQFMSaBLlKluFMylX2dISDgEIQAACEIAABFoiAcxFLbHXqDMEIAABCEAAAmVLAOWqbLuGikEAAhCAAAQg0BIJoFy1xF6jzhCAAAQgAAEIlC0BlKuy7RoqBgEIQAACEIBASySActUSe406QwACEIAABCBQtgRQrsq2a6gYBCAAAQhAAAItkQDKVUvsNeoMAQhAAAIQgEDZEkC5KtuuoWIQgAAEIAABCLREAihXLbHXqDMEIAABCEAAAmVLAOWqbLuGikEAAhCAAAQg0BIJoFy1xF6jzhCAAAQgAAEIlC0BlKuy7RoqBgEIQAACEIBASySActUSe406QwACEIAABCBQtgRQrsq2a6gYBCAAAQhAAAItkQDKVUvsNeoMAQhAAAIQgEDZEkC5KtuuoWIQgAAEIAABCLREAihXLbHXqDMEIAABCEAAAmVLAOWqbLuGikEAAhCAAAQg0BIJoFy1xF6jzhCAAAQgAAEIlC0BlKuy7RoqBgEIQAACEIBASySActUSe406QwACEIAABCBQtgRQrsq2a6gYBCAAAQhAAAItkUCb5qz0csstZ7Nnz45d5Lx586xTp07kk4UAfLKA+W9wqfgou5VXXjm6MGIhAAEIQKDqCNQkAmmuVh9xxBG2wgorxC7uu+++I58IivCJgBNElZLPgw8+GF0YsRCAAAQgUHUEmtVyJbpXX311bMi1tbXkE0ERPhFwgqhS8okuiVgIQAACEKhGAvhcVWOv02YIQAACEIAABJqMAMpVk6ElYwhAAAIQgAAEqpEAylU19jpthgAEIAABCECgyQgUrVxNmzbNhg0bllKxjz76yM4880w755xz7IMPPkiJ4wACEIAABCAAAQhUA4GClSu9XDhq1CgbOnSojR49Osno7bfftt69e7u3+ObPn2+77LJLST67kCyAHQhAAAIQgAAEINACCBSsXDU0NDjlavHixSnNGz58uB1wwAF2ySWX2M0332zLLrusvfzyyylpOIAABCAAAQhAAAKVTqBg5apt27Y2YsQIu/DCC1PYtG/f3qR4SRYtWmT6UOPEiRNT0nAAAQhAAAIQgAAEKp1Ayb5zNWTIENt2221t3333tZkzZ7q/jh07Vjo/2gcBCEAAAhCAAARSCJRMuerZs6fJyV1+WPppmptuusk23njjlMI4gAAEIAABCEAAApVOoGTKlfysHn/8cXvhhRfsvffes3HjxlmfPn0qnR/tgwAEIAABCEAAAikECva58me3bt3a77rtwQcfbLNmzbItttjCfvnLX9qNN95oXbt2TUnDAQQgAAEIQAACEKh0AkVbrvr372/Tp09P8pEi9c4779iUKVNstdVWsw4dOiTj2IEABCAAAQhAAALVQqBo5SoboLXXXjtbFOEQgAAEIAABCECg4gkUvSxY8WRoIAQgAAEIQAACECiCAMpVEdA4BQIQgAAEIAABCGQjUPJlwWwF+fC5c+f63Vhb8onGB5/m4RNdCrEQgAAEIFCNBGqC3wpMNFfD9XuE6W8ZFlN2Y2Mj+USAg08EnCCqlHzq6+ujCyMWAhCAAASqjkCzWq50U6urq4sNuba2lnwiKMInAk4QVUo+0SURCwEIQAAC1UgAn6tq7HXaDAEIQAACEIBAkxFAuWoytGQMAQhAAAIQgEA1EkC5qsZep80QgAAEIAABCDQZAZSrJkNLxhCAAAQgAAEIVCMBlKtq7HXaDAEIQAACEIBAkxFAuWoytGQMAQhAAAIQgEA1EkC5qsZep80QgAAEIAABCDQZAZSrJkNLxhCAAAQgAAEIVCMBlKtq7HXaDAEIQAACEIBAkxEoWrmaMGGCffDBB65i2fabrNZkDAEIQAACEIAABMqUQNHK1VVXXWU33nija1a2/TJtM9WCAAQgAAEIQAACTUag6N8WfOihh5KVyrafTMAOBCAAAQhAAAIQqBICRVuuqoQPzYQABCAAAQhAAAIFEUC5KggXiSEAAQhAAAIQgEA0AZSraD7EQgACEIAABCAAgYIIFO1zVVApocRz584NHRW/Sz7R7ODTPHyiSyEWAhCAAASqkUBNIpDmavjQoUOtdevWsYtrbGwknwiK8ImAE0SVkk99fX10YcRCAAIQgEDVEWhWy5VuanV1dbEh19bWkk8ERfhEwAmiSsknuiRiIQABCECgGgngc1WNvU6bIQABCEAAAhBoMgIoV02GlowhAAEIQAACEKhGAihX1djrtBkCEIAABCAAgSYjULRyNW3aNBs2bFhKxUaPHm1DhgyxCy64wMaPH58SxwEEIAABCEAAAhCoBgIFK1d6uXDUqFGmN/+kTHl56aWX7JhjjrFVV13VFixYYAMHDrT58+f7aLYQgAAEIAABCECgKggUrFw1NDQ45Wrx4sUpgF5//XU75ZRT7JprrrErrrjCxY0ZMyYlDQcQgAAEIAABCECg0gkU/CmGtm3b2ogRI+wf//iHHXnkkUk+F198sduXVWv48OHWtWtX69u3bzKeHQhAAAIQgAAEIFANBAq2XOWCMm/ePLcsOHPmTJswYUKu5MRDAAIQgAAEIACBiiJQMuVq5MiRNmnSJDv22GPtySeftK233toefvjhioJFYyAAAQhAAAIQgEAuAiVTrvR24CWXXGI//PCDff/99zZlyhTbfvvtc5VPPAQgAAEIQAACEKgoAkUrV+m/EXjCCSfY7Nmzbc0117Tu3btb7969bfDgwRUFi8ZAAAIQgAAEIACBXAQKdmj3Gfbv39+mT5/uD23dddc1fY5BYZ07d7aOHTsm49iBAAQgAAEIQAAC1UKgaOUqG6A11lgjWxThEIAABCAAAQhAoOIJFL0sWPFkaCAEIAABCEAAAhAoggDKVRHQOAUCEIAABCAAAQhkI1DyZcFsBfnwuXPn+t1YW/KJxgef5uETXQqxEIAABCBQjQRqgt8KTDRXw/V7hOlvGRZTdmNjI/lEgINPBJwgqpR86uvrowsjFgIQgAAEqo5As1qudFOrq6uLDbm2tpZ8IijCJwJOEFVKPtElEQsBCEAAAtVIAJ+raux12gwBCEAAAhCAQJMRQLlqMrRkDAEIQAACEIBANRJAuarGXqfNEIAABCAAAQg0GYGilatp06bZsGHDUir2yiuv2HHHHWennXaajR07NiWOAwhAAAIQgAAEIFANBApWrvRy4ahRo0xv/o0ePTrJaNKkSTZgwABbuHChde3a1bbddlt78803k/HsQAACEIAABCAAgWogUPDbgg0NDU65Wrx4cQqfF154wfbZZx+7//77XfiYMWNcur59+6ak4wACEIAABCAAAQhUMoGCLVdt27a1ESNG2IUXXpjCRZasu+66y4VpyVBWq4EDB6ak4QACEIAABCAAAQhUOoGClatsQFZccUXr3Lmz3XHHHbbpppvawQcfbLvttlu25IRDAAIQgAAEIACBiiRQ8LJgNgpaJjz++ONt3Lhx9tRTT9kOO+yQLSnhEIAABCAAAQhAoGIJlEy5uvfee+21116z8ePHW/v27W3RokXWqlWrkvxMTcXSp2EQgAAEIAABCFQcgaKXBdN/I1CfYfj4449t+eWXt3bt2rm/U089teKA0SAIQAACEIAABCAQRaBoy1X//v1t+vTpybz1lqB/UzAZyA4EIAABCEAAAhCoMgJFW66qjBPNhQAEIAABCEAAAnkRQLnKCxOJIAABCEAAAhCAQH4EUK7y40QqCEAAAhCAAAQgkBeBon2u8so9Q6K5c+dmCC08iHyimcGnefhEl0IsBCAAAQhUI4Ga4LcCE83VcH3FPf0tw2LKbmxsJJ8IcPCJgBNElZJPfX19dGHEQgACEIBA1RFoVsuVbmp1dXWxIdfW1pJPBEX4RMAJokrJJ7okYiEAAQhAoBoJ4HNVjb1OmyEAAQhAAAIQaDICKFdNhpaMIQABCEAAAhCoRgIoV9XY67QZAhCAAAQgAIEmIxBLubrhhhtMP3sTlkxh4Xj2IQABCEAAAhCAQCUTKEq5+uSTT+yaa66xM844wz766CPHJ1NYJYOjbRCAAAQgAAEIQCATgaKUqzFjxti4ceOsa9euyTwzhSUj2YEABCAAAQhAAAJVQqAo5eqQQw6xESNG2IYbbpjElCksGckOBCAAAQhAAAIQqBICRSlXVcKGZkIAAhCAAAQgAIGCCaBcFYyMEyAAAQhAAAIQgEB2AihX2dkQAwEIQAACEIAABAomEFu5atVqySwyhRVcM06AAAQgAAEIQAACLZBArN8WTP/GldqfKawFcqHKEIAABCAAAQhAoCgCS5qdisqGkyAAAQhAAAIQgAAERADlinEAAQhAAAIQgAAESkgA5aqEMMkKAhCAAAQgAAEIxPK5Kgbf3LlzizltiXPIZwkkKQH58kkkEinnpR/MmTMnPaio40rNpygYnAQBCEAAAhVNoCa4uUbfXUvY/KFDh1rr1q1j59jY2Eg+ERTz5VNTUxORi1lDQ4O1aRNf/67kfOrr6yMZEgkBCEAAAtVHIP6dswBmuunX1dUVcEbmpLW1teSTGY0LhU8EnCCqlHyiSyIWAhCAAASqkQA+V9XY67QZAhCAAAQgAIEmI4By1WRoyRgCEIAABCAAgWokEEu5yuSupbBM4dUIlzZDAAIQgAAEIFB9BIpWrqZOnWqnnXZaCrFx48bZ6aefbmeccYa99957KXEcQAACEIAABCAAgWogULByJavUqFGj7KijjrLRo0cnGc2YMcN23nlnmzlzpi277LI2aNAg++abb5Lx7EAAAhCAAAQgAIFqIFCwcqXX6h999FFbvHhxCp/777/fNttsMxs+fLhdfvnltsYaa9gbb7yRkoYDCEAAAhCAAAQgUOkEClau2rZt6xSoCy+8MIXN5MmTrVevXsmwDTbYwMaOHZs8ZgcCEIAABCAAAQhUA4GClatsUPQF7m7duiWju3TpYvPmzUseswMBCEAAAhCAAASqgUDJlKstttjC5OTu5euvv06xZPlwthCAAAQgAAEIQKCSCZRMuerTp48999xz9sMPP9ikSZPs+eeft6222qqS2dE2CEAAAhCAAAQgsASBon/+Rr8RGP5tOr0pKJ+r7t27u+XAs88+22TNQiAAAQhAAAIQgEA1EShauerfv79NmzYtyUqO7o8//rh98cUX7lMMK6+8cjKOHQhAAAIQgAAEIFAtBIpWrrIB6tGjR7YowiEAAQhAAAIQgEDFEyiZz1XFk6KBEIAABCAAAQhAIA8CKFd5QCIJBCAAAQhAAAIQyJdAyZcFcxWs72GVQsgnmiJ8modPdCnEQgACEIBANRKoCX4rMNFcDR86dKi1aRNfn9NP8JBP9l6DT3Y2iikln/r6+ujCiIUABCAAgaojEF/TKQBZY2Oj1dXVFXBG5qS1tbXkkxmNC4VPBJwgqpR8oksiFgIQgAAEqpEAPlfV2Ou0GQIQgAAEIACBJiOActVkaMkYAhCAAAQgAIFqJFAS5aoZ3baqsY9oMwQgAAEIQAACLYhAbJ+ryZMn2x133OEczI866ijbeOONW1DzqSoEIAABCEAAAhAoLYFYlqu3337b9IPNK6ywgv388882aNAgmz17dmlrSG4QgAAEIAABCECgBRGIpVwNHz7cDjjgALvkkkvspptucr8p+PLLL7eg5lNVCEAAAhCAAAQgUFoCsZSr9u3bu28Gyedq4cKFNm/ePJs4cWJpa0huEIAABCAAAQhAoAURiOVzNWTIEOvdu7ftt99+NnPmTPfXsWPHFtR8qgoBCEAAAhCAAARKSyCWctWzZ0/74osv7G9/+5t16tTJLQ3i0F7aDiI3CEAAAhCAAARaFoFYytXNN99sjz/+uD3//PP23nvv2fjx452De8tCQG0hAAEIQAACEIBA6QjE8rk6+OCDbdasWbblllvagAED7IYbbrCuXbuWrnbkBAEIQAACEIAABFoYgViWKylS77zzjk2ZMsVWW20169ChQwtrPtWFAAQgAAEIQAACpSUQS7nyVVl77bX9LlsIQAACEIAABCBQ1QRiLQtWNTkaDwEIQAACEIAABDIQQLnKAIUgCEAAAhCAAAQgUCyBkiwLFlL4nDlzCkmeNS35ZEXjIuDTPHyiSyEWAhCAAASqkUBN8HX1RHM1fOjQoe4HnuOW19DQQD4REOETASeIKiWf+vr66MKIhQAEIACBqiPQrJarxsZGq6uriw25traWfCIowicCThBVSj7RJRELAQhAAALVSACfq2rsddoMAQhAAAIQgECTEUC5ajK0ZAwBCEAAAhCAQDUSKIlyJbetZnTdqsZ+os0QgAAEIAABCLQQArF9rsaMGWMPPvigtWvXzg477DD3UzgtpO1UEwIQgAAEIAABCJScQCzL1bRp02zQoEHWrVs3q6mpsZ122snmzp1b8kqSIQQgAAEIQAACEGgpBGIpVy+88ILpp2/OPfdcu/LKK12bx44d21LaTj0hAAEIQAACEIBAyQnEUq4GDx5ss2bNsn322ccGDhxoq6++uvXr16/klSRDCEAAAhCAAAQg0FIIxFKuPvzwQ/dBxi5dujjF6ssvv7QpU6a0lLZTTwhAAAIQgAAEIFByArGUqzvvvNN22203u/vuu2348OHWu3dv59xe8lqSIQQgAAEIQAACEGghBGIpV5tvvrmzVM2fP98WLlxoM2bMsE033bSFNJ1qQgACEIAABCAAgdITiKVcHX/88e77VvK16tGjh/Xs2dP23Xff0teSHCEAAQhAAAIQgEALIRDrO1crrLCCvfrqq/b111+7H1JeeeWVW0izqSYEIAABCEAAAhBoGgKxlCtfpVVXXdXvsoUABCAAAQhAAAJVTSDWsmBVk6PxEIAABCAAAQhAIAMBlKsMUAiCAAQgAAEIQAACxRIoybJgIYXPmTOnkORZ05JPVjQuAj7Nwye6FGIhAAEIQKAaCdQkAmmuhg8dOtQ5vsctr6GhgXwiIMInAk4QVUo+9fX10YURCwEIQAACVUegWS1XjY2NVldXFxtybW0t+URQhE8EnCCqlHyiSyIWAhCAAASqkQA+V9XY67QZAhCAAAQgAIEmI4By1WRoyRgCEIAABCAAgWokEHtZMN1lq6ampho50mYIQAACEIAABCDgCMRSruTM++6776ag3HDDDe2EE05ICeMAAhCAAAQgAAEIVAuBWMuCbdq0sXbt2iX/Ro4caRMmTKgWdrQTAhCAAAQgAAEILEEgluXq8MMPT2b4wgsv2NNPP21XX311MowdCEAAAhCAAAQgUG0EYilXHtYPP/xgRx11lD3wwAPWsWNHH8wWAhCAAAQgAAEIVB2BWMuCntbtt99um222mQ0cONAHsYUABCAAAQhAAAJVSSC25WrRokV2/fXXmxQsBAIQgAAEIAABCFQ7gdiWqzFjxtiPP/5oe+yxR7WzpP0QgAAEIAABCEDAYitXL774ovXr189at24NTghAAAIQgAAEIFD1BGIvC1500UVVDxEAEIAABCAAAQhAwBOIbbnyGbGFAAQgAAEIQAACELD4y4JAhAAEIAABCEAAAhD4HwEsV/9jwR4EIAABCEAAAhCITSC2z1WhNZgzZ06hp2RMTz4ZsSQD4ZNEkXGnVHwyZk4gBCAAAQhUNYGaRCDNRWDo0KGm3yOMKw0NDeQTARE+EXCCqFLy0Y+XIxCAAAQgAIEwgfiaTji3HPuNjY1WV1eXI1Xu6NraWvKJwASfCDhBVCn5RJdELAQgAAEIVCMBfK6qsddpMwQgAAEIQAACTUYA5arJ0JIxBCAAAQhAAALVSKBkylUzum5VYz/RZghAAAIQgAAEWgiB2D5Xn3zyid1111327bff2uGHH26//OUvW0jTqSYEIAABCEAAAhAoPYFYlquff/7Zdt99d5s8ebKtv/76tvfee9v48eNLX0tyhAAEIAABCEAAAi2EQCzL1ahRo1wzH330UbfdZJNNrFWrWPpaC8FGNSEAAQhAAAIQgEBmArE0IVms2rdvb5tvvrmts8469tprr1mvXr0yl0QoBCAAAQhAAAIQqAICsSxXn3/+uU2cONFefPFFq6mpsWOOOcb69etnu+22WxWgo4kQgAAEIAABCEBgSQKxLFcrrbSSDR482HbeeWcbOHCg23/yySeXLIUQCEAAAhCAAAQgUCUEYilX2223nb311ls2a9Ys+/777+311193ilaVsKOZEIAABCAAAQhAYAkCsZSrgw46yAYMGGCrrrqq9ezZ0/r06eOsV0uUQgAEIAABCEAAAhCoEgKxfK70ZuDIkSPtuuuus+WWW846depUJdhoJgQgAAEIQAACEMhMIJZy5bNcY401/C5bCEAAAhCAAAQgUNUEYi0LVjU5Gg8BCEAAAhCAAAQyEEC5ygCFIAhAAAIQgAAEIFAsgZIsCxZS+Jw5cwpJnjUt+WRF4yLg0zx8okshFgIQgAAEqpFATSKQ5mr40KFDrU2b+PpcQ0MD+UR0Gnwi4ARRpeRTX18fXRixEIAABCBQdQTiazoFIGtsbLS6uroCzsictLa2lnwyo3Gh8ImAE0SVkk90ScRCAAIQgEA1EsDnqhp7nTZDAAIQgAAEINBkBFCumgwtGUMAAhCAAAQgUI0ESrIsGHbb0g84IxCAAAQgAAEIQKBaCcRWri688EL78ccfk/zOPvts69atW/KYHQhAAAIQgAAEIFBNBGItCy5cuNAuu+wy97M3+ukb/bVu3bqa+NFWCEAAAhCAAAQgkEIgluXq008/tU033dQuuugilylLgilsOYAABCAAAQhAoAoJxLJcffzxxzZ16lS3DNizZ0+79NJLqxAhTYYABCAAAQhAAAL/IxBLuerQoYMdccQRNnHiRHvggQfs2muvtVdeeeV/ubMHAQhAAAIQgAAEqoxArGXBfv36Wf/+/a1du3bWpUsX23XXXe3JJ590YVXGkeZCAAIQgAAEIAABRyCW5eqKK66wnXfe2fTl9a+++sreeust2333edXXewAAQABJREFU3UELAQhAAAIQgAAEqpZALOXqzDPPtJ9++snWW289W3311a1Xr142YMCAqoVJwyEAAQhAAAIQgECsZcEVV1zRxo0b55za5X+1yiqrQBQCEIAABCAAAQhUNYFYypUn1717d7/LFgIQgAAEIAABCFQ1gVjLglVNjsZDAAIQgAAEIACBDARQrjJAIQgCEIAABCAAAQgUS6Aky4KFFD5nzpxCkmdNSz5Z0bgI+DQPn+hSiIUABCAAgWokUJMIpLkaPnToUGvTJr4+19DQUJn5LFpk7Rcvjt0dC4Lfd4RzdoylHD/19fXZCyIGAhCAAASqkkB8TacAbPoeVl1dXQFnZE5aW1tbkfk8vfzy1rdL5jYXEnr+rw6vSD7l2O+F9AtpIQABCECgOgjgc1Ud/UwrIQABCEAAAhBoJgIoV80EmmIgAAEIQAACEKgOAihX1dHPtBICEIAABCAAgWYiUDLl6pZbbrGbb765mapNMRCAAAQgAAEIQKA8CZREuXrjjTds2LBhNmHChPJsJbWCAAQgAAEIQAACzUQgtnL13XffmT6xMGjQoGaqMsVAAAIQgAAEIACB8iUQ+1MMJ598sh1yyCHWOvi20vTp08u3pdQMAhCAAAQgAAEINAOBWJarBx54wD766CP7/e9/b/5bpH7bDHWnCAhAAAIQgAAEIFB2BGJZruTE/uWXX9p2221n06ZNswULFlj79u1xbC+7bqZCEIAABCAAAQg0F4FYytUjjzxiP/30k6vr7bff7pYFzz333OaqO+VAAAIQgAAEIACBsiMQS7nq0aNHskGrrLKKzZ8/39Zcc81kGDsQgAAEIAABCECg2gjEUq7CsC644ILwIfsQgAAEIAABCECgKgnEcmivSmI0GgIQgAAEIAABCEQQQLmKgEMUBCAAAQhAAAIQKJQAylWhxEgPAQhAAAIQgAAEIgiUzOcqooyUqDlz5qQcF3tQqfk0JIolknpepfIpt3alUucIAhCAAAQgYFYTfPSzRLfz3Dj1Mzlt2sTX5xoaGioyn51GjLAOwRuXceXZAw+0xHLLxc3GKpVzKdtVX18fmzMZQAACEIBAZRGIr+kUwKOxsdHq6uoKOCNz0tra2orM5+l77rHeXTK3uZDQx9q2tdtvvLGQUzKmrVTOpWxXRnAEQgACEIBAVRPA56qqu5/GQwACEIAABCBQagIoV6UmSn4QgAAEIAABCFQ1AZSrqu5+Gg8BCEAAAhCAQKkJxPa5Gj16tD322GPWvXt323///W2rrbYqdR3JDwIQgAAEIAABCLQYArEsVy+99JIdc8wxtuqqq9qCBQts4MCB7vcFW0zrqSgEIAABCEAAAhAoMYFYytXrr79up5xyil1zzTV2xRVXuKqNGTOmxFUkOwhAAAIQgAAEINByCMRaFrz44otdS0eNGmXDhw+3rl27Wt++fVtO66kpBCAAAQhAAAIQKDGBWJYrX5d58+a5ZcGZM2fahAkTfDBbCEAAAhCAAAQgUHUEYilXI0eOtEmTJtmxxx5rTz75pG299db28MMPVx1EGgwBCEAAAhCAAAQ8gVjK1fjx4+2SSy6xH374wb7//nubMmWKbb/99j5vthCAAAQgAAEIQKDqCMRSrk444QSbPXu2rbnmmu5TDL1797bBgwdXHUQaDAEIQAACEIAABDyBWA7t6667rulzDNOnT7fOnTtbx44dfb5sIQABCEAAAhCAQFUSiKVceWJrrLGG32ULAQhAAAIQgAAEqppArGXBqiZH4yEAAQhAAAIQgEAGAihXGaAQBAEIQAACEIAABIolUJJlwUIKnzt3biHJs6at1HwaElmbXFBEpfIpt3YV1CkkhgAEIACBqiBQkwikuVo6dOhQa926deziGhsbKzKfgcF3wzrMnx+bz7MHHmiLl102dj6VyrmU7aqvr4/NmQwgAAEIQKCyCDSr5Uo3tbq6utgEa2trKzKfp++913p3iY3HHmvb1m6/6abYGVUq51K2KzZkMoAABCAAgYojgM9VxXUpDYIABCAAAQhAYGkSQLlamvQpGwIQgAAEIACBiiOAclVxXUqDIAABCEAAAhBYmgRi+1y98sor9sADD9gyyyxjQ4YMsW222WZptoeyIQABCEAAAhCAwFIlEMtyNWnSJBswYIAtXLjQunbtattuu629+eabS7VBFA4BCEAAAhCAAASWJoFYlqsXXnjB9tlnH7v//vtdG8aMGWOjRo2yvn37Ls02UTYEIAABCEAAAhBYagRiWa703aq77rrLVX7atGnOajVw4MCl1hgKhgAEIAABCEAAAkubQCzlasUVV7TOnTvbHXfcYZtuuqkdfPDBtttuuy3tNlE+BCAAAQhAAAIQWGoEYi0LLl682I4//ngbN26cPfXUU7bDDjsstYZQMAQgAAEIQAACECgHArGUq3uDL4q/9tprNn78eGvfvr0tWrTIWrVqVZKfpikHONQBAhCAAAQgAAEIFEog1rKgPsPw8ccf2/LLL2/t2rVzf6eeemqhdSA9BCAAAQhAAAIQqBgCsSxXekvQvylYMURoCAQgAAEIQAACEIhBIJblKka5nAoBCEAAAhCAAAQqkgDKVUV2K42CAAQgAAEIQGBpEUC5WlrkKRcCEIAABCAAgYokEMvnqhgic+fOLea0Jc6p1HwaEks0taiASuVTbu0qqnM4CQIQgAAEKppATSKQ5mqhvujeunXr2MU1NjZWZD4DR460DvPnx+bz7IEH2uJll42dT6VyLmW76uvrY3MmAwhAAAIQqCwCzWq50k2trq4uNsHa2tqKzOfp4LthvbvExmOPtW1rt990U+yMKpVzKdsVGzIZQAACEIBAxRHA56riupQGQQACEIAABCCwNAmgXC1N+pQNAQhAAAIQgEDFEUC5qrgupUEQgAAEIAABCCxNAiVRrqZNm2bDhg1bmu2gbAhAAAIQgAAEIFAWBGIpV3rRcNSoUaa3AEePHl0WDaISEIAABCAAAQhAYGkSiKVcNTQ0OOVq8eLFS7MNlA0BCEAAAhCAAATKhkAs5apt8Mr/iBEj7MILLyybBlERCEAAAhCAAAQgsDQJxFKulmbFKRsCEIAABCAAAQiUIwGUq3LsFeoEAQhAAAIQgECLJYBy1WK7jopDAAIQgAAEIFCOBEqiXJXi9wLLEQ51ggAEIAABCEAAAoUSKIly1b9/f5s+fXqhZZMeAhCAAAQgAAEIVByBkihXFUeFBkEAAhCAAAQgAIEiCaBcFQmO0yAAAQhAAAIQgEAmAihXmagQBgEIQAACEIAABIok0KbI84o+be7cuUWfGz6xUvNpSIRbWfx+pfIpt3YV30OcCQEIQAAClUqgJvh9wBLdznMj0m8QluLNwsbGxorMZ+DDI61NCbrjxcF72uJll83dITlSVCrnUrarvr4+B0WiIQABCECg2gg0q+VKN7W6urrYjGtrayszn4UL7fbbb4/N58mAz+033RQ7n4rlXMLxExsyGUAAAhCAQMURwOeq4rqUBkEAAhCAAAQgsDQJoFwtTfqUDQEIQAACEIBAxRFAuaq4LqVBEIAABCAAAQgsTQKxfa7Gjx9vcuqtqamxY4891jbbbLOl2R7KhgAEIAABCEAAAkuVQCzL1YwZM2zgwIH29ddf27LB22m77LKLffPNN0u1QRQOAQhAAAIQgAAEliaBWMrV/fff7yxVI0aMsMsvv9zWWGMNe+ONN5ZmeygbAhCAAAQgAAEILFUCsZSryZMnW69evZIN2GCDDWzs2LHJY3YgAAEIQAACEIBAtRGIpVzNmTPHunXrlmTWpUsXmzdvXvKYHQhAAAIQgAAEIFBtBGIpV1tssYVNnTo1yUy+V2FLVjKCHQhAAAIQgAAEIFAlBGIpV3369LHnnnvOfvrpJ/vggw/s+eeft6222qpK0NFMCEAAAhCAAAQgsCSBWMrVzjvv7BzaV199ddt4443txBNPNFmzEAhAoDQEfvjhh9JkRC4QgAAEINBsBGJ956pt27b2xBNP2BdffOE+xbDyyis3W8UpCALVQOC+++6zN99806688krr3r17NTSZNkIAAhBo8QRiWa5863v06GEoVp4GWwiUjsCpp55qW2+9tfXu3duOOOKIFB/H0pVCThCAAAQgUEoCJVGuSlkh8oIABFIJnHHGGaYP9qJkpXLhCAIQgEC5EkC5KteeoV4QSCOAkpUGhEMIQAACZUogls9VMW2aO3duMactcQ75LIEkJQA+KTiWOCgVn88//3yJvJs6YL/99jP93XPPPbbtttta//797ZprrjEtzyMQgAAEILD0CdQkAmmuahx55JElKapVq1a2ePHi2HmRTzRC+ETzaWhosFdffTU6URPHNjY2Wvv27d3bus8880wTl0b2EIAABCCQD4FmVa7yqRBpIACB3AQ+++wz+93vfmevv/66nXvuuTZs2LDcJ5ECAhCAAASahQA+V82CmUIgUBoCUqoOOeQQ69evn+2www42bdo0FKvSoCUXCEAAAiUjgHJVMpRkBIGmI4BS1XRsyRkCEIBAqQmgXJWaKPlBoIQEvvvuOyxVJeRJVhCAAASag0DZ+FyNHz/e6uvrraamxo499lj3szrFAtBSyZ/+9Ce7+eabi83CXnnlFXvggQdsmWWWsSFDhtg222xTVF6jR4+2xx57zH1de//994/924u33nqryYm5WB+biy66yMI/qXL22Wdbt27dCm7bp59+anfeead9++237uOWWqYqVNTf7777bsppG264oZ1wwgkpYfkcjB071vVXu3bt7PDDDy/6Z5g++ugju/32261NmzZ29NFH20YbbZRP8U2W5rbbbjM5zhfb301WMTKGAAQgAIGsBMrCcqUPJA4cONC+/vpr9zM6u+yyi33zzTdZK50tQi8+jho1yoYOHWpSaoqVSZMm2YABA2zhwoXWtWtX97q7foKkUHnppZfsmGOOsVVXXdUWLFjg2jh//vxCs0mmVx1OOeUUmzBhQjKskB2159JLL7VOnTol/1q3bl1IFi7tzz//bLvttpt9+OGHtv7669uee+5pUo4LFSkwUob838iRI4tqm5RpjRkpiVLO1XfFfGrh7bffdl9CX2GFFUz9pDxnz55daLNKmv6kk05CsSopUTKDAAQg0AwE9CmGpS1XXXVVYscdd0xWY8stt0w8/vjjyeN8dwLlIXHwwQcngptrIvgx6XxPWyLdDTfckNhnn32S4XvttVfirLPOSh7nu3PJJZckzj//fJc8UK4SgVKTCCxi+Z6eki5YHkr07NkzMWjQoMTxxx+fEpfvwQcffJDYdNNN802eNV1g0XN18QmCTwAkAsXEHxa1feGFF1zdfvrpp4LPD773lNh8883deYFVz3FWfoVKYMVLBFbT5Gni/cgjjySP2YEABCAAAQjkQ6AsLFeTJ0+2Xr16JVXJDTbYwLTMU6joh6RHjBhhF154YaGnpqSX5euuu+5yYbKKyGIky1qhcvHFF9vll1/urGmHHnqos4L17du30Gxcelkw9JaY3hArVj7++GP323SypK277rp22WWXFZWV+kvfVtpss81s7bXXttdeey2l/wrNVMuUYn7jjTdax44dCz3dBg8ebLNmzbK9997bdtppJwsUa/c2XaEZqU1agpMsWrTI5s2bZxMnTiw0G9JDAAIQgECVEygL5WrOnDkpfj9dunRxN7al1Tcrrriide7c2e644w4LLD0WWMPcMlix9dFNWsuCM2fOLGrZS75f8gWKqzR26NDB+Ue9//779uCDD9qf//xn51tWaLv0VXIpHYGFz30l/KGHHrLnn3++0GyS6cVZiloxCqwy0fKklCL9eLiWBr/88kubMmVKMv98d+RbJ/+4fffd1y0tqr+KUfbyLY90EIAABCBQmQSa/edvMmHcYostnEXFx8n3Sj49S0v09fdg6c3GjRtnTz31VNHWIvkQSWmQg77+dt55Z3v44YfdD/AW0jY55k+fPt369OnjtlLUZGUp1GFfTufyR5KFTwrsrrvuak8++aT7+ZRC6rPSSis5a5HaI5HlSPkU02eyEF133XXOibyQOoTTyrFeZevnYCRql5RH+ZcVIsEyoPtulPz15Jd20003uS+fF5IHaSEAAQhAAAJlYbmS0vDcc89Z4G9jgV+Qs4JstdVWS6137r33XrfUpa9f9+7d2y0R6Q29QkVO3oHflXs77/vvv3fWlO23377QbNyyopzj//rXv5qWFwO/K/dV7kIzuuKKK5x1SMqjFNi33nrLdt9990Kzse22286dq5cOtKQnTl7RKjSzMWPG2I8//mh77LFHoacm0wf+Vo6tHO2lrOkFCVkcCxUpq7JayYL1i1/8winXGpsIBCAAAQhAoBACZaFc6cYsC498ZTbeeGM78cQTi36VXo0v5g24MDR9hkH+Scsvv3zyTbZTTz01nCSvfX1SQG+brbnmmu5TDFLUZOUpVPSDvPpEgf5WWWUVk+VIeRYqZ555plNk1llnHVtttdUcc1myCpWDDjrIWbtUF/luFdsulfviiy9a8DJDrD6TlVEKo9okLuutt55Tkgptl5Z/5bslS+ovf/lL5wOmt0URCEAAAhCAQCEEyuY7V6r0F1984T7FIN+ZShIt6cmHq1z8d6ZOnWryv5JyFEfUruWWW84tocXJp1TnyhqnzzvEHT/y15KiJkYIBCAAAQhAoFACZaVcFVp50kMAAhCAAAQgAIFyI1AWy4LlBoX6QAACEIAABCAAgWIJoFwVS47zIAABCEAAAhCAQAYCKFcZoBAEAQhAAAIQgAAEiiWAclUsOc6DAAQgAAEIQAACGQigXGWAQhAEIAABCEAAAhAolgDKVbHkOA8CEIAABCAAAQhkIIBylQEKQRCAAAQgAAEIQKBYAihXxZLjPAhAAAIQgAAEIJCBAMpVBigEQQACEIAABCAAgWIJoFwVS47zIAABCEAAAhCAQAYCKFcZoBAEAQhAAAIQgAAEiiWAclUsOc6DAAQgAAEIQAACGQigXGWAQhAEIAABCEAAAhAolgDKVbHkOA8CEIAABCAAAQhkIIBylQEKQRCAAAQgAAEIQKBYAihXxZLjPAhAAAIQgAAEIJCBAMpVBigEQQACEIAABCAAgWIJoFwVS47zIAABCEAAAhCAQAYCKFcZoBAEAQhAAAIQgAAEiiWAclUsOc6DAAQgAAEIQAACGQigXGWAQhAEIAABCEAAAhAolgDKVbHkOA8CEIAABCAAAQhkIIBylQEKQRCAAAQgAAEIQKBYAihXxZLjPAhAAAIQgAAEIJCBAMpVBigEQQACEIAABCAAgWIJoFwVS47zIAABCEAAAhCAQAYCKFcZoBAEAQhAAAIQgAAEiiWAclUsOc6DAAQgAAEIQAACGQigXGWAQhAEIAABCEAAAhAolkDeytXkyZPN/33yySc2f/78Jcr8/vvv7dNPP10ivKUGzJ071z777LOSVX/q1Kk2ffr0JfJTOWI7Z86cJeKaKkD9pP6SqI2qQ7nLlClTmpRROXJobGx0Y2PhwoXN1j3h69iXv2DBgoLKX7Rokat3oef5QsJ18GGZtkqXSCQyRTVpWPj6KWVBpZ5zouomdh9//HHWJL7v44y9H374wRYvXpy1DEXkqkfkyU0QqT7INm7zaU8TVIksWyCBvJWrAw880Pzfvvvua3369LEddtjB/vrXvyYnt6eeesr22WefFoghc5UfffRRU1tLJaeddpqdcsopKdlJqdp1113tuOOOs3nz5qXENeWB+vK+++5zRRxxxBF25513lqS4Cy64wMaOHVuSvNIzOeigg+z+++9PDy7ZcSk5lKpSM2bMcNfduHHjSpVlznzC17Evf/z48TnPCyfQg4TG2MSJE8PBee+H65DppJEjR1rv3r3dHLTlllvaeeedZ1IGmkvC108pyxw+fLgdcMABpcwya16a3/bff/+s8b7vixl7zz77rOub7bff3rbYYgvT3CfFJJPkqkemc5oqTIregAED7Pnnn08popD2pJzIQdUSaFNIy/fYYw87+eST3ZOILDCvvPKKXXXVVe7p5+KLL3YK17nnnltIllWd9u2333ZKVbdu3eyBBx6wlVZaaanwOOecc2y99dYrSdlPPPGEbbTRRrbNNtuUJL/mzKSUHEpV786dO1tz10sPTkv7Oo6qw5tvvmmXX365e/CRciAFTvNQp06d7He/+12p0Fd9PsWOvTfeeMON2f3228/0J4uw+uuss86yO+64oyy56l72z3/+05555pklLG0tsT1lCbnKKpW35UpcNHn16NHD1l57bfdUcv7559uhhx5qevLQk+pHH31k99xzTxLhN998Y8cee6xtvfXW1q9fP7vkkkuWGLhKrIG900472YgRI5LnnnnmmbbXXnvZTz/9lAyL2lHZyiO8jPf00087q5DO05PuYYcdZnfddZf179/fPU0deeSRKctht912m4vr1auXDR48OKvJfNasWa6sRx55JKVKhx9+uF166aUpYdkOXnvtNTv66KNNZYlfWLFSXWXN0hPfzjvvbPX19SnZRMWL280332zXXXed6yNNDF988YUdcsghrh/UF1deeWVKfrI+jhkzxoXJAqCJ8Oyzz3aWAaVXv3lRP4uj6qa6q55SEj1/pbvppptc27QfNQby6RPlERYtDcqaqPLVj2prWNQnYqZ43XjDVjQtb6h9srjK6qEHAo1PzzfMQQ8SDz74oOOmvPr27Wt/+9vfXFG+rY8//rgpneJ/9atf2fvvv5+synvvveesuD5OeXuJytun8Vs9Sd99993J5WRZZzTG1Ab1jeovxgpXu5XWy6mnnppiSdbNQ9eILBLZ8tG56dexz09bjR2xU9/rmlYfRoksAL4/dtttN3vppZeSyYutw8MPP2zLLLOM/eEPf3D10HgcNGiQ/f3vf0/mHd5Rn8uiGhZZnny/5+qPXNdPOF/t5xpnUe32eYmz+lfjJ32eyjbG8xmXPv/w9tprr02Op4MPPtjNF4r3Y0/jRZJv30tB6dChg5s3NE723ntvGzJkiGkuUtuzSbZ6yMKucZv+pzm0kDGfrVyFq8/atm1ru++++xLJim3PEhkRUFUEClKuMpHRzVXy4YcfOn8YKR4SrbPrQtUFf/rpp9uvf/1rGz16tJsQXYLQP90ku3bt6p4+v/76azdJvvjiizZ06FA3iYaSZt3VGvns2bNT1sp1/NVXX7lzvv32W/eEK+XqqKOOcjfod99916RQSe699163v/HGG7un9pVXXtmknGWSVVZZxdq3b5+iDOqmP2HCBNt2220znZISpiUPLQ9uvvnm7maovLyMGjXKKTeyZummIEVWk45u9JJc8Z9//rmrlyakTTbZxLp06WJaTpOPSG1trWu7bojyifEybdo08/0mi6Ti//Of/zhT/qabbur67fXXX3fJVW8tZZ5wwgkm5fq7776zCy+80Cnee+65p0uzwQYb2MCBA3OOgVx94usX3urmrBurlD/1lZYz/ZKmlB0pHuoDsVMbtdzqbw4ah+pTLV2fdNJJ9txzzzmlUuNEEubw5Zdf2tVXX23qhzPOOMNWWGEFN3a1tOHH2kUXXeQmfLGQguNv4GKoJUb1qywp4iHLisqTROXtEoT+qQ2qn/dxVBlSxtWnUp405lRW69atXR39mNX1pz5Tv0s5kLzwwgvuJqI2ZctH6eT758eDjr1o3GrZStfyH//4R+vevbsbq+KWTZReiulvf/tba9WqlWOpOkuKqYPOE7811lhDu0lZd911sz6IqT90Tlh0nfh+j+oP3XRzXT/hfLWfa5xFtVvnq8+lKKp/9SARnqeixniucam8M4ms5nr40vygh1MtSyovP/Z+/PFHK6TvNRalRIV94cRRor7IJtnqoetHc4v/07WgMbrWWmsVNOazlatwKeeaU3Stp0ux7UnPh+MqIxBcAHnJZpttlrjiiiuWSBtMUgnFBRdGIphI3b4SBRej2w8m9+Q5N954YyJQKBKBNSoZ5neCCc7FBRd2Yquttkocf/zxPiqvbWApcOV98MEHyfSBf06yPrfeeqvbDyaqZHxwsSaCG5M73nHHHROBCTsZF9ycEsFNxNUpGRjaCZQ0l19wE3KhgbXG1buhoSGUKnU3uKm7c8RLf2rnzJkzUxIF6/2u3HCg6hX4LrigXPFKq7wDa5JLHyhj7jh4akxmGSgoLkx1lijvQJFw++Khev3888/uOHh6dWnFL5gwE2qD+tlLoFglAmXGH7q0GguSXGMgV58kM/3vjsoJlDZXDx8XWE4TwRKSO1RcoDT5qITqrrZcc801iUBpT2mzEgVWLRcWKK/unDAHjdPAIpLM69VXX3VpNc78WKurq0vGB9a+5FgJlE7HNLihJOODB43k+IrKO3nCf3cCS6Er91//+lciUODcvuerJIEvlAtT/6o+6vvgxpjQONe+mPn+Ch6EEqpbrnzC13G4/Ntvv93lGVjoXO0Cx99EcDNKhK+5/1Y7Ebz04tIGy4s+yF336o/AtaCgOiQz+O+Oxni4bxQcWMxdeWHm/jyN6eCByh+6rbj4fo/qj3yun3DGucZZLva5romoMZ5rXIbrqf3ggdIxCxS2ZJTmDY2b4GEuUWzf++v+hhtucPkGyr0bh8pX4zVdctUjnN73x5NPPumC8x3z4Tyi9nVvUj3DTAptT1T+xFUPgTZxdUlZHySyPPl9HetpS6KnNC96UtQTtd5Qkbk4LP5pWpYHmWeDG2IyWpYG/5SpQC0HyDJSqOjJOVyunn5lcdATmpzJZQHwUlNT45Z6wsssPk5bLTkFyqIFF7mzBsl0rKcfPeVouekf//hHMrmWN/VU5GWXXXYxLSFqWVBPuQ899JCL0tOe2hncPHxSt5WpWkttshJFxfslVC3dajlBIoui2i3rgRexU1g20ZOit6Ytt9xyzsSvp0WdI6uJlnrUT/J1CW6sLj5TXrnGgM7J1ieZ8lOY2IXrriUdWZjUf7K2aHxpmciLmGrZMriZuiBvadWBll3Ceflz/DbMTFYaSaB0Jtu73Xbb+aTOiqOyJVoeVDpZXr1oOVUWAC/Z8vbxmbZiLZH10luofDo5nGucBAqQvfXWW65fZPXUWNByjKxNsuBpaS5XPvK1ySTK/y9/+YuzcqyzzjpuKWnYsGH2i1/8IlNyF6bldS8dO3Z0fpm6/outg88rmKL9rtuqnyW6/oqRbP1R6PXj25VtnPn4bH2oeSfbNaE2Ro1xLU1Lso3LbFw0Nrxo3pBleNKkSW7Z3YcX0vdKGyjoziqvF1A0v2osyrov15Jskq0ePr0s5pp3ND/6tPmOeZ9HMdti21NMWZxTOQRiK1fep0WTeFi5kllZstpqqyVpaV9LVVpiySR+KUIXo8zTXkHQWrsUCy9SxPIRP+H6tNkm3sDa5JK0aZOKQ34D2WTFFVd0N2w5cOuGpaUR+SpJ9PZSOC+12YuWFLXMp0lUy6ZagpPvh27Evh7p5fpjrzz5Y5+nP/bMV199dR/lJrZM7c4U5k/yipU/9lvlL0VRS7eawPUmkJZP/Rjw6fzW1ydqDETVw+cT3rZr1y58mFQC/fjQDTy9vJ49ezplRydGKVMpGQcHyitKssVLsdIDQno9wmVnOzeqPOUrkX9e2EdP5eiFBCk5Cg+sbO76kUKpMDkRy99K5avPXn755ch8wtexS/jff7rG9daUlvflJ6llHP3J701L+5lEHMKiYynqudqSrQ7KS/NH+jJfYAF27QszDpebaz9bf2guyjRGM4WpDN+ubPXw8dn6UJ+5yZa3nx9U1/SxpTHuJVtbfHz6Nr2uKt8vQ/u0hfS95jYpVRpnUogCy6BTCuU+oPkvm0TVQ8vxWuKXkqbleC/5jnmfvphtse0ppizOqRwCqdpEge3S90ACk667YDbccEN75513kjn4t890IUgRkcjXQk9smZQj+WbpqVs+Bro5/OY3v3EWEt3otZ9LvDKjOnlRnvmIJiMpKHrlWA7CXryTtz9O38pCojX6++67z93UpFRJZGnTXyZZfvnlnWKlOL0FJgvX9ddf725OmjhUD5UbLIsmT9exJh5NqFHx/obrWSgDTT66QeipUflLZDlQWKEiJUrWj/DNNOzsnp5foWMg/fxMx+mvhftjWZb0xC2FQpZNL7IuyjdDlhbJv//9b/M3Io1Xb23y6UuxVVm6SeqlAi/yoYnyN/Hporbrr7++i5Z/jLdS6KYjK69ufhI9iARLiM4iK18htVWWPTnji41unLnyyabYPPbYY87X5cQTTzT9yZ9RDxayZmZTrmRF05t/XmTtlMW42DooH/lXqd9lrfSWEB3Lep5JdD145Vvx8tfxSk6m9OGwQq+fXOMsV7s1brKJ5sKoMZ7tvFzhsuz6uUsPuHJk93OFP7eQvld+8mWVA7xfYdCLNpqfNP9lk6h6yEKqh0uNtXQlLJ8xn63MfMKLbU8+eZOmcglkXxvK0GY5OWtJSI65ehqWaVYXYqbXn/WGiC4COUnq6UWTn5xadZNPt4zoBqfvoGiilJO0bhaaAL0lKENVlgjy1hrVSxOUbmZasstXpNTJAVgO73IA1lavfEeJLmopO3oTTO0tVPQUr+U+tV/Oq9rqLSaVq+UXWcOkvOoJ0H+PJld8eh2k5Kkf9AkNLVdJwdVEVYz4pRgtbchSoBu2Jl05q3qlVmVJaVFZhYyBfOujm7MUJvWRX1rxioYYqU6yBipeE7yWdaVcScnQDUOKrJbUZHnJR2nPt17hdHq7S0qoljA03nXNaKk4rPSG0+e7LwVK7ZAzuRQoPTzokwlaklYbJVrCUNt1I5J1UW3WGNXSoF+qyiefTHXSeBQ/XVtanpazvCTTw5I/X/xl3VWdLrvsMmfBkHJYbB2Ur6ynEt2wNZ5vueUW98CgtmcSlaUHCs1b2mquyVcKvX5yjbM47Vado8Z4vm1KTyeOmp81T/trQvNMWArpe71oovx0X1CeertRLyj5F17C+Yb3s9Uj8ENz+R0VvIikcaSHPP+gp/PzGfP+RRY9XBUq+bRH13wmZ/hCyyJ95RAoyHIlC4q35ugJRJYJvZWl7xqli+J1c5NC5S9U+fKErQr+HFlCZOaXQiHFS99I0oWoG7e23l/Gp8+0lWKmi09WJClKUly09a/Ppz/t+Dx8uC5sKQxSdvSncLVLk0M2URr5/GiZREt8uUTp05cqtWTo6y0OmtykWOqGoT+JfLlk5ZLkineJQv/ExfeDPpsh0RuA/i3KUFK363lkCpcFQudqstOfbtryHdPSkG7yUmz1iQApE5pcpRT6sjONgaiy0sv3xxpDWnLwvnAaG36ZQDdNLVl6pVxP+bJE+mVZvVWoNBqzKltKmRTq9KUrX1amrfeJyRTnw6TUaKKVEqgbi8rScpx87KJEeecSjQkp4npokUixkdLil4LEQ+3Rcq385SRaltFNRePIS658fLrwEpWsqepXLe94UX/ozct08W2RX1vY71J+jf5BJN86pOctv0k9IOh60fiTyGcq/QO9/jwtJ8lC7P0elVZ8so0/f57aUOj1o3NzjbOodmerkw+PGuN6oClGZG3zY1Njx78lqwcEL4X0veZw9XngbJ6c+/Ugqjk2SrLVwz8kh98MVj5SaNSn+Yx5WY31MOAfArPVw3P2W6XLpz3yUdOb2QgEkgSaw3c/UBbcm1vNUZbeENObh8VK4Cfk3pIJrEh5ZaG304Kn27zSFpIoUMJcO7K9fZgrPlNZepNJfOKK3nDUnxftB8ss/jDjtpRjQG0PfPKylilmwZN2Sj10jt6C03mK13GgYLo3gwIlPiVtKQ9UD5VVrKi+entJbwuGRf0Y7oNwXCH7xeSjc1Sv4EaVV1GBFS2ht4qzcSimDipY+elaV/65RNez0qqsYiWf60d1ynecFdtu1T/TGC+2XTpP12c+82ahfR8sM7q3V/OtW771yDe/UqcrtD2lLp/8Wg6BGlU1qWmxkzcBLd3JNC1rm5Z//NN43hmQsNkJ6IODElkBZZUIXhV3li4tEXorT7NXKqJAv5Smsabve0U5A0dkQ1QzE2hp46yZ8VAcBKqCQEE+V1VBJM9Gyq9IH/aU/weKVZ7QlnIy+a+tHfggyf9JS4laGtJnMMpRsRIqLWHIaVt+iChWS3nwFFB8SxtnBTSNpBCAQJ4EsFzlCYpkEIAABCAAAQhAIB8CWK7yoUQaCEAAAhCAAAQgkCcBlKs8QZEMAhCAAAQgAAEI5EMA5SofSqSBAAQgAAEIQAACeRJAucoTFMkgAAEIQAACEIBAPgRQrvKhRBoIQAACEIAABCCQJ4G8lSt9qdz/6edl0n/YU+UFH5hL/iRGnuUnk02dOjWZv8rRT3voa9thCT7Q59L4HwQOxxW6H3yAMfZvvUWVqa8bp9c/Kn2cuOCDjjm/PBwn/7jnFjIuxC3b1+Pj1qOpz08fw/560U+uSJqzn/QZB5VXjOh3J1X3UlxnxZTflOdobIW/PF5MWfrSt8a0pNg+1fyZjbHmVz9miqlfoeeEx0oh1+r/a+9eXu+f1jiA7xORREguIUcuUQZISrn8EqKMJIniZICiKCbKgJJLyEDKhH4oSSZIyIByKRO3FAN1/AHMKAO1z3qtPNva6/e57v39/s7vOOupvT+3dX2vZz3rWc9an88zN5/dCM+tE68BNfmECRdQU0j9g9ed+8TO3M8/as+9yTsIF2YlGbP4a5xCwVMRllcB7p3mEp58991394k2FRNYBB4S2RSTfQow80bZz7qi7gTm0i1x2RTzrvJhoknkK9H1L7n0WKbvBC3ja+a+TCzMJuQr53X6ri+77LL8dWdppsFr7WvVvoZ8wQUXLFNnWCYXNPn8t99+m5R9cp+xvP766yeF3STQ7bffvkzuZjaJOjuOdkguK2bH218R5vBFco+yTO6AdqVovhKe3PQsk2PiXUm/j4ejT+zPdkruiXJ/2KSiaXDP/Sx9JHeT6Ad0nLLfb8oPZE5ykZXruWmbfvbZZxnj5KR+Da/kWijf35/9OflRXSYXSbkcc/rqWsE7LtKHb5ePPfZYx5OducVDgXIn5+BrCeJf96ON1h5WF8mhdw779ttv5yfGFGOOMWUOJX+fyxtuuGGfKMkN1grbfR7+eQP+eIqcUO70Hb7sfSA5qV5ecskly+S7tS/qPveNxcnn7zI5jV97NgUTYZK7uVwOZUnuwZbJrU8uyyaYrBVgg4uyn3VF3wbzSK/GZRPMI636ONlyRTPjR4+fp8SI2Wccx81PPPFEdiTrOd9zfMxtSpwvS9+PX8Gnn346W8jCJ1idrq9sKwP/Zj4Oed11183yE1en97967Yvj2uZApW35YqfqxWLBgauZym5RycPBy47oQG+n3cLkQEqXf01OzNFO8MNOtSmLB7+B5J6PxvbJvN3Gcif76ldffZWdfO9WmX0MmFPl0vcsqytfl7UFqS4DrwxJ8ctyswzLp+B99923SMrJyjpZx62vrbLwIardSmI94rB6iDiZ54OU/8uk2Oa8+ap1j29c5eHHdSr5KDK+vvPOO1dRpmCSFIPFbbfdlsdPPhx5r2AZuuOOO3IZ5mKyynyXTrbBPIrUhcsmmEd69XGWcsWJKa/uFBkOejETYZW0vYUlERV+6aWXVnn8/PPP2XEu562XXnrp4uGHHx5keo6Ape/HiefVV1+9OProo9dMlKvE04n0MRJhiZm4C/nll19WQSwBYBj5+3FO2rdUx8Ew56JhTv32228XyRKxOO+887KD39dee22Vbn2CCe+///7sPFZ4Tk5//fXXtWA6H7cYnvNsz3UO4mxVvo6cG998881r8eJiqDzKFg61KVnM2jfddFPOi5PacF4tLXgFJtqEKTvy93yozYSrfxwjI+ZvboDwBazdlxaq+WKsXWAnPqykhW+CxurXV35CLBzHcvj67LPP5iT7wnvIwTMn0Aa6iy66aJ+yRJnKY8nDwcuOqGynNBvN6cNL2gYKdX755ZdzWPV8880387k/fBvtNJVnxHv88cdzuWGp3kz8SP7qBV+OkPEJvimJA+7g2WuuuSa74InnQ+0Na3ycZuSLyy+/PLdjmXekEUdOb3k6UEY//Jl8zMXjhfTIAs+UJzASQBvhO22rLvB86623chj8LQ6n6lHvjz/+OE8O+/hhlemfJ2SKviRtP3iWVLbpECZlnPpcW5BNyYqVnVHLL8iSEnmCR/yEK5fNh5738QlZp120uwlpuQRZ9lXneM5kGj/CkrNz6QZpY5hLCz4cNlNWtAtsLM1JgzKDhuTYWN+OPB1/+umn7HSdQlqS/nrCCSfkcaO8X5/DnJPqa6+9tn6U5b5+zBH9FKKInHnmmYvzzz9/FZyc5QUirY6s7nWdUL7C+TkH88lqvzj99NMXXF4xHhjXfPG/XKbrSifucQpuTOa0PmgKJsmvZG4rcoiCfcUVVyySFStPRPG1sXAIE+1dOmiXt/Es+upY2471s6hLHLfBPNLowmUTzCO9+jhLuaojuyb00A8//JAFYqwv62CEmg5K62VhopE/8sgjOXzXnzVnHdfvk08+yUITk2rYmqSfzLBZqcCQBiYdl+JCI/Vc43733XdZOGE4M6mYtZbp0dQJHG5slJMH9bQ8lb2hP/jgg5n5Weg++OCDMtrqXAf/8MMPc3x1tVb8/fffr54TTgYAMyxMqHxmKuqmzhRCMwQWlWR+XcWLk7HyJOfAq3V9nSS82ieT9OLII4/MmFNYdBKY2esBB/U1Q5M/ITjWZgZAHc6PoBXv+OOPz8XUsSjZN9544+Kee+7JewVgiAyUJV+MtYvypaW7xQMPPLA499xzM998+umnOa2h+g2Vn8CiQCAYJ/P7aH3hbhD+8ccfs1WhLktOrPqDY/BwHGNgL9sJn7Ci4W0zbbxFQY7JgXpGPFlQ4KOdpvCMOPiMoqE9zMi++eabzOeesQrLk/CnvJ500kmZb0ohbiYNM+1gBo2fYg/IUHtrO/3OwKtv1nnLv6S0VJd5X5qwUM5QqCmYhOCJJ56Y+46J3TPPPLNSBLWRiYvJHWXRZCwtrS3SklBWCChq+iIfoEif0w5d/FCWybkBGD/rz3fddVeuC36Aa1DZpkOYRPj6mLYx5MGQbDLRofQETZFxQzKwi08M1GQdi49VBi6g8GFQ2VfxAp6jJFCQyCiTEfVEZDScpQVzA/I777yT7+MbE2R8Q16w6I7JsaG+HeWLI4Uc6ZNByiN/vD1GV111VeYXPF2TARafhcypn9fX5NXZZ5+9uq3dyFdjETkzRPrWU089tQpCTlM05I/UT3oxec43e/60N/mjPYKmYqL/27tGSdZHGBn0/z179iwOOuigrOgNYaJttV9Jadl9TZ71jUtT+lmZrvNtMBd/CJc5mEurjw7uezD1fvg8M7M++OC/knv//ffzgEq4n3baaTk52jTLFgXjsMMO2ycLAzAlqCTCktZbk05EENBgdWqEMWj6lDjpU1bMPi6++OL8nCB55ZVX1mYBhM1zzz2XBYdBCDHDHnHEEVmAm91QEs0mCWgzt5Iw4hdffLG49dZb8yDkmQETUwYx8aa187yE6p7ZIiHKhOs+OuOMM/IMhTCqaU55xE3r5SvLDAF399135423sUEQBpQjpH4vvvhiPh9rsxBEhK42ITANggQwAW2JJBQq6RvYzMBKskQ21i7K9Prrr2flFpZpX0se1AOrvvoZYPFQH88ZKCnBLAEEhTIPhVfusbKUdXPOqlDzsMHJIBjkZQqCWzkoFgjvskrMoSGeiXTwrLQR4RmDUtprkge9GCgPP/zwPNhQFgwuSBtTbJCBAv4vvPBC3gYwpb378s4JFn/4h9VDHvj/mGOOWb1s8vzzz2dLdsyA9UPhKAjBa+QKfjEIHHfccXkyR0kzgUGUSIK+pAsvvDBPNkp+KJ87J2MMVuoRijnrAsW4prE+EPHreGShwRO99957q37pekzGsSQMycBTTz1VMmuyhTWPlQV+iIWR8qPd+4hSFZNSCv8bb7yRg8KU1YW15NBDD81WIFjbUP2vpFSn/SxZ6Q2LMV4bk6t9fdv9kljb8Er4BYW/1QNKXoxJZfi556eccsqCPBwjy2lkyMknn7wKSt7rX5T92BKwelidwC+IYkVmUt4ZC1BYvU3UQv5F+PrIkIGUHW2KibyDH9Le4ZyWv6mYrCJUJ31tq9xT+5kkt8V8DJc5mFdVXLv8Sxtauz39wiwVEWpx7trsE4Xwdq5SBImOEQLf/SDm3Jh1CKfzumYxqQdpg4TOFYqVNChRBkPPKFeeh2LlucGrHMCUI5aHKDxBGPn333/PjB73DNxmmTUFQ5fm5aOOOmo1e2At0vnUp1zyc99sNToMJlbeLppTHvFLQR4dTX1YE+ATipWwV1555Uq5mtpmhAYhS4k55JBDVlY6VoZyFiz9L7/8Mg+WzlG021C7EDiENSI8DSIsN0F99Rsrf8SP45TwY2WJtOJY8nDci84a12HVDKuv+5SLvvaPePVxiGeElV7Zz8xOY6mWJdbSNCuQNul646rsE/qT5QJ9Jsrf196Us6G863qwoFq61q6Wviz9sQbrI2RGvbSir7GYEMhIG1GskMkYokQEURwJ5LnEGq8eJb+RN13tNIZJmUZZDuU2ydIeLAUsKhQ/FH2lT8bpF8rS9zyUq+ATg7aJTSil8tBWJowxwXKvprKvkiehDEqH/KL4ki1dPFSmNUWOlTiVsqtMxznFzWQ5iMJr8O5a5Ygwc476inriweCtrvgsNiiUKxiYsGtLsnYqeevR5JWcZjA466yzclRjiTaOfjuUnr6JArdNMWGdZTQwcWY0oPTDYyomfWXsa9s5/Uza22I+hssczPvq6v7WylXsHTKAlMpVLC8YbIKcm/lZquoiM9ByMKAEsIZZmrPkZ0YbJP0upsfQnhGmBv4xwjz2mpj1WNZCGFw6ddm7hCqTJiqtdq4pB8rxxx9/uMzKXp2eGWRQdM64Lo9zyiNel1XQ/Sir86AQlK6ntNnevXsX9q0QAFFm5UMGthjcXKsv60rJFwbEsXYJxUoaXdRXv7HylwqadMfCCzNWFmFKqnm4fBbngVcXP0WY+kjI1xT41/fjuqt/xDMWE4owE7hB6ZxzzslW3XjuWA8OrmEY5e9rbwPfUN5lHs5tFaAgEOLpLbq890iftGcHUSJKiutovy4c6/5Yxp96ThnpqkfXvTFM+vJMbzxlmWh53r42AyzrDz5Sv668QsZRjIaeR57BJyGLamwCzwhfH/v6G4XYHh1LtgZOCnFYOus0XMNoTK725VWnp21CdlFCTZTUMyawlEjKP0vyUJnqdOM6cA0rbtyvj4FplIXSjx8jT0qRZ8plUlruy4q0WEZZ/yznmexQYmqK8tT3y2uYILJiLib2sFmBYd1nXfRTF/2SvL/llltWvDaGSVmm8ryvbef0M+ltg/kcXKZgXtavPt9KuWK9oKUzw1pz/vrrr1fpG1SRJRGaILJfA8PrjFPJUhYKxol4lhrdI8jtn0CsSwZvzwCjM9PAIz8CG8OkV4RzeEtm1ryPPfbYvPeIxm4J0H3pEnhBrDShMcc9x6inNfEw8epMZmmeGZwJSvutyv1mTMcxs5ROPZC5FzSnPBGn6/jPtBQGMx3JOYqNps6jLn1tpn1hYsZazpZjlmXJJpZNmbjtJaiVbtdj7aIsm9BY+euXGcbCb1KGKXG0JyLMQsGGbQhoz/BvuefK7K6mIZ6pw5bXeIBiRZA+9NBD+ZHlsZrSK+7ZWhX3WScI/rH21nemkjpS1C2HsN4gA7aB28Bk4Ne3LKEGuTaAlYp8PNvJY8iYsr+wDtSySJ5jmPSVKyaaZKglLX3Pj8U+8u+TcbAZkoGRZ/CJwU0c1pVYdhJmyn6eSKs82l5AjpCNBlx9PpSKMlyc75Qck56JtiXROGftLMkgqr7lhLx8PnZO1uOvLsW9jGvsQPZJIRbTMk8KMgXP3tSuiZrtARQrL3xQvmqiJJILMbbUz8vrsOQZB01s52BivNJ2xqSwMIW1N45DmFDYLYUGaZuYcMS9vmPw+ZR+Jo1tMNc2Y7jMwbyvTu53r0P1xLCx1xtEZlb2Mtn8bRMdy1JNTP0Y00ZQm890aIoMALuYTHwNIv3Iw5s5LCW06HrNnflX+vYCUNp0Jvss3LO/xVIiso9K/spsnwEztvRQaKYEOyFhwx2BjtEpZTahK6/yEPj1jE8aGIPQsLxIabPfQD1LxrJHxGBBedMJlYMZvlSupNVHc8rTl4b78ZopzD7//PNcHpuOg4bajMVCW3pj1OZWFsv4UZgoCWbh0rVUarMsS0RdxyntEuWZexwqP54LixmFUjuMhZ+b/9TwsMJveIaSozz33nvvWnQCxJ4bS8dwDsVjLdCWFzCgcFpyf/TRR3Nq5aZUPKoMwnlueZsCPae9x4pIufD5AdsH9B0DUQyaMPDyg/KZ3dsHYjL30Ucf5X1XY2mPPa/5oQ5fyhiDDzkTe+TqsDuBifwsvZI3lN0y/y4ZN/a8LqNrMsCArt9rV8d6y0VXvK57Bl0Dke0bZKy9nYjspBDAlxxkjaRE75Qck4cVEHlIlyKhL5U/csr4ZEUCGUvgVVuv88OOP7ymjyJ9VFyToZpsWzB5jom3fX5lOUxEjUnusUxRfKQVcpdiRYmrZaq+gGLvUyjvMIy9r3VZYozUrnMxsRyvnGS4cUx7xj672LpSYlLnjf9NPIyzjvVbnHX48rrk47F+Jt42mE/BZQ7mZT3q81mWKzOcmOVQUMz8LS9YUqjJc0oERYOARLTv0npTxtGwhKrwQe4ZiHyPREcNZchznQeD6jxMlnFPnqHBM7ES2vKXFgaKzZU5wp9/Zl0UKzN568wYHgOzLnkTSVybqsv9WmV8eVLsgul1lnJTJUYziMWsTmc0cyQgpgg2ex7mlKcsW5yrIwsizCg+FCUzWti9+uqr+Xyozeydij0u5axX+pZsYUaRlS5iLTQg16Zge/OG2gXWXdR3P8Kq31D5hcNLeEP+9shQWIZ4tC/Poftdy3dRxvLoDVV8of9Ij8XPoBdWBi8H4G2KPyKkWV7VcwoNlVEekZ49Pghv2zsjT5MAFK/W54v0Jw6FFA2191DeOXLxJ+yTTz6ZrTaRtvLptxRiSie5ID8/pMzwQX155Ycjf138UEYhY4I/4iUFy6gUwC4awqQO39eO5JB9kPjC16LHZNzQ89iDU+ZN/nmhggU/lrDIb4NpTWPYGny1Q0yYvIX7z6SQ2G9ECWfF2Zsmx2Sjiar23USOdWFFGdF/DcY+BdFF5XhhwmcVpO6fUcc4RjrCUs4Qxcl1aUmOcI7Ghi78yjBxzronLQoQCkuofXElUbLJCEYDFFZ2Sna8oV2Gd26vFZ4VJ9qkDtOHifEK77GaxjhmnHJPm6ISk3yj+KNU4tewvrF+kbU1rkWUfKpt5/YzEbfBvC6D6xKXGnPXYS3ritt7L80+dp2ScFwmC9eu5SP9tK+nN/0kDJdpBtX7fOhB0mLzF2qHwsQzX/v11eA+SmvFS+ltQ3PKU+eTrBLLJPhyWwQeyWqQv8ibLHZrwTdtM+08hEGZyTbtUqbTdT63/HPDd+U59V4S8Lkd0ux0iSdcwyLNPJfaIyjtkcveCYTZDdJWJT+5TgPIWlZJoc5lUMYumtPeXfHjnvTxZ1meeOYYz3cLizKvrvM0OZosw3YKk7IcYzJu7HmZlvO0XJU9XiTrT/1o1nWkE/JE++DlMepr57F45fO0j2myNwf47Nmzp4zee54sN7kvhhyDUXqjcuUppI6YrMs5fBqE60ed12nSuUwT2s5n9c2k4C3TcvHqdtr/tEzK6uq6Pklvvi/TFpRJX3XvwwSv+5VUY1I+i3M46cP4f1Oa2s/2J+ab1sXG70b/JwgQFgbwNEtacruRXl/PbheSxe7/BIEDp5ppz9rSL73uvUym9GV6Ay63xTaC6cCpXStJQ2D3ET6z+kkAAAG/SURBVEirKFmepWXJ0cyStX5t4jIUIW0rWXKtEpQsxktuk4Yo7dUdDSP+v9OEKlmplxSbMVI/7nBKw4G4aRWhNyr5wW0M2T5G22Aylvb+eL6/MN+0Lv8Qsdes1R787RDw8TQbiK39W7Lz2rdNzbu9OfhvB+SWFbIsYIncsgayRGUprPwY4ZZZtOgNgb89ArZxWNb0ItIQ2Z81tkQlvk9/+K6X7zFarkJT4lres5Qb20hyxI4/w23XMmdH0Pz9RS8glC9zTCmL7zzaxhH7KLvSdm9KWsJ1YeL+f5v2F+ab1rMpV5si1+I1BBoCDYGGQEOgIdAQ6ECge/dwR8B2qyHQEGgINAQaAg2BhkBDYByBplyNY9RCNAQaAg2BhkBDoCHQEJiMQFOuJkPVAjYEGgINgYZAQ6Ah0BAYR6ApV+MYtRANgYZAQ6Ah0BBoCDQEJiPQlKvJULWADYGGQEOgIdAQaAg0BMYRaMrVOEYtREOgIdAQaAg0BBoCDYHJCDTlajJULWBDoCHQEGgINAQaAg2BcQSacjWOUQvREGgINAQaAg2BhkBDYDICTbmaDFUL2BBoCDQEGgINgYZAQ2Acgf8AEYGOYCURiX0AAAAASUVORK5CYII=;" parent="nHsgwOCxEVJ2XdIft6rS-1" vertex="1"><mxGeometry x="270" y="650" width="599" height="487" as="geometry"/></mxCell><mxCell id="nHsgwOCxEVJ2XdIft6rS-20" value="" style="shape=table;startSize=0;container=1;collapsible=0;childLayout=tableLayout;" parent="nHsgwOCxEVJ2XdIft6rS-1" vertex="1"><mxGeometry x="840" y="260" width="480" height="360" as="geometry"/></mxCell><mxCell id="nHsgwOCxEVJ2XdIft6rS-21" value="" style="shape=partialRectangle;collapsible=0;dropTarget=0;pointerEvents=0;fillColor=none;top=0;left=0;bottom=0;right=0;points=[[0,0.5],[1,0.5]];portConstraint=eastwest;" parent="nHsgwOCxEVJ2XdIft6rS-20" vertex="1"><mxGeometry width="480" height="40" as="geometry"/></mxCell><mxCell id="nHsgwOCxEVJ2XdIft6rS-22" value="8" style="shape=partialRectangle;html=1;whiteSpace=wrap;connectable=0;overflow=hidden;fillColor=#dae8fc;top=0;left=0;bottom=0;right=0;pointerEvents=1;strokeColor=#6c8ebf;" parent="nHsgwOCxEVJ2XdIft6rS-21" vertex="1"><mxGeometry width="60" height="40" as="geometry"><mxRectangle width="60" height="40" as="alternateBounds"/></mxGeometry></mxCell><mxCell id="nHsgwOCxEVJ2XdIft6rS-23" value="" style="shape=partialRectangle;html=1;whiteSpace=wrap;connectable=0;overflow=hidden;fillColor=none;top=0;left=0;bottom=0;right=0;pointerEvents=1;" parent="nHsgwOCxEVJ2XdIft6rS-21" vertex="1"><mxGeometry x="60" width="60" height="40" as="geometry"><mxRectangle width="60" height="40" as="alternateBounds"/></mxGeometry></mxCell><mxCell id="nHsgwOCxEVJ2XdIft6rS-24" value="" style="shape=partialRectangle;html=1;whiteSpace=wrap;connectable=0;overflow=hidden;fillColor=none;top=0;left=0;bottom=0;right=0;pointerEvents=1;" parent="nHsgwOCxEVJ2XdIft6rS-21" vertex="1"><mxGeometry x="120" width="60" height="40" as="geometry"><mxRectangle width="60" height="40" as="alternateBounds"/></mxGeometry></mxCell><mxCell id="nHsgwOCxEVJ2XdIft6rS-25" value="" style="shape=partialRectangle;html=1;whiteSpace=wrap;connectable=0;overflow=hidden;fillColor=none;top=0;left=0;bottom=0;right=0;pointerEvents=1;" parent="nHsgwOCxEVJ2XdIft6rS-21" vertex="1"><mxGeometry x="180" width="60" height="40" as="geometry"><mxRectangle width="60" height="40" as="alternateBounds"/></mxGeometry></mxCell><mxCell id="nHsgwOCxEVJ2XdIft6rS-26" value="" style="shape=partialRectangle;html=1;whiteSpace=wrap;connectable=0;overflow=hidden;fillColor=none;top=0;left=0;bottom=0;right=0;pointerEvents=1;" parent="nHsgwOCxEVJ2XdIft6rS-21" vertex="1"><mxGeometry x="240" width="60" height="40" as="geometry"><mxRectangle width="60" height="40" as="alternateBounds"/></mxGeometry></mxCell><mxCell id="nHsgwOCxEVJ2XdIft6rS-27" value="" style="shape=partialRectangle;html=1;whiteSpace=wrap;connectable=0;overflow=hidden;fillColor=none;top=0;left=0;bottom=0;right=0;pointerEvents=1;" parent="nHsgwOCxEVJ2XdIft6rS-21" vertex="1"><mxGeometry x="300" width="60" height="40" as="geometry"><mxRectangle width="60" height="40" as="alternateBounds"/></mxGeometry></mxCell><mxCell id="nHsgwOCxEVJ2XdIft6rS-28" value="" style="shape=partialRectangle;html=1;whiteSpace=wrap;connectable=0;overflow=hidden;fillColor=none;top=0;left=0;bottom=0;right=0;pointerEvents=1;" parent="nHsgwOCxEVJ2XdIft6rS-21" vertex="1"><mxGeometry x="360" width="60" height="40" as="geometry"><mxRectangle width="60" height="40" as="alternateBounds"/></mxGeometry></mxCell><mxCell id="nHsgwOCxEVJ2XdIft6rS-29" value="" style="shape=partialRectangle;html=1;whiteSpace=wrap;connectable=0;overflow=hidden;fillColor=none;top=0;left=0;bottom=0;right=0;pointerEvents=1;" parent="nHsgwOCxEVJ2XdIft6rS-21" vertex="1"><mxGeometry x="420" width="60" height="40" as="geometry"><mxRectangle width="60" height="40" as="alternateBounds"/></mxGeometry></mxCell><mxCell id="nHsgwOCxEVJ2XdIft6rS-30" value="" style="shape=partialRectangle;collapsible=0;dropTarget=0;pointerEvents=0;fillColor=none;top=0;left=0;bottom=0;right=0;points=[[0,0.5],[1,0.5]];portConstraint=eastwest;" parent="nHsgwOCxEVJ2XdIft6rS-20" vertex="1"><mxGeometry y="40" width="480" height="40" as="geometry"/></mxCell><mxCell id="nHsgwOCxEVJ2XdIft6rS-31" value="7" style="shape=partialRectangle;html=1;whiteSpace=wrap;connectable=0;overflow=hidden;fillColor=#dae8fc;top=0;left=0;bottom=0;right=0;pointerEvents=1;strokeColor=#6c8ebf;" parent="nHsgwOCxEVJ2XdIft6rS-30" vertex="1"><mxGeometry width="60" height="40" as="geometry"><mxRectangle width="60" height="40" as="alternateBounds"/></mxGeometry></mxCell><mxCell id="nHsgwOCxEVJ2XdIft6rS-32" value="" style="shape=partialRectangle;html=1;whiteSpace=wrap;connectable=0;overflow=hidden;fillColor=none;top=0;left=0;bottom=0;right=0;pointerEvents=1;" parent="nHsgwOCxEVJ2XdIft6rS-30" vertex="1"><mxGeometry x="60" width="60" height="40" as="geometry"><mxRectangle width="60" height="40" as="alternateBounds"/></mxGeometry></mxCell><mxCell id="nHsgwOCxEVJ2XdIft6rS-33" value="" style="shape=partialRectangle;html=1;whiteSpace=wrap;connectable=0;overflow=hidden;fillColor=none;top=0;left=0;bottom=0;right=0;pointerEvents=1;" parent="nHsgwOCxEVJ2XdIft6rS-30" vertex="1"><mxGeometry x="120" width="60" height="40" as="geometry"><mxRectangle width="60" height="40" as="alternateBounds"/></mxGeometry></mxCell><mxCell id="nHsgwOCxEVJ2XdIft6rS-34" value="" style="shape=partialRectangle;html=1;whiteSpace=wrap;connectable=0;overflow=hidden;fillColor=none;top=0;left=0;bottom=0;right=0;pointerEvents=1;" parent="nHsgwOCxEVJ2XdIft6rS-30" vertex="1"><mxGeometry x="180" width="60" height="40" as="geometry"><mxRectangle width="60" height="40" as="alternateBounds"/></mxGeometry></mxCell><mxCell id="nHsgwOCxEVJ2XdIft6rS-35" value="" style="shape=partialRectangle;html=1;whiteSpace=wrap;connectable=0;overflow=hidden;fillColor=none;top=0;left=0;bottom=0;right=0;pointerEvents=1;" parent="nHsgwOCxEVJ2XdIft6rS-30" vertex="1"><mxGeometry x="240" width="60" height="40" as="geometry"><mxRectangle width="60" height="40" as="alternateBounds"/></mxGeometry></mxCell><mxCell id="nHsgwOCxEVJ2XdIft6rS-36" value="" style="shape=partialRectangle;html=1;whiteSpace=wrap;connectable=0;overflow=hidden;fillColor=none;top=0;left=0;bottom=0;right=0;pointerEvents=1;" parent="nHsgwOCxEVJ2XdIft6rS-30" vertex="1"><mxGeometry x="300" width="60" height="40" as="geometry"><mxRectangle width="60" height="40" as="alternateBounds"/></mxGeometry></mxCell><mxCell id="nHsgwOCxEVJ2XdIft6rS-37" value="" style="shape=partialRectangle;html=1;whiteSpace=wrap;connectable=0;overflow=hidden;fillColor=none;top=0;left=0;bottom=0;right=0;pointerEvents=1;" parent="nHsgwOCxEVJ2XdIft6rS-30" vertex="1"><mxGeometry x="360" width="60" height="40" as="geometry"><mxRectangle width="60" height="40" as="alternateBounds"/></mxGeometry></mxCell><mxCell id="nHsgwOCxEVJ2XdIft6rS-38" value="" style="shape=partialRectangle;html=1;whiteSpace=wrap;connectable=0;overflow=hidden;fillColor=none;top=0;left=0;bottom=0;right=0;pointerEvents=1;" parent="nHsgwOCxEVJ2XdIft6rS-30" vertex="1"><mxGeometry x="420" width="60" height="40" as="geometry"><mxRectangle width="60" height="40" as="alternateBounds"/></mxGeometry></mxCell><mxCell id="nHsgwOCxEVJ2XdIft6rS-39" value="" style="shape=partialRectangle;collapsible=0;dropTarget=0;pointerEvents=0;fillColor=none;top=0;left=0;bottom=0;right=0;points=[[0,0.5],[1,0.5]];portConstraint=eastwest;" parent="nHsgwOCxEVJ2XdIft6rS-20" vertex="1"><mxGeometry y="80" width="480" height="40" as="geometry"/></mxCell><mxCell id="nHsgwOCxEVJ2XdIft6rS-40" value="6" style="shape=partialRectangle;html=1;whiteSpace=wrap;connectable=0;overflow=hidden;fillColor=#dae8fc;top=0;left=0;bottom=0;right=0;pointerEvents=1;strokeColor=#6c8ebf;" parent="nHsgwOCxEVJ2XdIft6rS-39" vertex="1"><mxGeometry width="60" height="40" as="geometry"><mxRectangle width="60" height="40" as="alternateBounds"/></mxGeometry></mxCell><mxCell id="nHsgwOCxEVJ2XdIft6rS-41" value="" style="shape=partialRectangle;html=1;whiteSpace=wrap;connectable=0;overflow=hidden;fillColor=none;top=0;left=0;bottom=0;right=0;pointerEvents=1;" parent="nHsgwOCxEVJ2XdIft6rS-39" vertex="1"><mxGeometry x="60" width="60" height="40" as="geometry"><mxRectangle width="60" height="40" as="alternateBounds"/></mxGeometry></mxCell><mxCell id="nHsgwOCxEVJ2XdIft6rS-42" value="" style="shape=partialRectangle;html=1;whiteSpace=wrap;connectable=0;overflow=hidden;fillColor=none;top=0;left=0;bottom=0;right=0;pointerEvents=1;" parent="nHsgwOCxEVJ2XdIft6rS-39" vertex="1"><mxGeometry x="120" width="60" height="40" as="geometry"><mxRectangle width="60" height="40" as="alternateBounds"/></mxGeometry></mxCell><mxCell id="nHsgwOCxEVJ2XdIft6rS-43" value="" style="shape=partialRectangle;html=1;whiteSpace=wrap;connectable=0;overflow=hidden;fillColor=none;top=0;left=0;bottom=0;right=0;pointerEvents=1;" parent="nHsgwOCxEVJ2XdIft6rS-39" vertex="1"><mxGeometry x="180" width="60" height="40" as="geometry"><mxRectangle width="60" height="40" as="alternateBounds"/></mxGeometry></mxCell><mxCell id="nHsgwOCxEVJ2XdIft6rS-44" value="" style="shape=partialRectangle;html=1;whiteSpace=wrap;connectable=0;overflow=hidden;fillColor=none;top=0;left=0;bottom=0;right=0;pointerEvents=1;" parent="nHsgwOCxEVJ2XdIft6rS-39" vertex="1"><mxGeometry x="240" width="60" height="40" as="geometry"><mxRectangle width="60" height="40" as="alternateBounds"/></mxGeometry></mxCell><mxCell id="nHsgwOCxEVJ2XdIft6rS-45" value="" style="shape=partialRectangle;html=1;whiteSpace=wrap;connectable=0;overflow=hidden;fillColor=none;top=0;left=0;bottom=0;right=0;pointerEvents=1;" parent="nHsgwOCxEVJ2XdIft6rS-39" vertex="1"><mxGeometry x="300" width="60" height="40" as="geometry"><mxRectangle width="60" height="40" as="alternateBounds"/></mxGeometry></mxCell><mxCell id="nHsgwOCxEVJ2XdIft6rS-46" value="" style="shape=partialRectangle;html=1;whiteSpace=wrap;connectable=0;overflow=hidden;fillColor=none;top=0;left=0;bottom=0;right=0;pointerEvents=1;" parent="nHsgwOCxEVJ2XdIft6rS-39" vertex="1"><mxGeometry x="360" width="60" height="40" as="geometry"><mxRectangle width="60" height="40" as="alternateBounds"/></mxGeometry></mxCell><mxCell id="nHsgwOCxEVJ2XdIft6rS-47" value="" style="shape=partialRectangle;html=1;whiteSpace=wrap;connectable=0;overflow=hidden;fillColor=none;top=0;left=0;bottom=0;right=0;pointerEvents=1;" parent="nHsgwOCxEVJ2XdIft6rS-39" vertex="1"><mxGeometry x="420" width="60" height="40" as="geometry"><mxRectangle width="60" height="40" as="alternateBounds"/></mxGeometry></mxCell><mxCell id="nHsgwOCxEVJ2XdIft6rS-48" value="" style="shape=partialRectangle;collapsible=0;dropTarget=0;pointerEvents=0;fillColor=none;top=0;left=0;bottom=0;right=0;points=[[0,0.5],[1,0.5]];portConstraint=eastwest;" parent="nHsgwOCxEVJ2XdIft6rS-20" vertex="1"><mxGeometry y="120" width="480" height="40" as="geometry"/></mxCell><mxCell id="nHsgwOCxEVJ2XdIft6rS-49" value="5" style="shape=partialRectangle;html=1;whiteSpace=wrap;connectable=0;overflow=hidden;fillColor=#dae8fc;top=0;left=0;bottom=0;right=0;pointerEvents=1;strokeColor=#6c8ebf;" parent="nHsgwOCxEVJ2XdIft6rS-48" vertex="1"><mxGeometry width="60" height="40" as="geometry"><mxRectangle width="60" height="40" as="alternateBounds"/></mxGeometry></mxCell><mxCell id="nHsgwOCxEVJ2XdIft6rS-50" value="" style="shape=partialRectangle;html=1;whiteSpace=wrap;connectable=0;overflow=hidden;fillColor=none;top=0;left=0;bottom=0;right=0;pointerEvents=1;" parent="nHsgwOCxEVJ2XdIft6rS-48" vertex="1"><mxGeometry x="60" width="60" height="40" as="geometry"><mxRectangle width="60" height="40" as="alternateBounds"/></mxGeometry></mxCell><mxCell id="nHsgwOCxEVJ2XdIft6rS-51" value="" style="shape=partialRectangle;html=1;whiteSpace=wrap;connectable=0;overflow=hidden;fillColor=none;top=0;left=0;bottom=0;right=0;pointerEvents=1;" parent="nHsgwOCxEVJ2XdIft6rS-48" vertex="1"><mxGeometry x="120" width="60" height="40" as="geometry"><mxRectangle width="60" height="40" as="alternateBounds"/></mxGeometry></mxCell><mxCell id="nHsgwOCxEVJ2XdIft6rS-52" value="" style="shape=partialRectangle;html=1;whiteSpace=wrap;connectable=0;overflow=hidden;fillColor=none;top=0;left=0;bottom=0;right=0;pointerEvents=1;" parent="nHsgwOCxEVJ2XdIft6rS-48" vertex="1"><mxGeometry x="180" width="60" height="40" as="geometry"><mxRectangle width="60" height="40" as="alternateBounds"/></mxGeometry></mxCell><mxCell id="nHsgwOCxEVJ2XdIft6rS-53" value="" style="shape=partialRectangle;html=1;whiteSpace=wrap;connectable=0;overflow=hidden;fillColor=none;top=0;left=0;bottom=0;right=0;pointerEvents=1;" parent="nHsgwOCxEVJ2XdIft6rS-48" vertex="1"><mxGeometry x="240" width="60" height="40" as="geometry"><mxRectangle width="60" height="40" as="alternateBounds"/></mxGeometry></mxCell><mxCell id="nHsgwOCxEVJ2XdIft6rS-54" value="" style="shape=partialRectangle;html=1;whiteSpace=wrap;connectable=0;overflow=hidden;fillColor=none;top=0;left=0;bottom=0;right=0;pointerEvents=1;" parent="nHsgwOCxEVJ2XdIft6rS-48" vertex="1"><mxGeometry x="300" width="60" height="40" as="geometry"><mxRectangle width="60" height="40" as="alternateBounds"/></mxGeometry></mxCell><mxCell id="nHsgwOCxEVJ2XdIft6rS-55" value="" style="shape=partialRectangle;html=1;whiteSpace=wrap;connectable=0;overflow=hidden;fillColor=none;top=0;left=0;bottom=0;right=0;pointerEvents=1;" parent="nHsgwOCxEVJ2XdIft6rS-48" vertex="1"><mxGeometry x="360" width="60" height="40" as="geometry"><mxRectangle width="60" height="40" as="alternateBounds"/></mxGeometry></mxCell><mxCell id="nHsgwOCxEVJ2XdIft6rS-56" value="" style="shape=partialRectangle;html=1;whiteSpace=wrap;connectable=0;overflow=hidden;fillColor=none;top=0;left=0;bottom=0;right=0;pointerEvents=1;" parent="nHsgwOCxEVJ2XdIft6rS-48" vertex="1"><mxGeometry x="420" width="60" height="40" as="geometry"><mxRectangle width="60" height="40" as="alternateBounds"/></mxGeometry></mxCell><mxCell id="nHsgwOCxEVJ2XdIft6rS-57" value="" style="shape=partialRectangle;collapsible=0;dropTarget=0;pointerEvents=0;fillColor=none;top=0;left=0;bottom=0;right=0;points=[[0,0.5],[1,0.5]];portConstraint=eastwest;" parent="nHsgwOCxEVJ2XdIft6rS-20" vertex="1"><mxGeometry y="160" width="480" height="40" as="geometry"/></mxCell><mxCell id="nHsgwOCxEVJ2XdIft6rS-58" value="4" style="shape=partialRectangle;html=1;whiteSpace=wrap;connectable=0;overflow=hidden;fillColor=#dae8fc;top=0;left=0;bottom=0;right=0;pointerEvents=1;strokeColor=#6c8ebf;" parent="nHsgwOCxEVJ2XdIft6rS-57" vertex="1"><mxGeometry width="60" height="40" as="geometry"><mxRectangle width="60" height="40" as="alternateBounds"/></mxGeometry></mxCell><mxCell id="nHsgwOCxEVJ2XdIft6rS-59" value="" style="shape=partialRectangle;html=1;whiteSpace=wrap;connectable=0;overflow=hidden;fillColor=none;top=0;left=0;bottom=0;right=0;pointerEvents=1;" parent="nHsgwOCxEVJ2XdIft6rS-57" vertex="1"><mxGeometry x="60" width="60" height="40" as="geometry"><mxRectangle width="60" height="40" as="alternateBounds"/></mxGeometry></mxCell><mxCell id="nHsgwOCxEVJ2XdIft6rS-60" value="" style="shape=partialRectangle;html=1;whiteSpace=wrap;connectable=0;overflow=hidden;fillColor=none;top=0;left=0;bottom=0;right=0;pointerEvents=1;" parent="nHsgwOCxEVJ2XdIft6rS-57" vertex="1"><mxGeometry x="120" width="60" height="40" as="geometry"><mxRectangle width="60" height="40" as="alternateBounds"/></mxGeometry></mxCell><mxCell id="nHsgwOCxEVJ2XdIft6rS-61" value="" style="shape=partialRectangle;html=1;whiteSpace=wrap;connectable=0;overflow=hidden;fillColor=none;top=0;left=0;bottom=0;right=0;pointerEvents=1;" parent="nHsgwOCxEVJ2XdIft6rS-57" vertex="1"><mxGeometry x="180" width="60" height="40" as="geometry"><mxRectangle width="60" height="40" as="alternateBounds"/></mxGeometry></mxCell><mxCell id="nHsgwOCxEVJ2XdIft6rS-62" value="" style="shape=partialRectangle;html=1;whiteSpace=wrap;connectable=0;overflow=hidden;fillColor=none;top=0;left=0;bottom=0;right=0;pointerEvents=1;" parent="nHsgwOCxEVJ2XdIft6rS-57" vertex="1"><mxGeometry x="240" width="60" height="40" as="geometry"><mxRectangle width="60" height="40" as="alternateBounds"/></mxGeometry></mxCell><mxCell id="nHsgwOCxEVJ2XdIft6rS-63" value="" style="shape=partialRectangle;html=1;whiteSpace=wrap;connectable=0;overflow=hidden;fillColor=none;top=0;left=0;bottom=0;right=0;pointerEvents=1;" parent="nHsgwOCxEVJ2XdIft6rS-57" vertex="1"><mxGeometry x="300" width="60" height="40" as="geometry"><mxRectangle width="60" height="40" as="alternateBounds"/></mxGeometry></mxCell><mxCell id="nHsgwOCxEVJ2XdIft6rS-64" value="" style="shape=partialRectangle;html=1;whiteSpace=wrap;connectable=0;overflow=hidden;fillColor=none;top=0;left=0;bottom=0;right=0;pointerEvents=1;" parent="nHsgwOCxEVJ2XdIft6rS-57" vertex="1"><mxGeometry x="360" width="60" height="40" as="geometry"><mxRectangle width="60" height="40" as="alternateBounds"/></mxGeometry></mxCell><mxCell id="nHsgwOCxEVJ2XdIft6rS-65" value="" style="shape=partialRectangle;html=1;whiteSpace=wrap;connectable=0;overflow=hidden;fillColor=none;top=0;left=0;bottom=0;right=0;pointerEvents=1;" parent="nHsgwOCxEVJ2XdIft6rS-57" vertex="1"><mxGeometry x="420" width="60" height="40" as="geometry"><mxRectangle width="60" height="40" as="alternateBounds"/></mxGeometry></mxCell><mxCell id="nHsgwOCxEVJ2XdIft6rS-66" value="" style="shape=partialRectangle;collapsible=0;dropTarget=0;pointerEvents=0;fillColor=none;top=0;left=0;bottom=0;right=0;points=[[0,0.5],[1,0.5]];portConstraint=eastwest;" parent="nHsgwOCxEVJ2XdIft6rS-20" vertex="1"><mxGeometry y="200" width="480" height="40" as="geometry"/></mxCell><mxCell id="nHsgwOCxEVJ2XdIft6rS-67" value="3" style="shape=partialRectangle;html=1;whiteSpace=wrap;connectable=0;overflow=hidden;fillColor=#dae8fc;top=0;left=0;bottom=0;right=0;pointerEvents=1;strokeColor=#6c8ebf;" parent="nHsgwOCxEVJ2XdIft6rS-66" vertex="1"><mxGeometry width="60" height="40" as="geometry"><mxRectangle width="60" height="40" as="alternateBounds"/></mxGeometry></mxCell><mxCell id="nHsgwOCxEVJ2XdIft6rS-68" value="" style="shape=partialRectangle;html=1;whiteSpace=wrap;connectable=0;overflow=hidden;fillColor=none;top=0;left=0;bottom=0;right=0;pointerEvents=1;" parent="nHsgwOCxEVJ2XdIft6rS-66" vertex="1"><mxGeometry x="60" width="60" height="40" as="geometry"><mxRectangle width="60" height="40" as="alternateBounds"/></mxGeometry></mxCell><mxCell id="nHsgwOCxEVJ2XdIft6rS-69" value="" style="shape=partialRectangle;html=1;whiteSpace=wrap;connectable=0;overflow=hidden;fillColor=none;top=0;left=0;bottom=0;right=0;pointerEvents=1;" parent="nHsgwOCxEVJ2XdIft6rS-66" vertex="1"><mxGeometry x="120" width="60" height="40" as="geometry"><mxRectangle width="60" height="40" as="alternateBounds"/></mxGeometry></mxCell><mxCell id="nHsgwOCxEVJ2XdIft6rS-70" value="b2" style="shape=partialRectangle;html=1;whiteSpace=wrap;connectable=0;overflow=hidden;fillColor=#fff2cc;top=0;left=0;bottom=0;right=0;pointerEvents=1;strokeColor=#d6b656;" parent="nHsgwOCxEVJ2XdIft6rS-66" vertex="1"><mxGeometry x="180" width="60" height="40" as="geometry"><mxRectangle width="60" height="40" as="alternateBounds"/></mxGeometry></mxCell><mxCell id="nHsgwOCxEVJ2XdIft6rS-71" value="b3" style="shape=partialRectangle;html=1;whiteSpace=wrap;connectable=0;overflow=hidden;fillColor=#fff2cc;top=0;left=0;bottom=0;right=0;pointerEvents=1;strokeColor=#d6b656;" parent="nHsgwOCxEVJ2XdIft6rS-66" vertex="1"><mxGeometry x="240" width="60" height="40" as="geometry"><mxRectangle width="60" height="40" as="alternateBounds"/></mxGeometry></mxCell><mxCell id="nHsgwOCxEVJ2XdIft6rS-72" value="" style="shape=partialRectangle;html=1;whiteSpace=wrap;connectable=0;overflow=hidden;fillColor=none;top=0;left=0;bottom=0;right=0;pointerEvents=1;" parent="nHsgwOCxEVJ2XdIft6rS-66" vertex="1"><mxGeometry x="300" width="60" height="40" as="geometry"><mxRectangle width="60" height="40" as="alternateBounds"/></mxGeometry></mxCell><mxCell id="nHsgwOCxEVJ2XdIft6rS-73" value="" style="shape=partialRectangle;html=1;whiteSpace=wrap;connectable=0;overflow=hidden;fillColor=none;top=0;left=0;bottom=0;right=0;pointerEvents=1;" parent="nHsgwOCxEVJ2XdIft6rS-66" vertex="1"><mxGeometry x="360" width="60" height="40" as="geometry"><mxRectangle width="60" height="40" as="alternateBounds"/></mxGeometry></mxCell><mxCell id="nHsgwOCxEVJ2XdIft6rS-74" value="" style="shape=partialRectangle;html=1;whiteSpace=wrap;connectable=0;overflow=hidden;fillColor=none;top=0;left=0;bottom=0;right=0;pointerEvents=1;" parent="nHsgwOCxEVJ2XdIft6rS-66" vertex="1"><mxGeometry x="420" width="60" height="40" as="geometry"><mxRectangle width="60" height="40" as="alternateBounds"/></mxGeometry></mxCell><mxCell id="nHsgwOCxEVJ2XdIft6rS-75" value="" style="shape=partialRectangle;collapsible=0;dropTarget=0;pointerEvents=0;fillColor=none;top=0;left=0;bottom=0;right=0;points=[[0,0.5],[1,0.5]];portConstraint=eastwest;" parent="nHsgwOCxEVJ2XdIft6rS-20" vertex="1"><mxGeometry y="240" width="480" height="40" as="geometry"/></mxCell><mxCell id="nHsgwOCxEVJ2XdIft6rS-76" value="2" style="shape=partialRectangle;html=1;whiteSpace=wrap;connectable=0;overflow=hidden;fillColor=#dae8fc;top=0;left=0;bottom=0;right=0;pointerEvents=1;strokeColor=#6c8ebf;" parent="nHsgwOCxEVJ2XdIft6rS-75" vertex="1"><mxGeometry width="60" height="40" as="geometry"><mxRectangle width="60" height="40" as="alternateBounds"/></mxGeometry></mxCell><mxCell id="nHsgwOCxEVJ2XdIft6rS-77" value="b3'" style="shape=partialRectangle;html=1;whiteSpace=wrap;connectable=0;overflow=hidden;fillColor=#d5e8d4;top=0;left=0;bottom=0;right=0;pointerEvents=1;strokeColor=#82b366;" parent="nHsgwOCxEVJ2XdIft6rS-75" vertex="1"><mxGeometry x="60" width="60" height="40" as="geometry"><mxRectangle width="60" height="40" as="alternateBounds"/></mxGeometry></mxCell><mxCell id="nHsgwOCxEVJ2XdIft6rS-78" value="" style="shape=partialRectangle;html=1;whiteSpace=wrap;connectable=0;overflow=hidden;fillColor=none;top=0;left=0;bottom=0;right=0;pointerEvents=1;" parent="nHsgwOCxEVJ2XdIft6rS-75" vertex="1"><mxGeometry x="120" width="60" height="40" as="geometry"><mxRectangle width="60" height="40" as="alternateBounds"/></mxGeometry></mxCell><mxCell id="nHsgwOCxEVJ2XdIft6rS-79" value="b1" style="shape=partialRectangle;html=1;whiteSpace=wrap;connectable=0;overflow=hidden;fillColor=#fff2cc;top=0;left=0;bottom=0;right=0;pointerEvents=1;strokeColor=#d6b656;" parent="nHsgwOCxEVJ2XdIft6rS-75" vertex="1"><mxGeometry x="180" width="60" height="40" as="geometry"><mxRectangle width="60" height="40" as="alternateBounds"/></mxGeometry></mxCell><mxCell id="nHsgwOCxEVJ2XdIft6rS-80" value="" style="shape=partialRectangle;html=1;whiteSpace=wrap;connectable=0;overflow=hidden;fillColor=none;top=0;left=0;bottom=0;right=0;pointerEvents=1;" parent="nHsgwOCxEVJ2XdIft6rS-75" vertex="1"><mxGeometry x="240" width="60" height="40" as="geometry"><mxRectangle width="60" height="40" as="alternateBounds"/></mxGeometry></mxCell><mxCell id="nHsgwOCxEVJ2XdIft6rS-81" value="" style="shape=partialRectangle;html=1;whiteSpace=wrap;connectable=0;overflow=hidden;fillColor=none;top=0;left=0;bottom=0;right=0;pointerEvents=1;" parent="nHsgwOCxEVJ2XdIft6rS-75" vertex="1"><mxGeometry x="300" width="60" height="40" as="geometry"><mxRectangle width="60" height="40" as="alternateBounds"/></mxGeometry></mxCell><mxCell id="nHsgwOCxEVJ2XdIft6rS-82" value="" style="shape=partialRectangle;html=1;whiteSpace=wrap;connectable=0;overflow=hidden;fillColor=none;top=0;left=0;bottom=0;right=0;pointerEvents=1;" parent="nHsgwOCxEVJ2XdIft6rS-75" vertex="1"><mxGeometry x="360" width="60" height="40" as="geometry"><mxRectangle width="60" height="40" as="alternateBounds"/></mxGeometry></mxCell><mxCell id="nHsgwOCxEVJ2XdIft6rS-83" value="" style="shape=partialRectangle;html=1;whiteSpace=wrap;connectable=0;overflow=hidden;fillColor=none;top=0;left=0;bottom=0;right=0;pointerEvents=1;" parent="nHsgwOCxEVJ2XdIft6rS-75" vertex="1"><mxGeometry x="420" width="60" height="40" as="geometry"><mxRectangle width="60" height="40" as="alternateBounds"/></mxGeometry></mxCell><mxCell id="nHsgwOCxEVJ2XdIft6rS-84" value="" style="shape=partialRectangle;collapsible=0;dropTarget=0;pointerEvents=0;fillColor=none;top=0;left=0;bottom=0;right=0;points=[[0,0.5],[1,0.5]];portConstraint=eastwest;" parent="nHsgwOCxEVJ2XdIft6rS-20" vertex="1"><mxGeometry y="280" width="480" height="40" as="geometry"/></mxCell><mxCell id="nHsgwOCxEVJ2XdIft6rS-85" value="1" style="shape=partialRectangle;html=1;whiteSpace=wrap;connectable=0;overflow=hidden;fillColor=#dae8fc;top=0;left=0;bottom=0;right=0;pointerEvents=1;strokeColor=#6c8ebf;" parent="nHsgwOCxEVJ2XdIft6rS-84" vertex="1"><mxGeometry width="60" height="40" as="geometry"><mxRectangle width="60" height="40" as="alternateBounds"/></mxGeometry></mxCell><mxCell id="nHsgwOCxEVJ2XdIft6rS-86" value="b2'" style="shape=partialRectangle;html=1;whiteSpace=wrap;connectable=0;overflow=hidden;fillColor=#d5e8d4;top=0;left=0;bottom=0;right=0;pointerEvents=1;strokeColor=#82b366;" parent="nHsgwOCxEVJ2XdIft6rS-84" vertex="1"><mxGeometry x="60" width="60" height="40" as="geometry"><mxRectangle width="60" height="40" as="alternateBounds"/></mxGeometry></mxCell><mxCell id="nHsgwOCxEVJ2XdIft6rS-87" value="b1'" style="shape=partialRectangle;html=1;whiteSpace=wrap;connectable=0;overflow=hidden;fillColor=#d5e8d4;top=0;left=0;bottom=0;right=0;pointerEvents=1;strokeColor=#82b366;" parent="nHsgwOCxEVJ2XdIft6rS-84" vertex="1"><mxGeometry x="120" width="60" height="40" as="geometry"><mxRectangle width="60" height="40" as="alternateBounds"/></mxGeometry></mxCell><mxCell id="nHsgwOCxEVJ2XdIft6rS-88" value="&lt;span&gt;b0' / b0&lt;/span&gt;" style="shape=partialRectangle;html=1;whiteSpace=wrap;connectable=0;overflow=hidden;fillColor=#fff2cc;top=0;left=0;bottom=0;right=0;pointerEvents=1;strokeColor=#d6b656;" parent="nHsgwOCxEVJ2XdIft6rS-84" vertex="1"><mxGeometry x="180" width="60" height="40" as="geometry"><mxRectangle width="60" height="40" as="alternateBounds"/></mxGeometry></mxCell><mxCell id="nHsgwOCxEVJ2XdIft6rS-89" value="" style="shape=partialRectangle;html=1;whiteSpace=wrap;connectable=0;overflow=hidden;fillColor=none;top=0;left=0;bottom=0;right=0;pointerEvents=1;" parent="nHsgwOCxEVJ2XdIft6rS-84" vertex="1"><mxGeometry x="240" width="60" height="40" as="geometry"><mxRectangle width="60" height="40" as="alternateBounds"/></mxGeometry></mxCell><mxCell id="nHsgwOCxEVJ2XdIft6rS-90" value="" style="shape=partialRectangle;html=1;whiteSpace=wrap;connectable=0;overflow=hidden;fillColor=none;top=0;left=0;bottom=0;right=0;pointerEvents=1;" parent="nHsgwOCxEVJ2XdIft6rS-84" vertex="1"><mxGeometry x="300" width="60" height="40" as="geometry"><mxRectangle width="60" height="40" as="alternateBounds"/></mxGeometry></mxCell><mxCell id="nHsgwOCxEVJ2XdIft6rS-91" value="" style="shape=partialRectangle;html=1;whiteSpace=wrap;connectable=0;overflow=hidden;fillColor=none;top=0;left=0;bottom=0;right=0;pointerEvents=1;" parent="nHsgwOCxEVJ2XdIft6rS-84" vertex="1"><mxGeometry x="360" width="60" height="40" as="geometry"><mxRectangle width="60" height="40" as="alternateBounds"/></mxGeometry></mxCell><mxCell id="nHsgwOCxEVJ2XdIft6rS-92" value="" style="shape=partialRectangle;html=1;whiteSpace=wrap;connectable=0;overflow=hidden;fillColor=none;top=0;left=0;bottom=0;right=0;pointerEvents=1;" parent="nHsgwOCxEVJ2XdIft6rS-84" vertex="1"><mxGeometry x="420" width="60" height="40" as="geometry"><mxRectangle width="60" height="40" as="alternateBounds"/></mxGeometry></mxCell><mxCell id="nHsgwOCxEVJ2XdIft6rS-93" value="" style="shape=partialRectangle;collapsible=0;dropTarget=0;pointerEvents=0;fillColor=none;top=0;left=0;bottom=0;right=0;points=[[0,0.5],[1,0.5]];portConstraint=eastwest;" parent="nHsgwOCxEVJ2XdIft6rS-20" vertex="1"><mxGeometry y="320" width="480" height="40" as="geometry"/></mxCell><mxCell id="nHsgwOCxEVJ2XdIft6rS-94" value="0" style="shape=partialRectangle;html=1;whiteSpace=wrap;connectable=0;overflow=hidden;fillColor=#dae8fc;top=0;left=0;bottom=0;right=0;pointerEvents=1;strokeColor=#6c8ebf;" parent="nHsgwOCxEVJ2XdIft6rS-93" vertex="1"><mxGeometry width="60" height="40" as="geometry"><mxRectangle width="60" height="40" as="alternateBounds"/></mxGeometry></mxCell><mxCell id="nHsgwOCxEVJ2XdIft6rS-95" value="1" style="shape=partialRectangle;html=1;whiteSpace=wrap;connectable=0;overflow=hidden;fillColor=#dae8fc;top=0;left=0;bottom=0;right=0;pointerEvents=1;strokeColor=#6c8ebf;" parent="nHsgwOCxEVJ2XdIft6rS-93" vertex="1"><mxGeometry x="60" width="60" height="40" as="geometry"><mxRectangle width="60" height="40" as="alternateBounds"/></mxGeometry></mxCell><mxCell id="nHsgwOCxEVJ2XdIft6rS-96" value="2" style="shape=partialRectangle;html=1;whiteSpace=wrap;connectable=0;overflow=hidden;fillColor=#dae8fc;top=0;left=0;bottom=0;right=0;pointerEvents=1;strokeColor=#6c8ebf;" parent="nHsgwOCxEVJ2XdIft6rS-93" vertex="1"><mxGeometry x="120" width="60" height="40" as="geometry"><mxRectangle width="60" height="40" as="alternateBounds"/></mxGeometry></mxCell><mxCell id="nHsgwOCxEVJ2XdIft6rS-97" value="&lt;span&gt;3&lt;/span&gt;" style="shape=partialRectangle;html=1;whiteSpace=wrap;connectable=0;overflow=hidden;fillColor=#dae8fc;top=0;left=0;bottom=0;right=0;pointerEvents=1;strokeColor=#6c8ebf;" parent="nHsgwOCxEVJ2XdIft6rS-93" vertex="1"><mxGeometry x="180" width="60" height="40" as="geometry"><mxRectangle width="60" height="40" as="alternateBounds"/></mxGeometry></mxCell><mxCell id="nHsgwOCxEVJ2XdIft6rS-98" value="4" style="shape=partialRectangle;html=1;whiteSpace=wrap;connectable=0;overflow=hidden;fillColor=#dae8fc;top=0;left=0;bottom=0;right=0;pointerEvents=1;strokeColor=#6c8ebf;" parent="nHsgwOCxEVJ2XdIft6rS-93" vertex="1"><mxGeometry x="240" width="60" height="40" as="geometry"><mxRectangle width="60" height="40" as="alternateBounds"/></mxGeometry></mxCell><mxCell id="nHsgwOCxEVJ2XdIft6rS-99" value="5" style="shape=partialRectangle;html=1;whiteSpace=wrap;connectable=0;overflow=hidden;fillColor=#dae8fc;top=0;left=0;bottom=0;right=0;pointerEvents=1;strokeColor=#6c8ebf;" parent="nHsgwOCxEVJ2XdIft6rS-93" vertex="1"><mxGeometry x="300" width="60" height="40" as="geometry"><mxRectangle width="60" height="40" as="alternateBounds"/></mxGeometry></mxCell><mxCell id="nHsgwOCxEVJ2XdIft6rS-100" value="6" style="shape=partialRectangle;html=1;whiteSpace=wrap;connectable=0;overflow=hidden;fillColor=#dae8fc;top=0;left=0;bottom=0;right=0;pointerEvents=1;strokeColor=#6c8ebf;" parent="nHsgwOCxEVJ2XdIft6rS-93" vertex="1"><mxGeometry x="360" width="60" height="40" as="geometry"><mxRectangle width="60" height="40" as="alternateBounds"/></mxGeometry></mxCell><mxCell id="nHsgwOCxEVJ2XdIft6rS-101" value="7" style="shape=partialRectangle;html=1;whiteSpace=wrap;connectable=0;overflow=hidden;fillColor=#dae8fc;top=0;left=0;bottom=0;right=0;pointerEvents=1;strokeColor=#6c8ebf;" parent="nHsgwOCxEVJ2XdIft6rS-93" vertex="1"><mxGeometry x="420" width="60" height="40" as="geometry"><mxRectangle width="60" height="40" as="alternateBounds"/></mxGeometry></mxCell><mxCell id="nHsgwOCxEVJ2XdIft6rS-102" value="" style="shape=flexArrow;endArrow=classic;startArrow=classic;html=1;rounded=0;" parent="nHsgwOCxEVJ2XdIft6rS-1" edge="1"><mxGeometry width="100" height="100" relative="1" as="geometry"><mxPoint x="1300" y="670" as="sourcePoint"/><mxPoint x="1400" y="570" as="targetPoint"/><Array as="points"><mxPoint x="1400" y="670"/></Array></mxGeometry></mxCell><mxCell id="nHsgwOCxEVJ2XdIft6rS-103" value="x" style="text;html=1;align=center;verticalAlign=middle;resizable=0;points=[];autosize=1;strokeColor=none;fillColor=none;" parent="nHsgwOCxEVJ2XdIft6rS-1" vertex="1"><mxGeometry x="1280" y="650" width="20" height="20" as="geometry"/></mxCell><mxCell id="nHsgwOCxEVJ2XdIft6rS-104" value="y" style="text;html=1;align=center;verticalAlign=middle;resizable=0;points=[];autosize=1;strokeColor=none;fillColor=none;" parent="nHsgwOCxEVJ2XdIft6rS-1" vertex="1"><mxGeometry x="1390" y="550" width="20" height="20" as="geometry"/></mxCell><mxCell id="nHsgwOCxEVJ2XdIft6rS-105" value="1. Positions diff von b0 zu bx&lt;br&gt;2. Positions diff von b0 zu bX'&lt;br&gt;3. neue Position setzen bX'&amp;nbsp;&lt;br&gt;&lt;br&gt;&lt;br&gt;b0: 3,0 -&amp;gt; b0': 3,0&lt;br&gt;b1: 3,1 -&amp;gt; b1': 2,0&lt;br&gt;b2: 3,2 -&amp;gt; b2': 1,0&lt;br&gt;b3: 4,2 -&amp;gt; b3': 1,2&amp;nbsp;" style="text;html=1;align=center;verticalAlign=middle;whiteSpace=wrap;rounded=0;strokeColor=default;" parent="nHsgwOCxEVJ2XdIft6rS-1" vertex="1"><mxGeometry x="910" y="80" width="250" height="140" as="geometry"/></mxCell><mxCell id="nHsgwOCxEVJ2XdIft6rS-106" value="b1'(x) = b0(x) - b1(x) -&amp;gt; 3 - 3 = 0 change -&amp;gt; b0y&lt;br&gt;b1'(y) = b0(y) - b1(y) -&amp;gt; 0 - 1 = -1 change -&amp;gt; b0x -1" style="text;html=1;align=center;verticalAlign=middle;resizable=0;points=[];autosize=1;strokeColor=none;fillColor=none;" parent="nHsgwOCxEVJ2XdIft6rS-1" vertex="1"><mxGeometry x="1180" y="97" width="280" height="30" as="geometry"/></mxCell><mxCell id="nHsgwOCxEVJ2XdIft6rS-107" value="b2'(x) = b0(x) - b2(x) -&amp;gt; 3 - 3 = 0 change -&amp;gt; b0y&lt;br&gt;b2'(y) = b0(y) - b2(y) -&amp;gt; 0 - 2 = -2 change -&amp;gt; b0x -2" style="text;html=1;align=center;verticalAlign=middle;resizable=0;points=[];autosize=1;strokeColor=none;fillColor=none;" parent="nHsgwOCxEVJ2XdIft6rS-1" vertex="1"><mxGeometry x="1185" y="134" width="280" height="30" as="geometry"/></mxCell><mxCell id="nHsgwOCxEVJ2XdIft6rS-108" value="b3'(x) = b0(x) - b3(x) -&amp;gt; 3 - 4 = -1 change -&amp;gt; b0y -1&lt;br&gt;b3'(y) = b0(y) - b3(y) -&amp;gt; 0 - 2 = -2 change -&amp;gt; b0x -2" style="text;html=1;align=center;verticalAlign=middle;resizable=0;points=[];autosize=1;strokeColor=none;fillColor=none;" parent="nHsgwOCxEVJ2XdIft6rS-1" vertex="1"><mxGeometry x="1180" y="170" width="280" height="30" as="geometry"/></mxCell><mxCell id="nHsgwOCxEVJ2XdIft6rS-109" value="diff(b1 -&amp;gt; b0) = 0,1&lt;br&gt;b1' = b0 (3,0) + diff&amp;nbsp;&amp;nbsp;" style="text;html=1;align=center;verticalAlign=middle;resizable=0;points=[];autosize=1;strokeColor=none;fillColor=none;" parent="nHsgwOCxEVJ2XdIft6rS-1" vertex="1"><mxGeometry x="1380" y="295" width="120" height="30" as="geometry"/></mxCell><mxCell id="nHsgwOCxEVJ2XdIft6rS-110" value="IFigure:&lt;br&gt;4,19&lt;br&gt;4,18&lt;br&gt;4,17&lt;br&gt;4,16" style="rounded=0;whiteSpace=wrap;html=1;fillColor=#d5e8d4;strokeColor=#82b366;" parent="nHsgwOCxEVJ2XdIft6rS-1" vertex="1"><mxGeometry x="590" y="1280" width="120" height="100" as="geometry"/></mxCell><mxCell id="nHsgwOCxEVJ2XdIft6rS-111" value="JFigure:&lt;br&gt;4,19&lt;br&gt;4,18&lt;br&gt;4,17&lt;br&gt;3,17" style="rounded=0;whiteSpace=wrap;html=1;fillColor=#d5e8d4;strokeColor=#82b366;" parent="nHsgwOCxEVJ2XdIft6rS-1" vertex="1"><mxGeometry x="880" y="1280" width="120" height="100" as="geometry"/></mxCell><mxCell id="nHsgwOCxEVJ2XdIft6rS-112" value="LFigure:&lt;br&gt;4,19&lt;br&gt;4,18&lt;br&gt;4,17&lt;br&gt;5,17" style="rounded=0;whiteSpace=wrap;html=1;fillColor=#d5e8d4;strokeColor=#82b366;" parent="nHsgwOCxEVJ2XdIft6rS-1" vertex="1"><mxGeometry x="1240" y="1290" width="120" height="100" as="geometry"/></mxCell><mxCell id="nHsgwOCxEVJ2XdIft6rS-113" value="OFigure:&lt;br&gt;4,19&lt;br&gt;319&lt;br&gt;4,18&lt;br&gt;3,18" style="rounded=0;whiteSpace=wrap;html=1;fillColor=#d5e8d4;strokeColor=#82b366;" parent="nHsgwOCxEVJ2XdIft6rS-1" vertex="1"><mxGeometry x="590" y="1640" width="120" height="100" as="geometry"/></mxCell><mxCell id="nHsgwOCxEVJ2XdIft6rS-114" value="SFigure:&lt;br&gt;5,19&lt;br&gt;4,19&lt;br&gt;4,18&lt;br&gt;3,18" style="rounded=0;whiteSpace=wrap;html=1;fillColor=#d5e8d4;strokeColor=#82b366;" parent="nHsgwOCxEVJ2XdIft6rS-1" vertex="1"><mxGeometry x="233" y="1290" width="120" height="100" as="geometry"/></mxCell><mxCell id="nHsgwOCxEVJ2XdIft6rS-115" value="TFigure:&lt;br&gt;4,19&lt;br&gt;3,19&lt;br&gt;5,19&lt;br&gt;4,18" style="rounded=0;whiteSpace=wrap;html=1;fillColor=#d5e8d4;strokeColor=#82b366;" parent="nHsgwOCxEVJ2XdIft6rS-1" vertex="1"><mxGeometry x="1020" y="1640" width="120" height="100" as="geometry"/></mxCell><mxCell id="nHsgwOCxEVJ2XdIft6rS-116" value="ZFigure:&lt;br&gt;4,19&lt;br&gt;5,19&lt;br&gt;5,19&lt;br&gt;4,18" style="rounded=0;whiteSpace=wrap;html=1;fillColor=#d5e8d4;strokeColor=#82b366;" parent="nHsgwOCxEVJ2XdIft6rS-1" vertex="1"><mxGeometry x="1210" y="1650" width="120" height="100" as="geometry"/></mxCell><mxCell id="nHsgwOCxEVJ2XdIft6rS-117" value="" style="shape=table;startSize=0;container=1;collapsible=0;childLayout=tableLayout;fillColor=none;" parent="nHsgwOCxEVJ2XdIft6rS-1" vertex="1"><mxGeometry x="410" y="1410" width="360" height="200" as="geometry"/></mxCell><mxCell id="nHsgwOCxEVJ2XdIft6rS-118" style="shape=partialRectangle;collapsible=0;dropTarget=0;pointerEvents=0;fillColor=none;top=0;left=0;bottom=0;right=0;points=[[0,0.5],[1,0.5]];portConstraint=eastwest;" parent="nHsgwOCxEVJ2XdIft6rS-117" vertex="1"><mxGeometry width="360" height="40" as="geometry"/></mxCell><mxCell id="nHsgwOCxEVJ2XdIft6rS-119" value="19" style="shape=partialRectangle;html=1;whiteSpace=wrap;connectable=0;overflow=hidden;fillColor=#dae8fc;top=0;left=0;bottom=0;right=0;pointerEvents=1;strokeColor=#6c8ebf;" parent="nHsgwOCxEVJ2XdIft6rS-118" vertex="1"><mxGeometry width="60" height="40" as="geometry"><mxRectangle width="60" height="40" as="alternateBounds"/></mxGeometry></mxCell><mxCell id="nHsgwOCxEVJ2XdIft6rS-120" style="shape=partialRectangle;html=1;whiteSpace=wrap;connectable=0;overflow=hidden;fillColor=none;top=0;left=0;bottom=0;right=0;pointerEvents=1;" parent="nHsgwOCxEVJ2XdIft6rS-118" vertex="1"><mxGeometry x="60" width="60" height="40" as="geometry"><mxRectangle width="60" height="40" as="alternateBounds"/></mxGeometry></mxCell><mxCell id="nHsgwOCxEVJ2XdIft6rS-121" style="shape=partialRectangle;html=1;whiteSpace=wrap;connectable=0;overflow=hidden;fillColor=none;top=0;left=0;bottom=0;right=0;pointerEvents=1;" parent="nHsgwOCxEVJ2XdIft6rS-118" vertex="1"><mxGeometry x="120" width="60" height="40" as="geometry"><mxRectangle width="60" height="40" as="alternateBounds"/></mxGeometry></mxCell><mxCell id="nHsgwOCxEVJ2XdIft6rS-122" style="shape=partialRectangle;html=1;whiteSpace=wrap;connectable=0;overflow=hidden;fillColor=none;top=0;left=0;bottom=0;right=0;pointerEvents=1;" parent="nHsgwOCxEVJ2XdIft6rS-118" vertex="1"><mxGeometry x="180" width="60" height="40" as="geometry"><mxRectangle width="60" height="40" as="alternateBounds"/></mxGeometry></mxCell><mxCell id="nHsgwOCxEVJ2XdIft6rS-123" value="0" style="shape=partialRectangle;html=1;whiteSpace=wrap;connectable=0;overflow=hidden;fillColor=#fff2cc;top=0;left=0;bottom=0;right=0;pointerEvents=1;strokeColor=#d6b656;" parent="nHsgwOCxEVJ2XdIft6rS-118" vertex="1"><mxGeometry x="240" width="60" height="40" as="geometry"><mxRectangle width="60" height="40" as="alternateBounds"/></mxGeometry></mxCell><mxCell id="nHsgwOCxEVJ2XdIft6rS-124" style="shape=partialRectangle;html=1;whiteSpace=wrap;connectable=0;overflow=hidden;fillColor=none;top=0;left=0;bottom=0;right=0;pointerEvents=1;" parent="nHsgwOCxEVJ2XdIft6rS-118" vertex="1"><mxGeometry x="300" width="60" height="40" as="geometry"><mxRectangle width="60" height="40" as="alternateBounds"/></mxGeometry></mxCell><mxCell id="nHsgwOCxEVJ2XdIft6rS-125" value="" style="shape=partialRectangle;collapsible=0;dropTarget=0;pointerEvents=0;fillColor=none;top=0;left=0;bottom=0;right=0;points=[[0,0.5],[1,0.5]];portConstraint=eastwest;" parent="nHsgwOCxEVJ2XdIft6rS-117" vertex="1"><mxGeometry y="40" width="360" height="40" as="geometry"/></mxCell><mxCell id="nHsgwOCxEVJ2XdIft6rS-126" value="18" style="shape=partialRectangle;html=1;whiteSpace=wrap;connectable=0;overflow=hidden;fillColor=#dae8fc;top=0;left=0;bottom=0;right=0;pointerEvents=1;strokeColor=#6c8ebf;" parent="nHsgwOCxEVJ2XdIft6rS-125" vertex="1"><mxGeometry width="60" height="40" as="geometry"><mxRectangle width="60" height="40" as="alternateBounds"/></mxGeometry></mxCell><mxCell id="nHsgwOCxEVJ2XdIft6rS-127" value="" style="shape=partialRectangle;html=1;whiteSpace=wrap;connectable=0;overflow=hidden;fillColor=none;top=0;left=0;bottom=0;right=0;pointerEvents=1;" parent="nHsgwOCxEVJ2XdIft6rS-125" vertex="1"><mxGeometry x="60" width="60" height="40" as="geometry"><mxRectangle width="60" height="40" as="alternateBounds"/></mxGeometry></mxCell><mxCell id="nHsgwOCxEVJ2XdIft6rS-128" value="" style="shape=partialRectangle;html=1;whiteSpace=wrap;connectable=0;overflow=hidden;fillColor=none;top=0;left=0;bottom=0;right=0;pointerEvents=1;" parent="nHsgwOCxEVJ2XdIft6rS-125" vertex="1"><mxGeometry x="120" width="60" height="40" as="geometry"><mxRectangle width="60" height="40" as="alternateBounds"/></mxGeometry></mxCell><mxCell id="nHsgwOCxEVJ2XdIft6rS-129" value="" style="shape=partialRectangle;html=1;whiteSpace=wrap;connectable=0;overflow=hidden;fillColor=none;top=0;left=0;bottom=0;right=0;pointerEvents=1;" parent="nHsgwOCxEVJ2XdIft6rS-125" vertex="1"><mxGeometry x="180" width="60" height="40" as="geometry"><mxRectangle width="60" height="40" as="alternateBounds"/></mxGeometry></mxCell><mxCell id="nHsgwOCxEVJ2XdIft6rS-130" value="1" style="shape=partialRectangle;html=1;whiteSpace=wrap;connectable=0;overflow=hidden;fillColor=#fff2cc;top=0;left=0;bottom=0;right=0;pointerEvents=1;strokeColor=#d6b656;" parent="nHsgwOCxEVJ2XdIft6rS-125" vertex="1"><mxGeometry x="240" width="60" height="40" as="geometry"><mxRectangle width="60" height="40" as="alternateBounds"/></mxGeometry></mxCell><mxCell id="nHsgwOCxEVJ2XdIft6rS-131" value="" style="shape=partialRectangle;html=1;whiteSpace=wrap;connectable=0;overflow=hidden;fillColor=none;top=0;left=0;bottom=0;right=0;pointerEvents=1;" parent="nHsgwOCxEVJ2XdIft6rS-125" vertex="1"><mxGeometry x="300" width="60" height="40" as="geometry"><mxRectangle width="60" height="40" as="alternateBounds"/></mxGeometry></mxCell><mxCell id="nHsgwOCxEVJ2XdIft6rS-132" value="" style="shape=partialRectangle;collapsible=0;dropTarget=0;pointerEvents=0;fillColor=none;top=0;left=0;bottom=0;right=0;points=[[0,0.5],[1,0.5]];portConstraint=eastwest;" parent="nHsgwOCxEVJ2XdIft6rS-117" vertex="1"><mxGeometry y="80" width="360" height="40" as="geometry"/></mxCell><mxCell id="nHsgwOCxEVJ2XdIft6rS-133" value="17" style="shape=partialRectangle;html=1;whiteSpace=wrap;connectable=0;overflow=hidden;fillColor=#dae8fc;top=0;left=0;bottom=0;right=0;pointerEvents=1;strokeColor=#6c8ebf;" parent="nHsgwOCxEVJ2XdIft6rS-132" vertex="1"><mxGeometry width="60" height="40" as="geometry"><mxRectangle width="60" height="40" as="alternateBounds"/></mxGeometry></mxCell><mxCell id="nHsgwOCxEVJ2XdIft6rS-134" value="" style="shape=partialRectangle;html=1;whiteSpace=wrap;connectable=0;overflow=hidden;fillColor=none;top=0;left=0;bottom=0;right=0;pointerEvents=1;" parent="nHsgwOCxEVJ2XdIft6rS-132" vertex="1"><mxGeometry x="60" width="60" height="40" as="geometry"><mxRectangle width="60" height="40" as="alternateBounds"/></mxGeometry></mxCell><mxCell id="nHsgwOCxEVJ2XdIft6rS-135" value="" style="shape=partialRectangle;html=1;whiteSpace=wrap;connectable=0;overflow=hidden;fillColor=none;top=0;left=0;bottom=0;right=0;pointerEvents=1;" parent="nHsgwOCxEVJ2XdIft6rS-132" vertex="1"><mxGeometry x="120" width="60" height="40" as="geometry"><mxRectangle width="60" height="40" as="alternateBounds"/></mxGeometry></mxCell><mxCell id="nHsgwOCxEVJ2XdIft6rS-136" value="" style="shape=partialRectangle;html=1;whiteSpace=wrap;connectable=0;overflow=hidden;fillColor=none;top=0;left=0;bottom=0;right=0;pointerEvents=1;" parent="nHsgwOCxEVJ2XdIft6rS-132" vertex="1"><mxGeometry x="180" width="60" height="40" as="geometry"><mxRectangle width="60" height="40" as="alternateBounds"/></mxGeometry></mxCell><mxCell id="nHsgwOCxEVJ2XdIft6rS-137" value="2" style="shape=partialRectangle;html=1;whiteSpace=wrap;connectable=0;overflow=hidden;fillColor=#fff2cc;top=0;left=0;bottom=0;right=0;pointerEvents=1;strokeColor=#d6b656;" parent="nHsgwOCxEVJ2XdIft6rS-132" vertex="1"><mxGeometry x="240" width="60" height="40" as="geometry"><mxRectangle width="60" height="40" as="alternateBounds"/></mxGeometry></mxCell><mxCell id="nHsgwOCxEVJ2XdIft6rS-138" value="" style="shape=partialRectangle;html=1;whiteSpace=wrap;connectable=0;overflow=hidden;fillColor=none;top=0;left=0;bottom=0;right=0;pointerEvents=1;" parent="nHsgwOCxEVJ2XdIft6rS-132" vertex="1"><mxGeometry x="300" width="60" height="40" as="geometry"><mxRectangle width="60" height="40" as="alternateBounds"/></mxGeometry></mxCell><mxCell id="nHsgwOCxEVJ2XdIft6rS-139" value="" style="shape=partialRectangle;collapsible=0;dropTarget=0;pointerEvents=0;fillColor=none;top=0;left=0;bottom=0;right=0;points=[[0,0.5],[1,0.5]];portConstraint=eastwest;" parent="nHsgwOCxEVJ2XdIft6rS-117" vertex="1"><mxGeometry y="120" width="360" height="40" as="geometry"/></mxCell><mxCell id="nHsgwOCxEVJ2XdIft6rS-140" value="16" style="shape=partialRectangle;html=1;whiteSpace=wrap;connectable=0;overflow=hidden;fillColor=#dae8fc;top=0;left=0;bottom=0;right=0;pointerEvents=1;strokeColor=#6c8ebf;" parent="nHsgwOCxEVJ2XdIft6rS-139" vertex="1"><mxGeometry width="60" height="40" as="geometry"><mxRectangle width="60" height="40" as="alternateBounds"/></mxGeometry></mxCell><mxCell id="nHsgwOCxEVJ2XdIft6rS-141" value="" style="shape=partialRectangle;html=1;whiteSpace=wrap;connectable=0;overflow=hidden;fillColor=none;top=0;left=0;bottom=0;right=0;pointerEvents=1;" parent="nHsgwOCxEVJ2XdIft6rS-139" vertex="1"><mxGeometry x="60" width="60" height="40" as="geometry"><mxRectangle width="60" height="40" as="alternateBounds"/></mxGeometry></mxCell><mxCell id="nHsgwOCxEVJ2XdIft6rS-142" value="" style="shape=partialRectangle;html=1;whiteSpace=wrap;connectable=0;overflow=hidden;fillColor=none;top=0;left=0;bottom=0;right=0;pointerEvents=1;" parent="nHsgwOCxEVJ2XdIft6rS-139" vertex="1"><mxGeometry x="120" width="60" height="40" as="geometry"><mxRectangle width="60" height="40" as="alternateBounds"/></mxGeometry></mxCell><mxCell id="nHsgwOCxEVJ2XdIft6rS-143" value="" style="shape=partialRectangle;html=1;whiteSpace=wrap;connectable=0;overflow=hidden;fillColor=none;top=0;left=0;bottom=0;right=0;pointerEvents=1;" parent="nHsgwOCxEVJ2XdIft6rS-139" vertex="1"><mxGeometry x="180" width="60" height="40" as="geometry"><mxRectangle width="60" height="40" as="alternateBounds"/></mxGeometry></mxCell><mxCell id="nHsgwOCxEVJ2XdIft6rS-144" value="3" style="shape=partialRectangle;html=1;whiteSpace=wrap;connectable=0;overflow=hidden;fillColor=#fff2cc;top=0;left=0;bottom=0;right=0;pointerEvents=1;strokeColor=#d6b656;" parent="nHsgwOCxEVJ2XdIft6rS-139" vertex="1"><mxGeometry x="240" width="60" height="40" as="geometry"><mxRectangle width="60" height="40" as="alternateBounds"/></mxGeometry></mxCell><mxCell id="nHsgwOCxEVJ2XdIft6rS-145" value="" style="shape=partialRectangle;html=1;whiteSpace=wrap;connectable=0;overflow=hidden;fillColor=none;top=0;left=0;bottom=0;right=0;pointerEvents=1;" parent="nHsgwOCxEVJ2XdIft6rS-139" vertex="1"><mxGeometry x="300" width="60" height="40" as="geometry"><mxRectangle width="60" height="40" as="alternateBounds"/></mxGeometry></mxCell><mxCell id="nHsgwOCxEVJ2XdIft6rS-146" value="" style="shape=partialRectangle;collapsible=0;dropTarget=0;pointerEvents=0;fillColor=none;top=0;left=0;bottom=0;right=0;points=[[0,0.5],[1,0.5]];portConstraint=eastwest;" parent="nHsgwOCxEVJ2XdIft6rS-117" vertex="1"><mxGeometry y="160" width="360" height="40" as="geometry"/></mxCell><mxCell id="nHsgwOCxEVJ2XdIft6rS-147" value="15 / 0" style="shape=partialRectangle;html=1;whiteSpace=wrap;connectable=0;overflow=hidden;fillColor=#dae8fc;top=0;left=0;bottom=0;right=0;pointerEvents=1;strokeColor=#6c8ebf;" parent="nHsgwOCxEVJ2XdIft6rS-146" vertex="1"><mxGeometry width="60" height="40" as="geometry"><mxRectangle width="60" height="40" as="alternateBounds"/></mxGeometry></mxCell><mxCell id="nHsgwOCxEVJ2XdIft6rS-148" value="1" style="shape=partialRectangle;html=1;whiteSpace=wrap;connectable=0;overflow=hidden;fillColor=#dae8fc;top=0;left=0;bottom=0;right=0;pointerEvents=1;strokeColor=#6c8ebf;" parent="nHsgwOCxEVJ2XdIft6rS-146" vertex="1"><mxGeometry x="60" width="60" height="40" as="geometry"><mxRectangle width="60" height="40" as="alternateBounds"/></mxGeometry></mxCell><mxCell id="nHsgwOCxEVJ2XdIft6rS-149" value="2" style="shape=partialRectangle;html=1;whiteSpace=wrap;connectable=0;overflow=hidden;fillColor=#dae8fc;top=0;left=0;bottom=0;right=0;pointerEvents=1;strokeColor=#6c8ebf;" parent="nHsgwOCxEVJ2XdIft6rS-146" vertex="1"><mxGeometry x="120" width="60" height="40" as="geometry"><mxRectangle width="60" height="40" as="alternateBounds"/></mxGeometry></mxCell><mxCell id="nHsgwOCxEVJ2XdIft6rS-150" value="3" style="shape=partialRectangle;html=1;whiteSpace=wrap;connectable=0;overflow=hidden;fillColor=#dae8fc;top=0;left=0;bottom=0;right=0;pointerEvents=1;strokeColor=#6c8ebf;" parent="nHsgwOCxEVJ2XdIft6rS-146" vertex="1"><mxGeometry x="180" width="60" height="40" as="geometry"><mxRectangle width="60" height="40" as="alternateBounds"/></mxGeometry></mxCell><mxCell id="nHsgwOCxEVJ2XdIft6rS-151" value="4" style="shape=partialRectangle;html=1;whiteSpace=wrap;connectable=0;overflow=hidden;fillColor=#dae8fc;top=0;left=0;bottom=0;right=0;pointerEvents=1;strokeColor=#6c8ebf;" parent="nHsgwOCxEVJ2XdIft6rS-146" vertex="1"><mxGeometry x="240" width="60" height="40" as="geometry"><mxRectangle width="60" height="40" as="alternateBounds"/></mxGeometry></mxCell><mxCell id="nHsgwOCxEVJ2XdIft6rS-152" value="5" style="shape=partialRectangle;html=1;whiteSpace=wrap;connectable=0;overflow=hidden;fillColor=#dae8fc;top=0;left=0;bottom=0;right=0;pointerEvents=1;strokeColor=#6c8ebf;" parent="nHsgwOCxEVJ2XdIft6rS-146" vertex="1"><mxGeometry x="300" width="60" height="40" as="geometry"><mxRectangle width="60" height="40" as="alternateBounds"/></mxGeometry></mxCell><mxCell id="nHsgwOCxEVJ2XdIft6rS-153" value="" style="shape=table;startSize=0;container=1;collapsible=0;childLayout=tableLayout;fillColor=none;" parent="nHsgwOCxEVJ2XdIft6rS-1" vertex="1"><mxGeometry x="810" y="1410" width="360" height="200" as="geometry"/></mxCell><mxCell id="nHsgwOCxEVJ2XdIft6rS-154" style="shape=partialRectangle;collapsible=0;dropTarget=0;pointerEvents=0;fillColor=none;top=0;left=0;bottom=0;right=0;points=[[0,0.5],[1,0.5]];portConstraint=eastwest;" parent="nHsgwOCxEVJ2XdIft6rS-153" vertex="1"><mxGeometry width="360" height="40" as="geometry"/></mxCell><mxCell id="nHsgwOCxEVJ2XdIft6rS-155" value="19" style="shape=partialRectangle;html=1;whiteSpace=wrap;connectable=0;overflow=hidden;fillColor=#dae8fc;top=0;left=0;bottom=0;right=0;pointerEvents=1;strokeColor=#6c8ebf;" parent="nHsgwOCxEVJ2XdIft6rS-154" vertex="1"><mxGeometry width="60" height="40" as="geometry"><mxRectangle width="60" height="40" as="alternateBounds"/></mxGeometry></mxCell><mxCell id="nHsgwOCxEVJ2XdIft6rS-156" style="shape=partialRectangle;html=1;whiteSpace=wrap;connectable=0;overflow=hidden;fillColor=none;top=0;left=0;bottom=0;right=0;pointerEvents=1;" parent="nHsgwOCxEVJ2XdIft6rS-154" vertex="1"><mxGeometry x="60" width="60" height="40" as="geometry"><mxRectangle width="60" height="40" as="alternateBounds"/></mxGeometry></mxCell><mxCell id="nHsgwOCxEVJ2XdIft6rS-157" style="shape=partialRectangle;html=1;whiteSpace=wrap;connectable=0;overflow=hidden;fillColor=none;top=0;left=0;bottom=0;right=0;pointerEvents=1;" parent="nHsgwOCxEVJ2XdIft6rS-154" vertex="1"><mxGeometry x="120" width="60" height="40" as="geometry"><mxRectangle width="60" height="40" as="alternateBounds"/></mxGeometry></mxCell><mxCell id="nHsgwOCxEVJ2XdIft6rS-158" style="shape=partialRectangle;html=1;whiteSpace=wrap;connectable=0;overflow=hidden;fillColor=none;top=0;left=0;bottom=0;right=0;pointerEvents=1;" parent="nHsgwOCxEVJ2XdIft6rS-154" vertex="1"><mxGeometry x="180" width="60" height="40" as="geometry"><mxRectangle width="60" height="40" as="alternateBounds"/></mxGeometry></mxCell><mxCell id="nHsgwOCxEVJ2XdIft6rS-159" value="0" style="shape=partialRectangle;html=1;whiteSpace=wrap;connectable=0;overflow=hidden;fillColor=#fff2cc;top=0;left=0;bottom=0;right=0;pointerEvents=1;strokeColor=#d6b656;" parent="nHsgwOCxEVJ2XdIft6rS-154" vertex="1"><mxGeometry x="240" width="60" height="40" as="geometry"><mxRectangle width="60" height="40" as="alternateBounds"/></mxGeometry></mxCell><mxCell id="nHsgwOCxEVJ2XdIft6rS-160" style="shape=partialRectangle;html=1;whiteSpace=wrap;connectable=0;overflow=hidden;fillColor=none;top=0;left=0;bottom=0;right=0;pointerEvents=1;" parent="nHsgwOCxEVJ2XdIft6rS-154" vertex="1"><mxGeometry x="300" width="60" height="40" as="geometry"><mxRectangle width="60" height="40" as="alternateBounds"/></mxGeometry></mxCell><mxCell id="nHsgwOCxEVJ2XdIft6rS-161" value="" style="shape=partialRectangle;collapsible=0;dropTarget=0;pointerEvents=0;fillColor=none;top=0;left=0;bottom=0;right=0;points=[[0,0.5],[1,0.5]];portConstraint=eastwest;" parent="nHsgwOCxEVJ2XdIft6rS-153" vertex="1"><mxGeometry y="40" width="360" height="40" as="geometry"/></mxCell><mxCell id="nHsgwOCxEVJ2XdIft6rS-162" value="18" style="shape=partialRectangle;html=1;whiteSpace=wrap;connectable=0;overflow=hidden;fillColor=#dae8fc;top=0;left=0;bottom=0;right=0;pointerEvents=1;strokeColor=#6c8ebf;" parent="nHsgwOCxEVJ2XdIft6rS-161" vertex="1"><mxGeometry width="60" height="40" as="geometry"><mxRectangle width="60" height="40" as="alternateBounds"/></mxGeometry></mxCell><mxCell id="nHsgwOCxEVJ2XdIft6rS-163" value="" style="shape=partialRectangle;html=1;whiteSpace=wrap;connectable=0;overflow=hidden;fillColor=none;top=0;left=0;bottom=0;right=0;pointerEvents=1;" parent="nHsgwOCxEVJ2XdIft6rS-161" vertex="1"><mxGeometry x="60" width="60" height="40" as="geometry"><mxRectangle width="60" height="40" as="alternateBounds"/></mxGeometry></mxCell><mxCell id="nHsgwOCxEVJ2XdIft6rS-164" value="" style="shape=partialRectangle;html=1;whiteSpace=wrap;connectable=0;overflow=hidden;fillColor=none;top=0;left=0;bottom=0;right=0;pointerEvents=1;" parent="nHsgwOCxEVJ2XdIft6rS-161" vertex="1"><mxGeometry x="120" width="60" height="40" as="geometry"><mxRectangle width="60" height="40" as="alternateBounds"/></mxGeometry></mxCell><mxCell id="nHsgwOCxEVJ2XdIft6rS-165" value="" style="shape=partialRectangle;html=1;whiteSpace=wrap;connectable=0;overflow=hidden;fillColor=none;top=0;left=0;bottom=0;right=0;pointerEvents=1;" parent="nHsgwOCxEVJ2XdIft6rS-161" vertex="1"><mxGeometry x="180" width="60" height="40" as="geometry"><mxRectangle width="60" height="40" as="alternateBounds"/></mxGeometry></mxCell><mxCell id="nHsgwOCxEVJ2XdIft6rS-166" value="1" style="shape=partialRectangle;html=1;whiteSpace=wrap;connectable=0;overflow=hidden;fillColor=#fff2cc;top=0;left=0;bottom=0;right=0;pointerEvents=1;strokeColor=#d6b656;" parent="nHsgwOCxEVJ2XdIft6rS-161" vertex="1"><mxGeometry x="240" width="60" height="40" as="geometry"><mxRectangle width="60" height="40" as="alternateBounds"/></mxGeometry></mxCell><mxCell id="nHsgwOCxEVJ2XdIft6rS-167" value="" style="shape=partialRectangle;html=1;whiteSpace=wrap;connectable=0;overflow=hidden;fillColor=none;top=0;left=0;bottom=0;right=0;pointerEvents=1;" parent="nHsgwOCxEVJ2XdIft6rS-161" vertex="1"><mxGeometry x="300" width="60" height="40" as="geometry"><mxRectangle width="60" height="40" as="alternateBounds"/></mxGeometry></mxCell><mxCell id="nHsgwOCxEVJ2XdIft6rS-168" value="" style="shape=partialRectangle;collapsible=0;dropTarget=0;pointerEvents=0;fillColor=none;top=0;left=0;bottom=0;right=0;points=[[0,0.5],[1,0.5]];portConstraint=eastwest;" parent="nHsgwOCxEVJ2XdIft6rS-153" vertex="1"><mxGeometry y="80" width="360" height="40" as="geometry"/></mxCell><mxCell id="nHsgwOCxEVJ2XdIft6rS-169" value="17" style="shape=partialRectangle;html=1;whiteSpace=wrap;connectable=0;overflow=hidden;fillColor=#dae8fc;top=0;left=0;bottom=0;right=0;pointerEvents=1;strokeColor=#6c8ebf;" parent="nHsgwOCxEVJ2XdIft6rS-168" vertex="1"><mxGeometry width="60" height="40" as="geometry"><mxRectangle width="60" height="40" as="alternateBounds"/></mxGeometry></mxCell><mxCell id="nHsgwOCxEVJ2XdIft6rS-170" value="" style="shape=partialRectangle;html=1;whiteSpace=wrap;connectable=0;overflow=hidden;fillColor=none;top=0;left=0;bottom=0;right=0;pointerEvents=1;" parent="nHsgwOCxEVJ2XdIft6rS-168" vertex="1"><mxGeometry x="60" width="60" height="40" as="geometry"><mxRectangle width="60" height="40" as="alternateBounds"/></mxGeometry></mxCell><mxCell id="nHsgwOCxEVJ2XdIft6rS-171" value="" style="shape=partialRectangle;html=1;whiteSpace=wrap;connectable=0;overflow=hidden;fillColor=none;top=0;left=0;bottom=0;right=0;pointerEvents=1;" parent="nHsgwOCxEVJ2XdIft6rS-168" vertex="1"><mxGeometry x="120" width="60" height="40" as="geometry"><mxRectangle width="60" height="40" as="alternateBounds"/></mxGeometry></mxCell><mxCell id="nHsgwOCxEVJ2XdIft6rS-172" value="3" style="shape=partialRectangle;html=1;whiteSpace=wrap;connectable=0;overflow=hidden;fillColor=#fff2cc;top=0;left=0;bottom=0;right=0;pointerEvents=1;strokeColor=#d6b656;" parent="nHsgwOCxEVJ2XdIft6rS-168" vertex="1"><mxGeometry x="180" width="60" height="40" as="geometry"><mxRectangle width="60" height="40" as="alternateBounds"/></mxGeometry></mxCell><mxCell id="nHsgwOCxEVJ2XdIft6rS-173" value="2" style="shape=partialRectangle;html=1;whiteSpace=wrap;connectable=0;overflow=hidden;fillColor=#fff2cc;top=0;left=0;bottom=0;right=0;pointerEvents=1;strokeColor=#d6b656;" parent="nHsgwOCxEVJ2XdIft6rS-168" vertex="1"><mxGeometry x="240" width="60" height="40" as="geometry"><mxRectangle width="60" height="40" as="alternateBounds"/></mxGeometry></mxCell><mxCell id="nHsgwOCxEVJ2XdIft6rS-174" value="" style="shape=partialRectangle;html=1;whiteSpace=wrap;connectable=0;overflow=hidden;fillColor=none;top=0;left=0;bottom=0;right=0;pointerEvents=1;" parent="nHsgwOCxEVJ2XdIft6rS-168" vertex="1"><mxGeometry x="300" width="60" height="40" as="geometry"><mxRectangle width="60" height="40" as="alternateBounds"/></mxGeometry></mxCell><mxCell id="nHsgwOCxEVJ2XdIft6rS-175" value="" style="shape=partialRectangle;collapsible=0;dropTarget=0;pointerEvents=0;fillColor=none;top=0;left=0;bottom=0;right=0;points=[[0,0.5],[1,0.5]];portConstraint=eastwest;" parent="nHsgwOCxEVJ2XdIft6rS-153" vertex="1"><mxGeometry y="120" width="360" height="40" as="geometry"/></mxCell><mxCell id="nHsgwOCxEVJ2XdIft6rS-176" value="16" style="shape=partialRectangle;html=1;whiteSpace=wrap;connectable=0;overflow=hidden;fillColor=#dae8fc;top=0;left=0;bottom=0;right=0;pointerEvents=1;strokeColor=#6c8ebf;" parent="nHsgwOCxEVJ2XdIft6rS-175" vertex="1"><mxGeometry width="60" height="40" as="geometry"><mxRectangle width="60" height="40" as="alternateBounds"/></mxGeometry></mxCell><mxCell id="nHsgwOCxEVJ2XdIft6rS-177" value="" style="shape=partialRectangle;html=1;whiteSpace=wrap;connectable=0;overflow=hidden;fillColor=none;top=0;left=0;bottom=0;right=0;pointerEvents=1;" parent="nHsgwOCxEVJ2XdIft6rS-175" vertex="1"><mxGeometry x="60" width="60" height="40" as="geometry"><mxRectangle width="60" height="40" as="alternateBounds"/></mxGeometry></mxCell><mxCell id="nHsgwOCxEVJ2XdIft6rS-178" value="" style="shape=partialRectangle;html=1;whiteSpace=wrap;connectable=0;overflow=hidden;fillColor=none;top=0;left=0;bottom=0;right=0;pointerEvents=1;" parent="nHsgwOCxEVJ2XdIft6rS-175" vertex="1"><mxGeometry x="120" width="60" height="40" as="geometry"><mxRectangle width="60" height="40" as="alternateBounds"/></mxGeometry></mxCell><mxCell id="nHsgwOCxEVJ2XdIft6rS-179" value="" style="shape=partialRectangle;html=1;whiteSpace=wrap;connectable=0;overflow=hidden;fillColor=none;top=0;left=0;bottom=0;right=0;pointerEvents=1;" parent="nHsgwOCxEVJ2XdIft6rS-175" vertex="1"><mxGeometry x="180" width="60" height="40" as="geometry"><mxRectangle width="60" height="40" as="alternateBounds"/></mxGeometry></mxCell><mxCell id="nHsgwOCxEVJ2XdIft6rS-180" value="" style="shape=partialRectangle;html=1;whiteSpace=wrap;connectable=0;overflow=hidden;top=0;left=0;bottom=0;right=0;pointerEvents=1;fillColor=none;" parent="nHsgwOCxEVJ2XdIft6rS-175" vertex="1"><mxGeometry x="240" width="60" height="40" as="geometry"><mxRectangle width="60" height="40" as="alternateBounds"/></mxGeometry></mxCell><mxCell id="nHsgwOCxEVJ2XdIft6rS-181" value="" style="shape=partialRectangle;html=1;whiteSpace=wrap;connectable=0;overflow=hidden;fillColor=none;top=0;left=0;bottom=0;right=0;pointerEvents=1;" parent="nHsgwOCxEVJ2XdIft6rS-175" vertex="1"><mxGeometry x="300" width="60" height="40" as="geometry"><mxRectangle width="60" height="40" as="alternateBounds"/></mxGeometry></mxCell><mxCell id="nHsgwOCxEVJ2XdIft6rS-182" value="" style="shape=partialRectangle;collapsible=0;dropTarget=0;pointerEvents=0;fillColor=none;top=0;left=0;bottom=0;right=0;points=[[0,0.5],[1,0.5]];portConstraint=eastwest;" parent="nHsgwOCxEVJ2XdIft6rS-153" vertex="1"><mxGeometry y="160" width="360" height="40" as="geometry"/></mxCell><mxCell id="nHsgwOCxEVJ2XdIft6rS-183" value="15 / 0" style="shape=partialRectangle;html=1;whiteSpace=wrap;connectable=0;overflow=hidden;fillColor=#dae8fc;top=0;left=0;bottom=0;right=0;pointerEvents=1;strokeColor=#6c8ebf;" parent="nHsgwOCxEVJ2XdIft6rS-182" vertex="1"><mxGeometry width="60" height="40" as="geometry"><mxRectangle width="60" height="40" as="alternateBounds"/></mxGeometry></mxCell><mxCell id="nHsgwOCxEVJ2XdIft6rS-184" value="1" style="shape=partialRectangle;html=1;whiteSpace=wrap;connectable=0;overflow=hidden;fillColor=#dae8fc;top=0;left=0;bottom=0;right=0;pointerEvents=1;strokeColor=#6c8ebf;" parent="nHsgwOCxEVJ2XdIft6rS-182" vertex="1"><mxGeometry x="60" width="60" height="40" as="geometry"><mxRectangle width="60" height="40" as="alternateBounds"/></mxGeometry></mxCell><mxCell id="nHsgwOCxEVJ2XdIft6rS-185" value="2" style="shape=partialRectangle;html=1;whiteSpace=wrap;connectable=0;overflow=hidden;fillColor=#dae8fc;top=0;left=0;bottom=0;right=0;pointerEvents=1;strokeColor=#6c8ebf;" parent="nHsgwOCxEVJ2XdIft6rS-182" vertex="1"><mxGeometry x="120" width="60" height="40" as="geometry"><mxRectangle width="60" height="40" as="alternateBounds"/></mxGeometry></mxCell><mxCell id="nHsgwOCxEVJ2XdIft6rS-186" value="3" style="shape=partialRectangle;html=1;whiteSpace=wrap;connectable=0;overflow=hidden;fillColor=#dae8fc;top=0;left=0;bottom=0;right=0;pointerEvents=1;strokeColor=#6c8ebf;" parent="nHsgwOCxEVJ2XdIft6rS-182" vertex="1"><mxGeometry x="180" width="60" height="40" as="geometry"><mxRectangle width="60" height="40" as="alternateBounds"/></mxGeometry></mxCell><mxCell id="nHsgwOCxEVJ2XdIft6rS-187" value="4" style="shape=partialRectangle;html=1;whiteSpace=wrap;connectable=0;overflow=hidden;fillColor=#dae8fc;top=0;left=0;bottom=0;right=0;pointerEvents=1;strokeColor=#6c8ebf;" parent="nHsgwOCxEVJ2XdIft6rS-182" vertex="1"><mxGeometry x="240" width="60" height="40" as="geometry"><mxRectangle width="60" height="40" as="alternateBounds"/></mxGeometry></mxCell><mxCell id="nHsgwOCxEVJ2XdIft6rS-188" value="5" style="shape=partialRectangle;html=1;whiteSpace=wrap;connectable=0;overflow=hidden;fillColor=#dae8fc;top=0;left=0;bottom=0;right=0;pointerEvents=1;strokeColor=#6c8ebf;" parent="nHsgwOCxEVJ2XdIft6rS-182" vertex="1"><mxGeometry x="300" width="60" height="40" as="geometry"><mxRectangle width="60" height="40" as="alternateBounds"/></mxGeometry></mxCell><mxCell id="nHsgwOCxEVJ2XdIft6rS-189" value="" style="shape=table;startSize=0;container=1;collapsible=0;childLayout=tableLayout;fillColor=none;" parent="nHsgwOCxEVJ2XdIft6rS-1" vertex="1"><mxGeometry x="1210" y="1410" width="360" height="200" as="geometry"/></mxCell><mxCell id="nHsgwOCxEVJ2XdIft6rS-190" style="shape=partialRectangle;collapsible=0;dropTarget=0;pointerEvents=0;fillColor=none;top=0;left=0;bottom=0;right=0;points=[[0,0.5],[1,0.5]];portConstraint=eastwest;" parent="nHsgwOCxEVJ2XdIft6rS-189" vertex="1"><mxGeometry width="360" height="40" as="geometry"/></mxCell><mxCell id="nHsgwOCxEVJ2XdIft6rS-191" value="19" style="shape=partialRectangle;html=1;whiteSpace=wrap;connectable=0;overflow=hidden;fillColor=#dae8fc;top=0;left=0;bottom=0;right=0;pointerEvents=1;strokeColor=#6c8ebf;" parent="nHsgwOCxEVJ2XdIft6rS-190" vertex="1"><mxGeometry width="60" height="40" as="geometry"><mxRectangle width="60" height="40" as="alternateBounds"/></mxGeometry></mxCell><mxCell id="nHsgwOCxEVJ2XdIft6rS-192" style="shape=partialRectangle;html=1;whiteSpace=wrap;connectable=0;overflow=hidden;fillColor=none;top=0;left=0;bottom=0;right=0;pointerEvents=1;" parent="nHsgwOCxEVJ2XdIft6rS-190" vertex="1"><mxGeometry x="60" width="60" height="40" as="geometry"><mxRectangle width="60" height="40" as="alternateBounds"/></mxGeometry></mxCell><mxCell id="nHsgwOCxEVJ2XdIft6rS-193" style="shape=partialRectangle;html=1;whiteSpace=wrap;connectable=0;overflow=hidden;fillColor=none;top=0;left=0;bottom=0;right=0;pointerEvents=1;" parent="nHsgwOCxEVJ2XdIft6rS-190" vertex="1"><mxGeometry x="120" width="60" height="40" as="geometry"><mxRectangle width="60" height="40" as="alternateBounds"/></mxGeometry></mxCell><mxCell id="nHsgwOCxEVJ2XdIft6rS-194" style="shape=partialRectangle;html=1;whiteSpace=wrap;connectable=0;overflow=hidden;fillColor=none;top=0;left=0;bottom=0;right=0;pointerEvents=1;" parent="nHsgwOCxEVJ2XdIft6rS-190" vertex="1"><mxGeometry x="180" width="60" height="40" as="geometry"><mxRectangle width="60" height="40" as="alternateBounds"/></mxGeometry></mxCell><mxCell id="nHsgwOCxEVJ2XdIft6rS-195" value="0" style="shape=partialRectangle;html=1;whiteSpace=wrap;connectable=0;overflow=hidden;fillColor=#fff2cc;top=0;left=0;bottom=0;right=0;pointerEvents=1;strokeColor=#d6b656;" parent="nHsgwOCxEVJ2XdIft6rS-190" vertex="1"><mxGeometry x="240" width="60" height="40" as="geometry"><mxRectangle width="60" height="40" as="alternateBounds"/></mxGeometry></mxCell><mxCell id="nHsgwOCxEVJ2XdIft6rS-196" style="shape=partialRectangle;html=1;whiteSpace=wrap;connectable=0;overflow=hidden;fillColor=none;top=0;left=0;bottom=0;right=0;pointerEvents=1;" parent="nHsgwOCxEVJ2XdIft6rS-190" vertex="1"><mxGeometry x="300" width="60" height="40" as="geometry"><mxRectangle width="60" height="40" as="alternateBounds"/></mxGeometry></mxCell><mxCell id="nHsgwOCxEVJ2XdIft6rS-197" value="" style="shape=partialRectangle;collapsible=0;dropTarget=0;pointerEvents=0;fillColor=none;top=0;left=0;bottom=0;right=0;points=[[0,0.5],[1,0.5]];portConstraint=eastwest;" parent="nHsgwOCxEVJ2XdIft6rS-189" vertex="1"><mxGeometry y="40" width="360" height="40" as="geometry"/></mxCell><mxCell id="nHsgwOCxEVJ2XdIft6rS-198" value="18" style="shape=partialRectangle;html=1;whiteSpace=wrap;connectable=0;overflow=hidden;fillColor=#dae8fc;top=0;left=0;bottom=0;right=0;pointerEvents=1;strokeColor=#6c8ebf;" parent="nHsgwOCxEVJ2XdIft6rS-197" vertex="1"><mxGeometry width="60" height="40" as="geometry"><mxRectangle width="60" height="40" as="alternateBounds"/></mxGeometry></mxCell><mxCell id="nHsgwOCxEVJ2XdIft6rS-199" value="" style="shape=partialRectangle;html=1;whiteSpace=wrap;connectable=0;overflow=hidden;fillColor=none;top=0;left=0;bottom=0;right=0;pointerEvents=1;" parent="nHsgwOCxEVJ2XdIft6rS-197" vertex="1"><mxGeometry x="60" width="60" height="40" as="geometry"><mxRectangle width="60" height="40" as="alternateBounds"/></mxGeometry></mxCell><mxCell id="nHsgwOCxEVJ2XdIft6rS-200" value="" style="shape=partialRectangle;html=1;whiteSpace=wrap;connectable=0;overflow=hidden;fillColor=none;top=0;left=0;bottom=0;right=0;pointerEvents=1;" parent="nHsgwOCxEVJ2XdIft6rS-197" vertex="1"><mxGeometry x="120" width="60" height="40" as="geometry"><mxRectangle width="60" height="40" as="alternateBounds"/></mxGeometry></mxCell><mxCell id="nHsgwOCxEVJ2XdIft6rS-201" value="" style="shape=partialRectangle;html=1;whiteSpace=wrap;connectable=0;overflow=hidden;fillColor=none;top=0;left=0;bottom=0;right=0;pointerEvents=1;" parent="nHsgwOCxEVJ2XdIft6rS-197" vertex="1"><mxGeometry x="180" width="60" height="40" as="geometry"><mxRectangle width="60" height="40" as="alternateBounds"/></mxGeometry></mxCell><mxCell id="nHsgwOCxEVJ2XdIft6rS-202" value="1" style="shape=partialRectangle;html=1;whiteSpace=wrap;connectable=0;overflow=hidden;fillColor=#fff2cc;top=0;left=0;bottom=0;right=0;pointerEvents=1;strokeColor=#d6b656;" parent="nHsgwOCxEVJ2XdIft6rS-197" vertex="1"><mxGeometry x="240" width="60" height="40" as="geometry"><mxRectangle width="60" height="40" as="alternateBounds"/></mxGeometry></mxCell><mxCell id="nHsgwOCxEVJ2XdIft6rS-203" value="" style="shape=partialRectangle;html=1;whiteSpace=wrap;connectable=0;overflow=hidden;fillColor=none;top=0;left=0;bottom=0;right=0;pointerEvents=1;" parent="nHsgwOCxEVJ2XdIft6rS-197" vertex="1"><mxGeometry x="300" width="60" height="40" as="geometry"><mxRectangle width="60" height="40" as="alternateBounds"/></mxGeometry></mxCell><mxCell id="nHsgwOCxEVJ2XdIft6rS-204" value="" style="shape=partialRectangle;collapsible=0;dropTarget=0;pointerEvents=0;fillColor=none;top=0;left=0;bottom=0;right=0;points=[[0,0.5],[1,0.5]];portConstraint=eastwest;" parent="nHsgwOCxEVJ2XdIft6rS-189" vertex="1"><mxGeometry y="80" width="360" height="40" as="geometry"/></mxCell><mxCell id="nHsgwOCxEVJ2XdIft6rS-205" value="17" style="shape=partialRectangle;html=1;whiteSpace=wrap;connectable=0;overflow=hidden;fillColor=#dae8fc;top=0;left=0;bottom=0;right=0;pointerEvents=1;strokeColor=#6c8ebf;" parent="nHsgwOCxEVJ2XdIft6rS-204" vertex="1"><mxGeometry width="60" height="40" as="geometry"><mxRectangle width="60" height="40" as="alternateBounds"/></mxGeometry></mxCell><mxCell id="nHsgwOCxEVJ2XdIft6rS-206" value="" style="shape=partialRectangle;html=1;whiteSpace=wrap;connectable=0;overflow=hidden;fillColor=none;top=0;left=0;bottom=0;right=0;pointerEvents=1;" parent="nHsgwOCxEVJ2XdIft6rS-204" vertex="1"><mxGeometry x="60" width="60" height="40" as="geometry"><mxRectangle width="60" height="40" as="alternateBounds"/></mxGeometry></mxCell><mxCell id="nHsgwOCxEVJ2XdIft6rS-207" value="" style="shape=partialRectangle;html=1;whiteSpace=wrap;connectable=0;overflow=hidden;fillColor=none;top=0;left=0;bottom=0;right=0;pointerEvents=1;" parent="nHsgwOCxEVJ2XdIft6rS-204" vertex="1"><mxGeometry x="120" width="60" height="40" as="geometry"><mxRectangle width="60" height="40" as="alternateBounds"/></mxGeometry></mxCell><mxCell id="nHsgwOCxEVJ2XdIft6rS-208" value="" style="shape=partialRectangle;html=1;whiteSpace=wrap;connectable=0;overflow=hidden;fillColor=none;top=0;left=0;bottom=0;right=0;pointerEvents=1;strokeColor=#000000;" parent="nHsgwOCxEVJ2XdIft6rS-204" vertex="1"><mxGeometry x="180" width="60" height="40" as="geometry"><mxRectangle width="60" height="40" as="alternateBounds"/></mxGeometry></mxCell><mxCell id="nHsgwOCxEVJ2XdIft6rS-209" value="2" style="shape=partialRectangle;html=1;whiteSpace=wrap;connectable=0;overflow=hidden;fillColor=#fff2cc;top=0;left=0;bottom=0;right=0;pointerEvents=1;strokeColor=#d6b656;" parent="nHsgwOCxEVJ2XdIft6rS-204" vertex="1"><mxGeometry x="240" width="60" height="40" as="geometry"><mxRectangle width="60" height="40" as="alternateBounds"/></mxGeometry></mxCell><mxCell id="nHsgwOCxEVJ2XdIft6rS-210" value="3" style="shape=partialRectangle;html=1;whiteSpace=wrap;connectable=0;overflow=hidden;fillColor=#fff2cc;top=0;left=0;bottom=0;right=0;pointerEvents=1;strokeColor=#d6b656;" parent="nHsgwOCxEVJ2XdIft6rS-204" vertex="1"><mxGeometry x="300" width="60" height="40" as="geometry"><mxRectangle width="60" height="40" as="alternateBounds"/></mxGeometry></mxCell><mxCell id="nHsgwOCxEVJ2XdIft6rS-211" value="" style="shape=partialRectangle;collapsible=0;dropTarget=0;pointerEvents=0;fillColor=none;top=0;left=0;bottom=0;right=0;points=[[0,0.5],[1,0.5]];portConstraint=eastwest;" parent="nHsgwOCxEVJ2XdIft6rS-189" vertex="1"><mxGeometry y="120" width="360" height="40" as="geometry"/></mxCell><mxCell id="nHsgwOCxEVJ2XdIft6rS-212" value="16" style="shape=partialRectangle;html=1;whiteSpace=wrap;connectable=0;overflow=hidden;fillColor=#dae8fc;top=0;left=0;bottom=0;right=0;pointerEvents=1;strokeColor=#6c8ebf;" parent="nHsgwOCxEVJ2XdIft6rS-211" vertex="1"><mxGeometry width="60" height="40" as="geometry"><mxRectangle width="60" height="40" as="alternateBounds"/></mxGeometry></mxCell><mxCell id="nHsgwOCxEVJ2XdIft6rS-213" value="" style="shape=partialRectangle;html=1;whiteSpace=wrap;connectable=0;overflow=hidden;fillColor=none;top=0;left=0;bottom=0;right=0;pointerEvents=1;" parent="nHsgwOCxEVJ2XdIft6rS-211" vertex="1"><mxGeometry x="60" width="60" height="40" as="geometry"><mxRectangle width="60" height="40" as="alternateBounds"/></mxGeometry></mxCell><mxCell id="nHsgwOCxEVJ2XdIft6rS-214" value="" style="shape=partialRectangle;html=1;whiteSpace=wrap;connectable=0;overflow=hidden;fillColor=none;top=0;left=0;bottom=0;right=0;pointerEvents=1;" parent="nHsgwOCxEVJ2XdIft6rS-211" vertex="1"><mxGeometry x="120" width="60" height="40" as="geometry"><mxRectangle width="60" height="40" as="alternateBounds"/></mxGeometry></mxCell><mxCell id="nHsgwOCxEVJ2XdIft6rS-215" value="" style="shape=partialRectangle;html=1;whiteSpace=wrap;connectable=0;overflow=hidden;fillColor=none;top=0;left=0;bottom=0;right=0;pointerEvents=1;" parent="nHsgwOCxEVJ2XdIft6rS-211" vertex="1"><mxGeometry x="180" width="60" height="40" as="geometry"><mxRectangle width="60" height="40" as="alternateBounds"/></mxGeometry></mxCell><mxCell id="nHsgwOCxEVJ2XdIft6rS-216" value="" style="shape=partialRectangle;html=1;whiteSpace=wrap;connectable=0;overflow=hidden;top=0;left=0;bottom=0;right=0;pointerEvents=1;fillColor=none;" parent="nHsgwOCxEVJ2XdIft6rS-211" vertex="1"><mxGeometry x="240" width="60" height="40" as="geometry"><mxRectangle width="60" height="40" as="alternateBounds"/></mxGeometry></mxCell><mxCell id="nHsgwOCxEVJ2XdIft6rS-217" value="" style="shape=partialRectangle;html=1;whiteSpace=wrap;connectable=0;overflow=hidden;fillColor=none;top=0;left=0;bottom=0;right=0;pointerEvents=1;" parent="nHsgwOCxEVJ2XdIft6rS-211" vertex="1"><mxGeometry x="300" width="60" height="40" as="geometry"><mxRectangle width="60" height="40" as="alternateBounds"/></mxGeometry></mxCell><mxCell id="nHsgwOCxEVJ2XdIft6rS-218" value="" style="shape=partialRectangle;collapsible=0;dropTarget=0;pointerEvents=0;fillColor=none;top=0;left=0;bottom=0;right=0;points=[[0,0.5],[1,0.5]];portConstraint=eastwest;" parent="nHsgwOCxEVJ2XdIft6rS-189" vertex="1"><mxGeometry y="160" width="360" height="40" as="geometry"/></mxCell><mxCell id="nHsgwOCxEVJ2XdIft6rS-219" value="15 / 0" style="shape=partialRectangle;html=1;whiteSpace=wrap;connectable=0;overflow=hidden;fillColor=#dae8fc;top=0;left=0;bottom=0;right=0;pointerEvents=1;strokeColor=#6c8ebf;" parent="nHsgwOCxEVJ2XdIft6rS-218" vertex="1"><mxGeometry width="60" height="40" as="geometry"><mxRectangle width="60" height="40" as="alternateBounds"/></mxGeometry></mxCell><mxCell id="nHsgwOCxEVJ2XdIft6rS-220" value="1" style="shape=partialRectangle;html=1;whiteSpace=wrap;connectable=0;overflow=hidden;fillColor=#dae8fc;top=0;left=0;bottom=0;right=0;pointerEvents=1;strokeColor=#6c8ebf;" parent="nHsgwOCxEVJ2XdIft6rS-218" vertex="1"><mxGeometry x="60" width="60" height="40" as="geometry"><mxRectangle width="60" height="40" as="alternateBounds"/></mxGeometry></mxCell><mxCell id="nHsgwOCxEVJ2XdIft6rS-221" value="2" style="shape=partialRectangle;html=1;whiteSpace=wrap;connectable=0;overflow=hidden;fillColor=#dae8fc;top=0;left=0;bottom=0;right=0;pointerEvents=1;strokeColor=#6c8ebf;" parent="nHsgwOCxEVJ2XdIft6rS-218" vertex="1"><mxGeometry x="120" width="60" height="40" as="geometry"><mxRectangle width="60" height="40" as="alternateBounds"/></mxGeometry></mxCell><mxCell id="nHsgwOCxEVJ2XdIft6rS-222" value="3" style="shape=partialRectangle;html=1;whiteSpace=wrap;connectable=0;overflow=hidden;fillColor=#dae8fc;top=0;left=0;bottom=0;right=0;pointerEvents=1;strokeColor=#6c8ebf;" parent="nHsgwOCxEVJ2XdIft6rS-218" vertex="1"><mxGeometry x="180" width="60" height="40" as="geometry"><mxRectangle width="60" height="40" as="alternateBounds"/></mxGeometry></mxCell><mxCell id="nHsgwOCxEVJ2XdIft6rS-223" value="4" style="shape=partialRectangle;html=1;whiteSpace=wrap;connectable=0;overflow=hidden;fillColor=#dae8fc;top=0;left=0;bottom=0;right=0;pointerEvents=1;strokeColor=#6c8ebf;" parent="nHsgwOCxEVJ2XdIft6rS-218" vertex="1"><mxGeometry x="240" width="60" height="40" as="geometry"><mxRectangle width="60" height="40" as="alternateBounds"/></mxGeometry></mxCell><mxCell id="nHsgwOCxEVJ2XdIft6rS-224" value="5" style="shape=partialRectangle;html=1;whiteSpace=wrap;connectable=0;overflow=hidden;fillColor=#dae8fc;top=0;left=0;bottom=0;right=0;pointerEvents=1;strokeColor=#6c8ebf;" parent="nHsgwOCxEVJ2XdIft6rS-218" vertex="1"><mxGeometry x="300" width="60" height="40" as="geometry"><mxRectangle width="60" height="40" as="alternateBounds"/></mxGeometry></mxCell><mxCell id="nHsgwOCxEVJ2XdIft6rS-225" value="" style="shape=table;startSize=0;container=1;collapsible=0;childLayout=tableLayout;fillColor=none;" parent="nHsgwOCxEVJ2XdIft6rS-1" vertex="1"><mxGeometry x="410" y="1770" width="360" height="200" as="geometry"/></mxCell><mxCell id="nHsgwOCxEVJ2XdIft6rS-226" style="shape=partialRectangle;collapsible=0;dropTarget=0;pointerEvents=0;fillColor=none;top=0;left=0;bottom=0;right=0;points=[[0,0.5],[1,0.5]];portConstraint=eastwest;" parent="nHsgwOCxEVJ2XdIft6rS-225" vertex="1"><mxGeometry width="360" height="40" as="geometry"/></mxCell><mxCell id="nHsgwOCxEVJ2XdIft6rS-227" value="19" style="shape=partialRectangle;html=1;whiteSpace=wrap;connectable=0;overflow=hidden;fillColor=#dae8fc;top=0;left=0;bottom=0;right=0;pointerEvents=1;strokeColor=#6c8ebf;" parent="nHsgwOCxEVJ2XdIft6rS-226" vertex="1"><mxGeometry width="60" height="40" as="geometry"><mxRectangle width="60" height="40" as="alternateBounds"/></mxGeometry></mxCell><mxCell id="nHsgwOCxEVJ2XdIft6rS-228" style="shape=partialRectangle;html=1;whiteSpace=wrap;connectable=0;overflow=hidden;fillColor=none;top=0;left=0;bottom=0;right=0;pointerEvents=1;" parent="nHsgwOCxEVJ2XdIft6rS-226" vertex="1"><mxGeometry x="60" width="60" height="40" as="geometry"><mxRectangle width="60" height="40" as="alternateBounds"/></mxGeometry></mxCell><mxCell id="nHsgwOCxEVJ2XdIft6rS-229" style="shape=partialRectangle;html=1;whiteSpace=wrap;connectable=0;overflow=hidden;fillColor=none;top=0;left=0;bottom=0;right=0;pointerEvents=1;" parent="nHsgwOCxEVJ2XdIft6rS-226" vertex="1"><mxGeometry x="120" width="60" height="40" as="geometry"><mxRectangle width="60" height="40" as="alternateBounds"/></mxGeometry></mxCell><mxCell id="nHsgwOCxEVJ2XdIft6rS-230" value="1" style="shape=partialRectangle;html=1;whiteSpace=wrap;connectable=0;overflow=hidden;fillColor=#fff2cc;top=0;left=0;bottom=0;right=0;pointerEvents=1;strokeColor=#d6b656;" parent="nHsgwOCxEVJ2XdIft6rS-226" vertex="1"><mxGeometry x="180" width="60" height="40" as="geometry"><mxRectangle width="60" height="40" as="alternateBounds"/></mxGeometry></mxCell><mxCell id="nHsgwOCxEVJ2XdIft6rS-231" value="0" style="shape=partialRectangle;html=1;whiteSpace=wrap;connectable=0;overflow=hidden;fillColor=#fff2cc;top=0;left=0;bottom=0;right=0;pointerEvents=1;strokeColor=#d6b656;" parent="nHsgwOCxEVJ2XdIft6rS-226" vertex="1"><mxGeometry x="240" width="60" height="40" as="geometry"><mxRectangle width="60" height="40" as="alternateBounds"/></mxGeometry></mxCell><mxCell id="nHsgwOCxEVJ2XdIft6rS-232" style="shape=partialRectangle;html=1;whiteSpace=wrap;connectable=0;overflow=hidden;fillColor=none;top=0;left=0;bottom=0;right=0;pointerEvents=1;" parent="nHsgwOCxEVJ2XdIft6rS-226" vertex="1"><mxGeometry x="300" width="60" height="40" as="geometry"><mxRectangle width="60" height="40" as="alternateBounds"/></mxGeometry></mxCell><mxCell id="nHsgwOCxEVJ2XdIft6rS-233" value="" style="shape=partialRectangle;collapsible=0;dropTarget=0;pointerEvents=0;fillColor=none;top=0;left=0;bottom=0;right=0;points=[[0,0.5],[1,0.5]];portConstraint=eastwest;" parent="nHsgwOCxEVJ2XdIft6rS-225" vertex="1"><mxGeometry y="40" width="360" height="40" as="geometry"/></mxCell><mxCell id="nHsgwOCxEVJ2XdIft6rS-234" value="18" style="shape=partialRectangle;html=1;whiteSpace=wrap;connectable=0;overflow=hidden;fillColor=#dae8fc;top=0;left=0;bottom=0;right=0;pointerEvents=1;strokeColor=#6c8ebf;" parent="nHsgwOCxEVJ2XdIft6rS-233" vertex="1"><mxGeometry width="60" height="40" as="geometry"><mxRectangle width="60" height="40" as="alternateBounds"/></mxGeometry></mxCell><mxCell id="nHsgwOCxEVJ2XdIft6rS-235" value="" style="shape=partialRectangle;html=1;whiteSpace=wrap;connectable=0;overflow=hidden;fillColor=none;top=0;left=0;bottom=0;right=0;pointerEvents=1;" parent="nHsgwOCxEVJ2XdIft6rS-233" vertex="1"><mxGeometry x="60" width="60" height="40" as="geometry"><mxRectangle width="60" height="40" as="alternateBounds"/></mxGeometry></mxCell><mxCell id="nHsgwOCxEVJ2XdIft6rS-236" value="" style="shape=partialRectangle;html=1;whiteSpace=wrap;connectable=0;overflow=hidden;fillColor=none;top=0;left=0;bottom=0;right=0;pointerEvents=1;" parent="nHsgwOCxEVJ2XdIft6rS-233" vertex="1"><mxGeometry x="120" width="60" height="40" as="geometry"><mxRectangle width="60" height="40" as="alternateBounds"/></mxGeometry></mxCell><mxCell id="nHsgwOCxEVJ2XdIft6rS-237" value="3" style="shape=partialRectangle;html=1;whiteSpace=wrap;connectable=0;overflow=hidden;fillColor=#fff2cc;top=0;left=0;bottom=0;right=0;pointerEvents=1;strokeColor=#d6b656;" parent="nHsgwOCxEVJ2XdIft6rS-233" vertex="1"><mxGeometry x="180" width="60" height="40" as="geometry"><mxRectangle width="60" height="40" as="alternateBounds"/></mxGeometry></mxCell><mxCell id="nHsgwOCxEVJ2XdIft6rS-238" value="2" style="shape=partialRectangle;html=1;whiteSpace=wrap;connectable=0;overflow=hidden;fillColor=#fff2cc;top=0;left=0;bottom=0;right=0;pointerEvents=1;strokeColor=#d6b656;" parent="nHsgwOCxEVJ2XdIft6rS-233" vertex="1"><mxGeometry x="240" width="60" height="40" as="geometry"><mxRectangle width="60" height="40" as="alternateBounds"/></mxGeometry></mxCell><mxCell id="nHsgwOCxEVJ2XdIft6rS-239" value="" style="shape=partialRectangle;html=1;whiteSpace=wrap;connectable=0;overflow=hidden;fillColor=none;top=0;left=0;bottom=0;right=0;pointerEvents=1;" parent="nHsgwOCxEVJ2XdIft6rS-233" vertex="1"><mxGeometry x="300" width="60" height="40" as="geometry"><mxRectangle width="60" height="40" as="alternateBounds"/></mxGeometry></mxCell><mxCell id="nHsgwOCxEVJ2XdIft6rS-240" value="" style="shape=partialRectangle;collapsible=0;dropTarget=0;pointerEvents=0;fillColor=none;top=0;left=0;bottom=0;right=0;points=[[0,0.5],[1,0.5]];portConstraint=eastwest;" parent="nHsgwOCxEVJ2XdIft6rS-225" vertex="1"><mxGeometry y="80" width="360" height="40" as="geometry"/></mxCell><mxCell id="nHsgwOCxEVJ2XdIft6rS-241" value="17" style="shape=partialRectangle;html=1;whiteSpace=wrap;connectable=0;overflow=hidden;fillColor=#dae8fc;top=0;left=0;bottom=0;right=0;pointerEvents=1;strokeColor=#6c8ebf;" parent="nHsgwOCxEVJ2XdIft6rS-240" vertex="1"><mxGeometry width="60" height="40" as="geometry"><mxRectangle width="60" height="40" as="alternateBounds"/></mxGeometry></mxCell><mxCell id="nHsgwOCxEVJ2XdIft6rS-242" value="" style="shape=partialRectangle;html=1;whiteSpace=wrap;connectable=0;overflow=hidden;fillColor=none;top=0;left=0;bottom=0;right=0;pointerEvents=1;" parent="nHsgwOCxEVJ2XdIft6rS-240" vertex="1"><mxGeometry x="60" width="60" height="40" as="geometry"><mxRectangle width="60" height="40" as="alternateBounds"/></mxGeometry></mxCell><mxCell id="nHsgwOCxEVJ2XdIft6rS-243" value="" style="shape=partialRectangle;html=1;whiteSpace=wrap;connectable=0;overflow=hidden;fillColor=none;top=0;left=0;bottom=0;right=0;pointerEvents=1;" parent="nHsgwOCxEVJ2XdIft6rS-240" vertex="1"><mxGeometry x="120" width="60" height="40" as="geometry"><mxRectangle width="60" height="40" as="alternateBounds"/></mxGeometry></mxCell><mxCell id="nHsgwOCxEVJ2XdIft6rS-244" value="" style="shape=partialRectangle;html=1;whiteSpace=wrap;connectable=0;overflow=hidden;fillColor=none;top=0;left=0;bottom=0;right=0;pointerEvents=1;" parent="nHsgwOCxEVJ2XdIft6rS-240" vertex="1"><mxGeometry x="180" width="60" height="40" as="geometry"><mxRectangle width="60" height="40" as="alternateBounds"/></mxGeometry></mxCell><mxCell id="nHsgwOCxEVJ2XdIft6rS-245" value="" style="shape=partialRectangle;html=1;whiteSpace=wrap;connectable=0;overflow=hidden;fillColor=none;top=0;left=0;bottom=0;right=0;pointerEvents=1;strokeColor=#000000;" parent="nHsgwOCxEVJ2XdIft6rS-240" vertex="1"><mxGeometry x="240" width="60" height="40" as="geometry"><mxRectangle width="60" height="40" as="alternateBounds"/></mxGeometry></mxCell><mxCell id="nHsgwOCxEVJ2XdIft6rS-246" value="" style="shape=partialRectangle;html=1;whiteSpace=wrap;connectable=0;overflow=hidden;fillColor=none;top=0;left=0;bottom=0;right=0;pointerEvents=1;" parent="nHsgwOCxEVJ2XdIft6rS-240" vertex="1"><mxGeometry x="300" width="60" height="40" as="geometry"><mxRectangle width="60" height="40" as="alternateBounds"/></mxGeometry></mxCell><mxCell id="nHsgwOCxEVJ2XdIft6rS-247" value="" style="shape=partialRectangle;collapsible=0;dropTarget=0;pointerEvents=0;fillColor=none;top=0;left=0;bottom=0;right=0;points=[[0,0.5],[1,0.5]];portConstraint=eastwest;" parent="nHsgwOCxEVJ2XdIft6rS-225" vertex="1"><mxGeometry y="120" width="360" height="40" as="geometry"/></mxCell><mxCell id="nHsgwOCxEVJ2XdIft6rS-248" value="16" style="shape=partialRectangle;html=1;whiteSpace=wrap;connectable=0;overflow=hidden;fillColor=#dae8fc;top=0;left=0;bottom=0;right=0;pointerEvents=1;strokeColor=#6c8ebf;" parent="nHsgwOCxEVJ2XdIft6rS-247" vertex="1"><mxGeometry width="60" height="40" as="geometry"><mxRectangle width="60" height="40" as="alternateBounds"/></mxGeometry></mxCell><mxCell id="nHsgwOCxEVJ2XdIft6rS-249" value="" style="shape=partialRectangle;html=1;whiteSpace=wrap;connectable=0;overflow=hidden;fillColor=none;top=0;left=0;bottom=0;right=0;pointerEvents=1;" parent="nHsgwOCxEVJ2XdIft6rS-247" vertex="1"><mxGeometry x="60" width="60" height="40" as="geometry"><mxRectangle width="60" height="40" as="alternateBounds"/></mxGeometry></mxCell><mxCell id="nHsgwOCxEVJ2XdIft6rS-250" value="" style="shape=partialRectangle;html=1;whiteSpace=wrap;connectable=0;overflow=hidden;fillColor=none;top=0;left=0;bottom=0;right=0;pointerEvents=1;" parent="nHsgwOCxEVJ2XdIft6rS-247" vertex="1"><mxGeometry x="120" width="60" height="40" as="geometry"><mxRectangle width="60" height="40" as="alternateBounds"/></mxGeometry></mxCell><mxCell id="nHsgwOCxEVJ2XdIft6rS-251" value="" style="shape=partialRectangle;html=1;whiteSpace=wrap;connectable=0;overflow=hidden;fillColor=none;top=0;left=0;bottom=0;right=0;pointerEvents=1;" parent="nHsgwOCxEVJ2XdIft6rS-247" vertex="1"><mxGeometry x="180" width="60" height="40" as="geometry"><mxRectangle width="60" height="40" as="alternateBounds"/></mxGeometry></mxCell><mxCell id="nHsgwOCxEVJ2XdIft6rS-252" value="" style="shape=partialRectangle;html=1;whiteSpace=wrap;connectable=0;overflow=hidden;fillColor=none;top=0;left=0;bottom=0;right=0;pointerEvents=1;strokeColor=#000000;" parent="nHsgwOCxEVJ2XdIft6rS-247" vertex="1"><mxGeometry x="240" width="60" height="40" as="geometry"><mxRectangle width="60" height="40" as="alternateBounds"/></mxGeometry></mxCell><mxCell id="nHsgwOCxEVJ2XdIft6rS-253" value="" style="shape=partialRectangle;html=1;whiteSpace=wrap;connectable=0;overflow=hidden;fillColor=none;top=0;left=0;bottom=0;right=0;pointerEvents=1;" parent="nHsgwOCxEVJ2XdIft6rS-247" vertex="1"><mxGeometry x="300" width="60" height="40" as="geometry"><mxRectangle width="60" height="40" as="alternateBounds"/></mxGeometry></mxCell><mxCell id="nHsgwOCxEVJ2XdIft6rS-254" value="" style="shape=partialRectangle;collapsible=0;dropTarget=0;pointerEvents=0;fillColor=none;top=0;left=0;bottom=0;right=0;points=[[0,0.5],[1,0.5]];portConstraint=eastwest;" parent="nHsgwOCxEVJ2XdIft6rS-225" vertex="1"><mxGeometry y="160" width="360" height="40" as="geometry"/></mxCell><mxCell id="nHsgwOCxEVJ2XdIft6rS-255" value="15 / 0" style="shape=partialRectangle;html=1;whiteSpace=wrap;connectable=0;overflow=hidden;fillColor=#dae8fc;top=0;left=0;bottom=0;right=0;pointerEvents=1;strokeColor=#6c8ebf;" parent="nHsgwOCxEVJ2XdIft6rS-254" vertex="1"><mxGeometry width="60" height="40" as="geometry"><mxRectangle width="60" height="40" as="alternateBounds"/></mxGeometry></mxCell><mxCell id="nHsgwOCxEVJ2XdIft6rS-256" value="1" style="shape=partialRectangle;html=1;whiteSpace=wrap;connectable=0;overflow=hidden;fillColor=#dae8fc;top=0;left=0;bottom=0;right=0;pointerEvents=1;strokeColor=#6c8ebf;" parent="nHsgwOCxEVJ2XdIft6rS-254" vertex="1"><mxGeometry x="60" width="60" height="40" as="geometry"><mxRectangle width="60" height="40" as="alternateBounds"/></mxGeometry></mxCell><mxCell id="nHsgwOCxEVJ2XdIft6rS-257" value="2" style="shape=partialRectangle;html=1;whiteSpace=wrap;connectable=0;overflow=hidden;fillColor=#dae8fc;top=0;left=0;bottom=0;right=0;pointerEvents=1;strokeColor=#6c8ebf;" parent="nHsgwOCxEVJ2XdIft6rS-254" vertex="1"><mxGeometry x="120" width="60" height="40" as="geometry"><mxRectangle width="60" height="40" as="alternateBounds"/></mxGeometry></mxCell><mxCell id="nHsgwOCxEVJ2XdIft6rS-258" value="3" style="shape=partialRectangle;html=1;whiteSpace=wrap;connectable=0;overflow=hidden;fillColor=#dae8fc;top=0;left=0;bottom=0;right=0;pointerEvents=1;strokeColor=#6c8ebf;" parent="nHsgwOCxEVJ2XdIft6rS-254" vertex="1"><mxGeometry x="180" width="60" height="40" as="geometry"><mxRectangle width="60" height="40" as="alternateBounds"/></mxGeometry></mxCell><mxCell id="nHsgwOCxEVJ2XdIft6rS-259" value="4" style="shape=partialRectangle;html=1;whiteSpace=wrap;connectable=0;overflow=hidden;fillColor=#dae8fc;top=0;left=0;bottom=0;right=0;pointerEvents=1;strokeColor=#6c8ebf;" parent="nHsgwOCxEVJ2XdIft6rS-254" vertex="1"><mxGeometry x="240" width="60" height="40" as="geometry"><mxRectangle width="60" height="40" as="alternateBounds"/></mxGeometry></mxCell><mxCell id="nHsgwOCxEVJ2XdIft6rS-260" value="5" style="shape=partialRectangle;html=1;whiteSpace=wrap;connectable=0;overflow=hidden;fillColor=#dae8fc;top=0;left=0;bottom=0;right=0;pointerEvents=1;strokeColor=#6c8ebf;" parent="nHsgwOCxEVJ2XdIft6rS-254" vertex="1"><mxGeometry x="300" width="60" height="40" as="geometry"><mxRectangle width="60" height="40" as="alternateBounds"/></mxGeometry></mxCell><mxCell id="nHsgwOCxEVJ2XdIft6rS-261" value="" style="shape=table;startSize=0;container=1;collapsible=0;childLayout=tableLayout;fillColor=none;" parent="nHsgwOCxEVJ2XdIft6rS-1" vertex="1"><mxGeometry x="33" y="1415" width="360" height="200" as="geometry"/></mxCell><mxCell id="nHsgwOCxEVJ2XdIft6rS-262" style="shape=partialRectangle;collapsible=0;dropTarget=0;pointerEvents=0;fillColor=none;top=0;left=0;bottom=0;right=0;points=[[0,0.5],[1,0.5]];portConstraint=eastwest;" parent="nHsgwOCxEVJ2XdIft6rS-261" vertex="1"><mxGeometry width="360" height="40" as="geometry"/></mxCell><mxCell id="nHsgwOCxEVJ2XdIft6rS-263" value="19" style="shape=partialRectangle;html=1;whiteSpace=wrap;connectable=0;overflow=hidden;fillColor=#dae8fc;top=0;left=0;bottom=0;right=0;pointerEvents=1;strokeColor=#6c8ebf;" parent="nHsgwOCxEVJ2XdIft6rS-262" vertex="1"><mxGeometry width="60" height="40" as="geometry"><mxRectangle width="60" height="40" as="alternateBounds"/></mxGeometry></mxCell><mxCell id="nHsgwOCxEVJ2XdIft6rS-264" style="shape=partialRectangle;html=1;whiteSpace=wrap;connectable=0;overflow=hidden;fillColor=none;top=0;left=0;bottom=0;right=0;pointerEvents=1;" parent="nHsgwOCxEVJ2XdIft6rS-262" vertex="1"><mxGeometry x="60" width="60" height="40" as="geometry"><mxRectangle width="60" height="40" as="alternateBounds"/></mxGeometry></mxCell><mxCell id="nHsgwOCxEVJ2XdIft6rS-265" style="shape=partialRectangle;html=1;whiteSpace=wrap;connectable=0;overflow=hidden;fillColor=none;top=0;left=0;bottom=0;right=0;pointerEvents=1;" parent="nHsgwOCxEVJ2XdIft6rS-262" vertex="1"><mxGeometry x="120" width="60" height="40" as="geometry"><mxRectangle width="60" height="40" as="alternateBounds"/></mxGeometry></mxCell><mxCell id="nHsgwOCxEVJ2XdIft6rS-266" value="1" style="shape=partialRectangle;html=1;whiteSpace=wrap;connectable=0;overflow=hidden;fillColor=#fff2cc;top=0;left=0;bottom=0;right=0;pointerEvents=1;strokeColor=#d6b656;" parent="nHsgwOCxEVJ2XdIft6rS-262" vertex="1"><mxGeometry x="180" width="60" height="40" as="geometry"><mxRectangle width="60" height="40" as="alternateBounds"/></mxGeometry></mxCell><mxCell id="nHsgwOCxEVJ2XdIft6rS-267" value="0" style="shape=partialRectangle;html=1;whiteSpace=wrap;connectable=0;overflow=hidden;fillColor=#fff2cc;top=0;left=0;bottom=0;right=0;pointerEvents=1;strokeColor=#d6b656;" parent="nHsgwOCxEVJ2XdIft6rS-262" vertex="1"><mxGeometry x="240" width="60" height="40" as="geometry"><mxRectangle width="60" height="40" as="alternateBounds"/></mxGeometry></mxCell><mxCell id="nHsgwOCxEVJ2XdIft6rS-268" style="shape=partialRectangle;html=1;whiteSpace=wrap;connectable=0;overflow=hidden;fillColor=none;top=0;left=0;bottom=0;right=0;pointerEvents=1;" parent="nHsgwOCxEVJ2XdIft6rS-262" vertex="1"><mxGeometry x="300" width="60" height="40" as="geometry"><mxRectangle width="60" height="40" as="alternateBounds"/></mxGeometry></mxCell><mxCell id="nHsgwOCxEVJ2XdIft6rS-269" value="" style="shape=partialRectangle;collapsible=0;dropTarget=0;pointerEvents=0;fillColor=none;top=0;left=0;bottom=0;right=0;points=[[0,0.5],[1,0.5]];portConstraint=eastwest;" parent="nHsgwOCxEVJ2XdIft6rS-261" vertex="1"><mxGeometry y="40" width="360" height="40" as="geometry"/></mxCell><mxCell id="nHsgwOCxEVJ2XdIft6rS-270" value="18" style="shape=partialRectangle;html=1;whiteSpace=wrap;connectable=0;overflow=hidden;fillColor=#dae8fc;top=0;left=0;bottom=0;right=0;pointerEvents=1;strokeColor=#6c8ebf;" parent="nHsgwOCxEVJ2XdIft6rS-269" vertex="1"><mxGeometry width="60" height="40" as="geometry"><mxRectangle width="60" height="40" as="alternateBounds"/></mxGeometry></mxCell><mxCell id="nHsgwOCxEVJ2XdIft6rS-271" value="" style="shape=partialRectangle;html=1;whiteSpace=wrap;connectable=0;overflow=hidden;fillColor=none;top=0;left=0;bottom=0;right=0;pointerEvents=1;" parent="nHsgwOCxEVJ2XdIft6rS-269" vertex="1"><mxGeometry x="60" width="60" height="40" as="geometry"><mxRectangle width="60" height="40" as="alternateBounds"/></mxGeometry></mxCell><mxCell id="nHsgwOCxEVJ2XdIft6rS-272" value="3" style="shape=partialRectangle;html=1;whiteSpace=wrap;connectable=0;overflow=hidden;fillColor=#fff2cc;top=0;left=0;bottom=0;right=0;pointerEvents=1;strokeColor=#d6b656;" parent="nHsgwOCxEVJ2XdIft6rS-269" vertex="1"><mxGeometry x="120" width="60" height="40" as="geometry"><mxRectangle width="60" height="40" as="alternateBounds"/></mxGeometry></mxCell><mxCell id="nHsgwOCxEVJ2XdIft6rS-273" value="2" style="shape=partialRectangle;html=1;whiteSpace=wrap;connectable=0;overflow=hidden;fillColor=#fff2cc;top=0;left=0;bottom=0;right=0;pointerEvents=1;strokeColor=#d6b656;" parent="nHsgwOCxEVJ2XdIft6rS-269" vertex="1"><mxGeometry x="180" width="60" height="40" as="geometry"><mxRectangle width="60" height="40" as="alternateBounds"/></mxGeometry></mxCell><mxCell id="nHsgwOCxEVJ2XdIft6rS-274" value="" style="shape=partialRectangle;html=1;whiteSpace=wrap;connectable=0;overflow=hidden;fillColor=none;top=0;left=0;bottom=0;right=0;pointerEvents=1;strokeColor=#000000;" parent="nHsgwOCxEVJ2XdIft6rS-269" vertex="1"><mxGeometry x="240" width="60" height="40" as="geometry"><mxRectangle width="60" height="40" as="alternateBounds"/></mxGeometry></mxCell><mxCell id="nHsgwOCxEVJ2XdIft6rS-275" value="" style="shape=partialRectangle;html=1;whiteSpace=wrap;connectable=0;overflow=hidden;fillColor=none;top=0;left=0;bottom=0;right=0;pointerEvents=1;" parent="nHsgwOCxEVJ2XdIft6rS-269" vertex="1"><mxGeometry x="300" width="60" height="40" as="geometry"><mxRectangle width="60" height="40" as="alternateBounds"/></mxGeometry></mxCell><mxCell id="nHsgwOCxEVJ2XdIft6rS-276" value="" style="shape=partialRectangle;collapsible=0;dropTarget=0;pointerEvents=0;fillColor=none;top=0;left=0;bottom=0;right=0;points=[[0,0.5],[1,0.5]];portConstraint=eastwest;" parent="nHsgwOCxEVJ2XdIft6rS-261" vertex="1"><mxGeometry y="80" width="360" height="40" as="geometry"/></mxCell><mxCell id="nHsgwOCxEVJ2XdIft6rS-277" value="17" style="shape=partialRectangle;html=1;whiteSpace=wrap;connectable=0;overflow=hidden;fillColor=#dae8fc;top=0;left=0;bottom=0;right=0;pointerEvents=1;strokeColor=#6c8ebf;" parent="nHsgwOCxEVJ2XdIft6rS-276" vertex="1"><mxGeometry width="60" height="40" as="geometry"><mxRectangle width="60" height="40" as="alternateBounds"/></mxGeometry></mxCell><mxCell id="nHsgwOCxEVJ2XdIft6rS-278" value="" style="shape=partialRectangle;html=1;whiteSpace=wrap;connectable=0;overflow=hidden;fillColor=none;top=0;left=0;bottom=0;right=0;pointerEvents=1;" parent="nHsgwOCxEVJ2XdIft6rS-276" vertex="1"><mxGeometry x="60" width="60" height="40" as="geometry"><mxRectangle width="60" height="40" as="alternateBounds"/></mxGeometry></mxCell><mxCell id="nHsgwOCxEVJ2XdIft6rS-279" value="" style="shape=partialRectangle;html=1;whiteSpace=wrap;connectable=0;overflow=hidden;fillColor=none;top=0;left=0;bottom=0;right=0;pointerEvents=1;" parent="nHsgwOCxEVJ2XdIft6rS-276" vertex="1"><mxGeometry x="120" width="60" height="40" as="geometry"><mxRectangle width="60" height="40" as="alternateBounds"/></mxGeometry></mxCell><mxCell id="nHsgwOCxEVJ2XdIft6rS-280" value="" style="shape=partialRectangle;html=1;whiteSpace=wrap;connectable=0;overflow=hidden;fillColor=none;top=0;left=0;bottom=0;right=0;pointerEvents=1;" parent="nHsgwOCxEVJ2XdIft6rS-276" vertex="1"><mxGeometry x="180" width="60" height="40" as="geometry"><mxRectangle width="60" height="40" as="alternateBounds"/></mxGeometry></mxCell><mxCell id="nHsgwOCxEVJ2XdIft6rS-281" value="" style="shape=partialRectangle;html=1;whiteSpace=wrap;connectable=0;overflow=hidden;fillColor=none;top=0;left=0;bottom=0;right=0;pointerEvents=1;strokeColor=#000000;" parent="nHsgwOCxEVJ2XdIft6rS-276" vertex="1"><mxGeometry x="240" width="60" height="40" as="geometry"><mxRectangle width="60" height="40" as="alternateBounds"/></mxGeometry></mxCell><mxCell id="nHsgwOCxEVJ2XdIft6rS-282" value="" style="shape=partialRectangle;html=1;whiteSpace=wrap;connectable=0;overflow=hidden;fillColor=none;top=0;left=0;bottom=0;right=0;pointerEvents=1;" parent="nHsgwOCxEVJ2XdIft6rS-276" vertex="1"><mxGeometry x="300" width="60" height="40" as="geometry"><mxRectangle width="60" height="40" as="alternateBounds"/></mxGeometry></mxCell><mxCell id="nHsgwOCxEVJ2XdIft6rS-283" value="" style="shape=partialRectangle;collapsible=0;dropTarget=0;pointerEvents=0;fillColor=none;top=0;left=0;bottom=0;right=0;points=[[0,0.5],[1,0.5]];portConstraint=eastwest;" parent="nHsgwOCxEVJ2XdIft6rS-261" vertex="1"><mxGeometry y="120" width="360" height="40" as="geometry"/></mxCell><mxCell id="nHsgwOCxEVJ2XdIft6rS-284" value="16" style="shape=partialRectangle;html=1;whiteSpace=wrap;connectable=0;overflow=hidden;fillColor=#dae8fc;top=0;left=0;bottom=0;right=0;pointerEvents=1;strokeColor=#6c8ebf;" parent="nHsgwOCxEVJ2XdIft6rS-283" vertex="1"><mxGeometry width="60" height="40" as="geometry"><mxRectangle width="60" height="40" as="alternateBounds"/></mxGeometry></mxCell><mxCell id="nHsgwOCxEVJ2XdIft6rS-285" value="" style="shape=partialRectangle;html=1;whiteSpace=wrap;connectable=0;overflow=hidden;fillColor=none;top=0;left=0;bottom=0;right=0;pointerEvents=1;" parent="nHsgwOCxEVJ2XdIft6rS-283" vertex="1"><mxGeometry x="60" width="60" height="40" as="geometry"><mxRectangle width="60" height="40" as="alternateBounds"/></mxGeometry></mxCell><mxCell id="nHsgwOCxEVJ2XdIft6rS-286" value="" style="shape=partialRectangle;html=1;whiteSpace=wrap;connectable=0;overflow=hidden;fillColor=none;top=0;left=0;bottom=0;right=0;pointerEvents=1;" parent="nHsgwOCxEVJ2XdIft6rS-283" vertex="1"><mxGeometry x="120" width="60" height="40" as="geometry"><mxRectangle width="60" height="40" as="alternateBounds"/></mxGeometry></mxCell><mxCell id="nHsgwOCxEVJ2XdIft6rS-287" value="" style="shape=partialRectangle;html=1;whiteSpace=wrap;connectable=0;overflow=hidden;fillColor=none;top=0;left=0;bottom=0;right=0;pointerEvents=1;" parent="nHsgwOCxEVJ2XdIft6rS-283" vertex="1"><mxGeometry x="180" width="60" height="40" as="geometry"><mxRectangle width="60" height="40" as="alternateBounds"/></mxGeometry></mxCell><mxCell id="nHsgwOCxEVJ2XdIft6rS-288" value="" style="shape=partialRectangle;html=1;whiteSpace=wrap;connectable=0;overflow=hidden;fillColor=none;top=0;left=0;bottom=0;right=0;pointerEvents=1;strokeColor=#000000;" parent="nHsgwOCxEVJ2XdIft6rS-283" vertex="1"><mxGeometry x="240" width="60" height="40" as="geometry"><mxRectangle width="60" height="40" as="alternateBounds"/></mxGeometry></mxCell><mxCell id="nHsgwOCxEVJ2XdIft6rS-289" value="" style="shape=partialRectangle;html=1;whiteSpace=wrap;connectable=0;overflow=hidden;fillColor=none;top=0;left=0;bottom=0;right=0;pointerEvents=1;" parent="nHsgwOCxEVJ2XdIft6rS-283" vertex="1"><mxGeometry x="300" width="60" height="40" as="geometry"><mxRectangle width="60" height="40" as="alternateBounds"/></mxGeometry></mxCell><mxCell id="nHsgwOCxEVJ2XdIft6rS-290" value="" style="shape=partialRectangle;collapsible=0;dropTarget=0;pointerEvents=0;fillColor=none;top=0;left=0;bottom=0;right=0;points=[[0,0.5],[1,0.5]];portConstraint=eastwest;" parent="nHsgwOCxEVJ2XdIft6rS-261" vertex="1"><mxGeometry y="160" width="360" height="40" as="geometry"/></mxCell><mxCell id="nHsgwOCxEVJ2XdIft6rS-291" value="15 / 0" style="shape=partialRectangle;html=1;whiteSpace=wrap;connectable=0;overflow=hidden;fillColor=#dae8fc;top=0;left=0;bottom=0;right=0;pointerEvents=1;strokeColor=#6c8ebf;" parent="nHsgwOCxEVJ2XdIft6rS-290" vertex="1"><mxGeometry width="60" height="40" as="geometry"><mxRectangle width="60" height="40" as="alternateBounds"/></mxGeometry></mxCell><mxCell id="nHsgwOCxEVJ2XdIft6rS-292" value="1" style="shape=partialRectangle;html=1;whiteSpace=wrap;connectable=0;overflow=hidden;fillColor=#dae8fc;top=0;left=0;bottom=0;right=0;pointerEvents=1;strokeColor=#6c8ebf;" parent="nHsgwOCxEVJ2XdIft6rS-290" vertex="1"><mxGeometry x="60" width="60" height="40" as="geometry"><mxRectangle width="60" height="40" as="alternateBounds"/></mxGeometry></mxCell><mxCell id="nHsgwOCxEVJ2XdIft6rS-293" value="2" style="shape=partialRectangle;html=1;whiteSpace=wrap;connectable=0;overflow=hidden;fillColor=#dae8fc;top=0;left=0;bottom=0;right=0;pointerEvents=1;strokeColor=#6c8ebf;" parent="nHsgwOCxEVJ2XdIft6rS-290" vertex="1"><mxGeometry x="120" width="60" height="40" as="geometry"><mxRectangle width="60" height="40" as="alternateBounds"/></mxGeometry></mxCell><mxCell id="nHsgwOCxEVJ2XdIft6rS-294" value="3" style="shape=partialRectangle;html=1;whiteSpace=wrap;connectable=0;overflow=hidden;fillColor=#dae8fc;top=0;left=0;bottom=0;right=0;pointerEvents=1;strokeColor=#6c8ebf;" parent="nHsgwOCxEVJ2XdIft6rS-290" vertex="1"><mxGeometry x="180" width="60" height="40" as="geometry"><mxRectangle width="60" height="40" as="alternateBounds"/></mxGeometry></mxCell><mxCell id="nHsgwOCxEVJ2XdIft6rS-295" value="4" style="shape=partialRectangle;html=1;whiteSpace=wrap;connectable=0;overflow=hidden;fillColor=#dae8fc;top=0;left=0;bottom=0;right=0;pointerEvents=1;strokeColor=#6c8ebf;" parent="nHsgwOCxEVJ2XdIft6rS-290" vertex="1"><mxGeometry x="240" width="60" height="40" as="geometry"><mxRectangle width="60" height="40" as="alternateBounds"/></mxGeometry></mxCell><mxCell id="nHsgwOCxEVJ2XdIft6rS-296" value="5" style="shape=partialRectangle;html=1;whiteSpace=wrap;connectable=0;overflow=hidden;fillColor=#dae8fc;top=0;left=0;bottom=0;right=0;pointerEvents=1;strokeColor=#6c8ebf;" parent="nHsgwOCxEVJ2XdIft6rS-290" vertex="1"><mxGeometry x="300" width="60" height="40" as="geometry"><mxRectangle width="60" height="40" as="alternateBounds"/></mxGeometry></mxCell><mxCell id="nHsgwOCxEVJ2XdIft6rS-297" value="" style="shape=table;startSize=0;container=1;collapsible=0;childLayout=tableLayout;fillColor=none;" parent="nHsgwOCxEVJ2XdIft6rS-1" vertex="1"><mxGeometry x="800" y="1780" width="360" height="200" as="geometry"/></mxCell><mxCell id="nHsgwOCxEVJ2XdIft6rS-298" style="shape=partialRectangle;collapsible=0;dropTarget=0;pointerEvents=0;fillColor=none;top=0;left=0;bottom=0;right=0;points=[[0,0.5],[1,0.5]];portConstraint=eastwest;" parent="nHsgwOCxEVJ2XdIft6rS-297" vertex="1"><mxGeometry width="360" height="40" as="geometry"/></mxCell><mxCell id="nHsgwOCxEVJ2XdIft6rS-299" value="19" style="shape=partialRectangle;html=1;whiteSpace=wrap;connectable=0;overflow=hidden;fillColor=#dae8fc;top=0;left=0;bottom=0;right=0;pointerEvents=1;strokeColor=#6c8ebf;" parent="nHsgwOCxEVJ2XdIft6rS-298" vertex="1"><mxGeometry width="60" height="40" as="geometry"><mxRectangle width="60" height="40" as="alternateBounds"/></mxGeometry></mxCell><mxCell id="nHsgwOCxEVJ2XdIft6rS-300" style="shape=partialRectangle;html=1;whiteSpace=wrap;connectable=0;overflow=hidden;fillColor=none;top=0;left=0;bottom=0;right=0;pointerEvents=1;" parent="nHsgwOCxEVJ2XdIft6rS-298" vertex="1"><mxGeometry x="60" width="60" height="40" as="geometry"><mxRectangle width="60" height="40" as="alternateBounds"/></mxGeometry></mxCell><mxCell id="nHsgwOCxEVJ2XdIft6rS-301" style="shape=partialRectangle;html=1;whiteSpace=wrap;connectable=0;overflow=hidden;fillColor=none;top=0;left=0;bottom=0;right=0;pointerEvents=1;" parent="nHsgwOCxEVJ2XdIft6rS-298" vertex="1"><mxGeometry x="120" width="60" height="40" as="geometry"><mxRectangle width="60" height="40" as="alternateBounds"/></mxGeometry></mxCell><mxCell id="nHsgwOCxEVJ2XdIft6rS-302" value="2" style="shape=partialRectangle;html=1;whiteSpace=wrap;connectable=0;overflow=hidden;fillColor=#fff2cc;top=0;left=0;bottom=0;right=0;pointerEvents=1;strokeColor=#d6b656;" parent="nHsgwOCxEVJ2XdIft6rS-298" vertex="1"><mxGeometry x="180" width="60" height="40" as="geometry"><mxRectangle width="60" height="40" as="alternateBounds"/></mxGeometry></mxCell><mxCell id="nHsgwOCxEVJ2XdIft6rS-303" value="1" style="shape=partialRectangle;html=1;whiteSpace=wrap;connectable=0;overflow=hidden;fillColor=#fff2cc;top=0;left=0;bottom=0;right=0;pointerEvents=1;strokeColor=#d6b656;" parent="nHsgwOCxEVJ2XdIft6rS-298" vertex="1"><mxGeometry x="240" width="60" height="40" as="geometry"><mxRectangle width="60" height="40" as="alternateBounds"/></mxGeometry></mxCell><mxCell id="nHsgwOCxEVJ2XdIft6rS-304" value="0" style="shape=partialRectangle;html=1;whiteSpace=wrap;connectable=0;overflow=hidden;fillColor=#fff2cc;top=0;left=0;bottom=0;right=0;pointerEvents=1;strokeColor=#d6b656;" parent="nHsgwOCxEVJ2XdIft6rS-298" vertex="1"><mxGeometry x="300" width="60" height="40" as="geometry"><mxRectangle width="60" height="40" as="alternateBounds"/></mxGeometry></mxCell><mxCell id="nHsgwOCxEVJ2XdIft6rS-305" value="" style="shape=partialRectangle;collapsible=0;dropTarget=0;pointerEvents=0;fillColor=none;top=0;left=0;bottom=0;right=0;points=[[0,0.5],[1,0.5]];portConstraint=eastwest;" parent="nHsgwOCxEVJ2XdIft6rS-297" vertex="1"><mxGeometry y="40" width="360" height="40" as="geometry"/></mxCell><mxCell id="nHsgwOCxEVJ2XdIft6rS-306" value="18" style="shape=partialRectangle;html=1;whiteSpace=wrap;connectable=0;overflow=hidden;fillColor=#dae8fc;top=0;left=0;bottom=0;right=0;pointerEvents=1;strokeColor=#6c8ebf;" parent="nHsgwOCxEVJ2XdIft6rS-305" vertex="1"><mxGeometry width="60" height="40" as="geometry"><mxRectangle width="60" height="40" as="alternateBounds"/></mxGeometry></mxCell><mxCell id="nHsgwOCxEVJ2XdIft6rS-307" value="" style="shape=partialRectangle;html=1;whiteSpace=wrap;connectable=0;overflow=hidden;fillColor=none;top=0;left=0;bottom=0;right=0;pointerEvents=1;" parent="nHsgwOCxEVJ2XdIft6rS-305" vertex="1"><mxGeometry x="60" width="60" height="40" as="geometry"><mxRectangle width="60" height="40" as="alternateBounds"/></mxGeometry></mxCell><mxCell id="nHsgwOCxEVJ2XdIft6rS-308" value="" style="shape=partialRectangle;html=1;whiteSpace=wrap;connectable=0;overflow=hidden;fillColor=none;top=0;left=0;bottom=0;right=0;pointerEvents=1;" parent="nHsgwOCxEVJ2XdIft6rS-305" vertex="1"><mxGeometry x="120" width="60" height="40" as="geometry"><mxRectangle width="60" height="40" as="alternateBounds"/></mxGeometry></mxCell><mxCell id="nHsgwOCxEVJ2XdIft6rS-309" value="" style="shape=partialRectangle;html=1;whiteSpace=wrap;connectable=0;overflow=hidden;fillColor=none;top=0;left=0;bottom=0;right=0;pointerEvents=1;strokeColor=#000000;" parent="nHsgwOCxEVJ2XdIft6rS-305" vertex="1"><mxGeometry x="180" width="60" height="40" as="geometry"><mxRectangle width="60" height="40" as="alternateBounds"/></mxGeometry></mxCell><mxCell id="nHsgwOCxEVJ2XdIft6rS-310" value="3" style="shape=partialRectangle;html=1;whiteSpace=wrap;connectable=0;overflow=hidden;fillColor=#fff2cc;top=0;left=0;bottom=0;right=0;pointerEvents=1;strokeColor=#d6b656;" parent="nHsgwOCxEVJ2XdIft6rS-305" vertex="1"><mxGeometry x="240" width="60" height="40" as="geometry"><mxRectangle width="60" height="40" as="alternateBounds"/></mxGeometry></mxCell><mxCell id="nHsgwOCxEVJ2XdIft6rS-311" value="" style="shape=partialRectangle;html=1;whiteSpace=wrap;connectable=0;overflow=hidden;fillColor=none;top=0;left=0;bottom=0;right=0;pointerEvents=1;" parent="nHsgwOCxEVJ2XdIft6rS-305" vertex="1"><mxGeometry x="300" width="60" height="40" as="geometry"><mxRectangle width="60" height="40" as="alternateBounds"/></mxGeometry></mxCell><mxCell id="nHsgwOCxEVJ2XdIft6rS-312" value="" style="shape=partialRectangle;collapsible=0;dropTarget=0;pointerEvents=0;fillColor=none;top=0;left=0;bottom=0;right=0;points=[[0,0.5],[1,0.5]];portConstraint=eastwest;" parent="nHsgwOCxEVJ2XdIft6rS-297" vertex="1"><mxGeometry y="80" width="360" height="40" as="geometry"/></mxCell><mxCell id="nHsgwOCxEVJ2XdIft6rS-313" value="17" style="shape=partialRectangle;html=1;whiteSpace=wrap;connectable=0;overflow=hidden;fillColor=#dae8fc;top=0;left=0;bottom=0;right=0;pointerEvents=1;strokeColor=#6c8ebf;" parent="nHsgwOCxEVJ2XdIft6rS-312" vertex="1"><mxGeometry width="60" height="40" as="geometry"><mxRectangle width="60" height="40" as="alternateBounds"/></mxGeometry></mxCell><mxCell id="nHsgwOCxEVJ2XdIft6rS-314" value="" style="shape=partialRectangle;html=1;whiteSpace=wrap;connectable=0;overflow=hidden;fillColor=none;top=0;left=0;bottom=0;right=0;pointerEvents=1;" parent="nHsgwOCxEVJ2XdIft6rS-312" vertex="1"><mxGeometry x="60" width="60" height="40" as="geometry"><mxRectangle width="60" height="40" as="alternateBounds"/></mxGeometry></mxCell><mxCell id="nHsgwOCxEVJ2XdIft6rS-315" value="" style="shape=partialRectangle;html=1;whiteSpace=wrap;connectable=0;overflow=hidden;fillColor=none;top=0;left=0;bottom=0;right=0;pointerEvents=1;" parent="nHsgwOCxEVJ2XdIft6rS-312" vertex="1"><mxGeometry x="120" width="60" height="40" as="geometry"><mxRectangle width="60" height="40" as="alternateBounds"/></mxGeometry></mxCell><mxCell id="nHsgwOCxEVJ2XdIft6rS-316" value="" style="shape=partialRectangle;html=1;whiteSpace=wrap;connectable=0;overflow=hidden;fillColor=none;top=0;left=0;bottom=0;right=0;pointerEvents=1;" parent="nHsgwOCxEVJ2XdIft6rS-312" vertex="1"><mxGeometry x="180" width="60" height="40" as="geometry"><mxRectangle width="60" height="40" as="alternateBounds"/></mxGeometry></mxCell><mxCell id="nHsgwOCxEVJ2XdIft6rS-317" value="" style="shape=partialRectangle;html=1;whiteSpace=wrap;connectable=0;overflow=hidden;fillColor=none;top=0;left=0;bottom=0;right=0;pointerEvents=1;strokeColor=#000000;" parent="nHsgwOCxEVJ2XdIft6rS-312" vertex="1"><mxGeometry x="240" width="60" height="40" as="geometry"><mxRectangle width="60" height="40" as="alternateBounds"/></mxGeometry></mxCell><mxCell id="nHsgwOCxEVJ2XdIft6rS-318" value="" style="shape=partialRectangle;html=1;whiteSpace=wrap;connectable=0;overflow=hidden;fillColor=none;top=0;left=0;bottom=0;right=0;pointerEvents=1;" parent="nHsgwOCxEVJ2XdIft6rS-312" vertex="1"><mxGeometry x="300" width="60" height="40" as="geometry"><mxRectangle width="60" height="40" as="alternateBounds"/></mxGeometry></mxCell><mxCell id="nHsgwOCxEVJ2XdIft6rS-319" value="" style="shape=partialRectangle;collapsible=0;dropTarget=0;pointerEvents=0;fillColor=none;top=0;left=0;bottom=0;right=0;points=[[0,0.5],[1,0.5]];portConstraint=eastwest;" parent="nHsgwOCxEVJ2XdIft6rS-297" vertex="1"><mxGeometry y="120" width="360" height="40" as="geometry"/></mxCell><mxCell id="nHsgwOCxEVJ2XdIft6rS-320" value="16" style="shape=partialRectangle;html=1;whiteSpace=wrap;connectable=0;overflow=hidden;fillColor=#dae8fc;top=0;left=0;bottom=0;right=0;pointerEvents=1;strokeColor=#6c8ebf;" parent="nHsgwOCxEVJ2XdIft6rS-319" vertex="1"><mxGeometry width="60" height="40" as="geometry"><mxRectangle width="60" height="40" as="alternateBounds"/></mxGeometry></mxCell><mxCell id="nHsgwOCxEVJ2XdIft6rS-321" value="" style="shape=partialRectangle;html=1;whiteSpace=wrap;connectable=0;overflow=hidden;fillColor=none;top=0;left=0;bottom=0;right=0;pointerEvents=1;" parent="nHsgwOCxEVJ2XdIft6rS-319" vertex="1"><mxGeometry x="60" width="60" height="40" as="geometry"><mxRectangle width="60" height="40" as="alternateBounds"/></mxGeometry></mxCell><mxCell id="nHsgwOCxEVJ2XdIft6rS-322" value="" style="shape=partialRectangle;html=1;whiteSpace=wrap;connectable=0;overflow=hidden;fillColor=none;top=0;left=0;bottom=0;right=0;pointerEvents=1;" parent="nHsgwOCxEVJ2XdIft6rS-319" vertex="1"><mxGeometry x="120" width="60" height="40" as="geometry"><mxRectangle width="60" height="40" as="alternateBounds"/></mxGeometry></mxCell><mxCell id="nHsgwOCxEVJ2XdIft6rS-323" value="" style="shape=partialRectangle;html=1;whiteSpace=wrap;connectable=0;overflow=hidden;fillColor=none;top=0;left=0;bottom=0;right=0;pointerEvents=1;" parent="nHsgwOCxEVJ2XdIft6rS-319" vertex="1"><mxGeometry x="180" width="60" height="40" as="geometry"><mxRectangle width="60" height="40" as="alternateBounds"/></mxGeometry></mxCell><mxCell id="nHsgwOCxEVJ2XdIft6rS-324" value="" style="shape=partialRectangle;html=1;whiteSpace=wrap;connectable=0;overflow=hidden;fillColor=none;top=0;left=0;bottom=0;right=0;pointerEvents=1;strokeColor=#000000;" parent="nHsgwOCxEVJ2XdIft6rS-319" vertex="1"><mxGeometry x="240" width="60" height="40" as="geometry"><mxRectangle width="60" height="40" as="alternateBounds"/></mxGeometry></mxCell><mxCell id="nHsgwOCxEVJ2XdIft6rS-325" value="" style="shape=partialRectangle;html=1;whiteSpace=wrap;connectable=0;overflow=hidden;fillColor=none;top=0;left=0;bottom=0;right=0;pointerEvents=1;" parent="nHsgwOCxEVJ2XdIft6rS-319" vertex="1"><mxGeometry x="300" width="60" height="40" as="geometry"><mxRectangle width="60" height="40" as="alternateBounds"/></mxGeometry></mxCell><mxCell id="nHsgwOCxEVJ2XdIft6rS-326" value="" style="shape=partialRectangle;collapsible=0;dropTarget=0;pointerEvents=0;fillColor=none;top=0;left=0;bottom=0;right=0;points=[[0,0.5],[1,0.5]];portConstraint=eastwest;" parent="nHsgwOCxEVJ2XdIft6rS-297" vertex="1"><mxGeometry y="160" width="360" height="40" as="geometry"/></mxCell><mxCell id="nHsgwOCxEVJ2XdIft6rS-327" value="15 / 0" style="shape=partialRectangle;html=1;whiteSpace=wrap;connectable=0;overflow=hidden;fillColor=#dae8fc;top=0;left=0;bottom=0;right=0;pointerEvents=1;strokeColor=#6c8ebf;" parent="nHsgwOCxEVJ2XdIft6rS-326" vertex="1"><mxGeometry width="60" height="40" as="geometry"><mxRectangle width="60" height="40" as="alternateBounds"/></mxGeometry></mxCell><mxCell id="nHsgwOCxEVJ2XdIft6rS-328" value="1" style="shape=partialRectangle;html=1;whiteSpace=wrap;connectable=0;overflow=hidden;fillColor=#dae8fc;top=0;left=0;bottom=0;right=0;pointerEvents=1;strokeColor=#6c8ebf;" parent="nHsgwOCxEVJ2XdIft6rS-326" vertex="1"><mxGeometry x="60" width="60" height="40" as="geometry"><mxRectangle width="60" height="40" as="alternateBounds"/></mxGeometry></mxCell><mxCell id="nHsgwOCxEVJ2XdIft6rS-329" value="2" style="shape=partialRectangle;html=1;whiteSpace=wrap;connectable=0;overflow=hidden;fillColor=#dae8fc;top=0;left=0;bottom=0;right=0;pointerEvents=1;strokeColor=#6c8ebf;" parent="nHsgwOCxEVJ2XdIft6rS-326" vertex="1"><mxGeometry x="120" width="60" height="40" as="geometry"><mxRectangle width="60" height="40" as="alternateBounds"/></mxGeometry></mxCell><mxCell id="nHsgwOCxEVJ2XdIft6rS-330" value="3" style="shape=partialRectangle;html=1;whiteSpace=wrap;connectable=0;overflow=hidden;fillColor=#dae8fc;top=0;left=0;bottom=0;right=0;pointerEvents=1;strokeColor=#6c8ebf;" parent="nHsgwOCxEVJ2XdIft6rS-326" vertex="1"><mxGeometry x="180" width="60" height="40" as="geometry"><mxRectangle width="60" height="40" as="alternateBounds"/></mxGeometry></mxCell><mxCell id="nHsgwOCxEVJ2XdIft6rS-331" value="4" style="shape=partialRectangle;html=1;whiteSpace=wrap;connectable=0;overflow=hidden;fillColor=#dae8fc;top=0;left=0;bottom=0;right=0;pointerEvents=1;strokeColor=#6c8ebf;" parent="nHsgwOCxEVJ2XdIft6rS-326" vertex="1"><mxGeometry x="240" width="60" height="40" as="geometry"><mxRectangle width="60" height="40" as="alternateBounds"/></mxGeometry></mxCell><mxCell id="nHsgwOCxEVJ2XdIft6rS-332" value="5" style="shape=partialRectangle;html=1;whiteSpace=wrap;connectable=0;overflow=hidden;fillColor=#dae8fc;top=0;left=0;bottom=0;right=0;pointerEvents=1;strokeColor=#6c8ebf;" parent="nHsgwOCxEVJ2XdIft6rS-326" vertex="1"><mxGeometry x="300" width="60" height="40" as="geometry"><mxRectangle width="60" height="40" as="alternateBounds"/></mxGeometry></mxCell><mxCell id="nHsgwOCxEVJ2XdIft6rS-333" value="" style="shape=table;startSize=0;container=1;collapsible=0;childLayout=tableLayout;fillColor=none;" parent="nHsgwOCxEVJ2XdIft6rS-1" vertex="1"><mxGeometry x="1190" y="1779" width="360" height="200" as="geometry"/></mxCell><mxCell id="nHsgwOCxEVJ2XdIft6rS-334" style="shape=partialRectangle;collapsible=0;dropTarget=0;pointerEvents=0;fillColor=none;top=0;left=0;bottom=0;right=0;points=[[0,0.5],[1,0.5]];portConstraint=eastwest;" parent="nHsgwOCxEVJ2XdIft6rS-333" vertex="1"><mxGeometry width="360" height="40" as="geometry"/></mxCell><mxCell id="nHsgwOCxEVJ2XdIft6rS-335" value="19" style="shape=partialRectangle;html=1;whiteSpace=wrap;connectable=0;overflow=hidden;fillColor=#dae8fc;top=0;left=0;bottom=0;right=0;pointerEvents=1;strokeColor=#6c8ebf;" parent="nHsgwOCxEVJ2XdIft6rS-334" vertex="1"><mxGeometry width="60" height="40" as="geometry"><mxRectangle width="60" height="40" as="alternateBounds"/></mxGeometry></mxCell><mxCell id="nHsgwOCxEVJ2XdIft6rS-336" style="shape=partialRectangle;html=1;whiteSpace=wrap;connectable=0;overflow=hidden;fillColor=none;top=0;left=0;bottom=0;right=0;pointerEvents=1;" parent="nHsgwOCxEVJ2XdIft6rS-334" vertex="1"><mxGeometry x="60" width="60" height="40" as="geometry"><mxRectangle width="60" height="40" as="alternateBounds"/></mxGeometry></mxCell><mxCell id="nHsgwOCxEVJ2XdIft6rS-337" style="shape=partialRectangle;html=1;whiteSpace=wrap;connectable=0;overflow=hidden;fillColor=none;top=0;left=0;bottom=0;right=0;pointerEvents=1;" parent="nHsgwOCxEVJ2XdIft6rS-334" vertex="1"><mxGeometry x="120" width="60" height="40" as="geometry"><mxRectangle width="60" height="40" as="alternateBounds"/></mxGeometry></mxCell><mxCell id="nHsgwOCxEVJ2XdIft6rS-338" value="0" style="shape=partialRectangle;html=1;whiteSpace=wrap;connectable=0;overflow=hidden;fillColor=#fff2cc;top=0;left=0;bottom=0;right=0;pointerEvents=1;strokeColor=#d6b656;" parent="nHsgwOCxEVJ2XdIft6rS-334" vertex="1"><mxGeometry x="180" width="60" height="40" as="geometry"><mxRectangle width="60" height="40" as="alternateBounds"/></mxGeometry></mxCell><mxCell id="nHsgwOCxEVJ2XdIft6rS-339" value="1" style="shape=partialRectangle;html=1;whiteSpace=wrap;connectable=0;overflow=hidden;fillColor=#fff2cc;top=0;left=0;bottom=0;right=0;pointerEvents=1;strokeColor=#d6b656;" parent="nHsgwOCxEVJ2XdIft6rS-334" vertex="1"><mxGeometry x="240" width="60" height="40" as="geometry"><mxRectangle width="60" height="40" as="alternateBounds"/></mxGeometry></mxCell><mxCell id="nHsgwOCxEVJ2XdIft6rS-340" value="" style="shape=partialRectangle;html=1;whiteSpace=wrap;connectable=0;overflow=hidden;fillColor=none;top=0;left=0;bottom=0;right=0;pointerEvents=1;strokeColor=#000000;" parent="nHsgwOCxEVJ2XdIft6rS-334" vertex="1"><mxGeometry x="300" width="60" height="40" as="geometry"><mxRectangle width="60" height="40" as="alternateBounds"/></mxGeometry></mxCell><mxCell id="nHsgwOCxEVJ2XdIft6rS-341" value="" style="shape=partialRectangle;collapsible=0;dropTarget=0;pointerEvents=0;fillColor=none;top=0;left=0;bottom=0;right=0;points=[[0,0.5],[1,0.5]];portConstraint=eastwest;" parent="nHsgwOCxEVJ2XdIft6rS-333" vertex="1"><mxGeometry y="40" width="360" height="40" as="geometry"/></mxCell><mxCell id="nHsgwOCxEVJ2XdIft6rS-342" value="18" style="shape=partialRectangle;html=1;whiteSpace=wrap;connectable=0;overflow=hidden;fillColor=#dae8fc;top=0;left=0;bottom=0;right=0;pointerEvents=1;strokeColor=#6c8ebf;" parent="nHsgwOCxEVJ2XdIft6rS-341" vertex="1"><mxGeometry width="60" height="40" as="geometry"><mxRectangle width="60" height="40" as="alternateBounds"/></mxGeometry></mxCell><mxCell id="nHsgwOCxEVJ2XdIft6rS-343" value="" style="shape=partialRectangle;html=1;whiteSpace=wrap;connectable=0;overflow=hidden;fillColor=none;top=0;left=0;bottom=0;right=0;pointerEvents=1;" parent="nHsgwOCxEVJ2XdIft6rS-341" vertex="1"><mxGeometry x="60" width="60" height="40" as="geometry"><mxRectangle width="60" height="40" as="alternateBounds"/></mxGeometry></mxCell><mxCell id="nHsgwOCxEVJ2XdIft6rS-344" value="" style="shape=partialRectangle;html=1;whiteSpace=wrap;connectable=0;overflow=hidden;fillColor=none;top=0;left=0;bottom=0;right=0;pointerEvents=1;" parent="nHsgwOCxEVJ2XdIft6rS-341" vertex="1"><mxGeometry x="120" width="60" height="40" as="geometry"><mxRectangle width="60" height="40" as="alternateBounds"/></mxGeometry></mxCell><mxCell id="nHsgwOCxEVJ2XdIft6rS-345" value="" style="shape=partialRectangle;html=1;whiteSpace=wrap;connectable=0;overflow=hidden;fillColor=none;top=0;left=0;bottom=0;right=0;pointerEvents=1;strokeColor=#000000;" parent="nHsgwOCxEVJ2XdIft6rS-341" vertex="1"><mxGeometry x="180" width="60" height="40" as="geometry"><mxRectangle width="60" height="40" as="alternateBounds"/></mxGeometry></mxCell><mxCell id="nHsgwOCxEVJ2XdIft6rS-346" value="2" style="shape=partialRectangle;html=1;whiteSpace=wrap;connectable=0;overflow=hidden;fillColor=#fff2cc;top=0;left=0;bottom=0;right=0;pointerEvents=1;strokeColor=#d6b656;" parent="nHsgwOCxEVJ2XdIft6rS-341" vertex="1"><mxGeometry x="240" width="60" height="40" as="geometry"><mxRectangle width="60" height="40" as="alternateBounds"/></mxGeometry></mxCell><mxCell id="nHsgwOCxEVJ2XdIft6rS-347" value="3" style="shape=partialRectangle;html=1;whiteSpace=wrap;connectable=0;overflow=hidden;fillColor=#fff2cc;top=0;left=0;bottom=0;right=0;pointerEvents=1;strokeColor=#d6b656;" parent="nHsgwOCxEVJ2XdIft6rS-341" vertex="1"><mxGeometry x="300" width="60" height="40" as="geometry"><mxRectangle width="60" height="40" as="alternateBounds"/></mxGeometry></mxCell><mxCell id="nHsgwOCxEVJ2XdIft6rS-348" value="" style="shape=partialRectangle;collapsible=0;dropTarget=0;pointerEvents=0;fillColor=none;top=0;left=0;bottom=0;right=0;points=[[0,0.5],[1,0.5]];portConstraint=eastwest;" parent="nHsgwOCxEVJ2XdIft6rS-333" vertex="1"><mxGeometry y="80" width="360" height="40" as="geometry"/></mxCell><mxCell id="nHsgwOCxEVJ2XdIft6rS-349" value="17" style="shape=partialRectangle;html=1;whiteSpace=wrap;connectable=0;overflow=hidden;fillColor=#dae8fc;top=0;left=0;bottom=0;right=0;pointerEvents=1;strokeColor=#6c8ebf;" parent="nHsgwOCxEVJ2XdIft6rS-348" vertex="1"><mxGeometry width="60" height="40" as="geometry"><mxRectangle width="60" height="40" as="alternateBounds"/></mxGeometry></mxCell><mxCell id="nHsgwOCxEVJ2XdIft6rS-350" value="" style="shape=partialRectangle;html=1;whiteSpace=wrap;connectable=0;overflow=hidden;fillColor=none;top=0;left=0;bottom=0;right=0;pointerEvents=1;" parent="nHsgwOCxEVJ2XdIft6rS-348" vertex="1"><mxGeometry x="60" width="60" height="40" as="geometry"><mxRectangle width="60" height="40" as="alternateBounds"/></mxGeometry></mxCell><mxCell id="nHsgwOCxEVJ2XdIft6rS-351" value="" style="shape=partialRectangle;html=1;whiteSpace=wrap;connectable=0;overflow=hidden;fillColor=none;top=0;left=0;bottom=0;right=0;pointerEvents=1;" parent="nHsgwOCxEVJ2XdIft6rS-348" vertex="1"><mxGeometry x="120" width="60" height="40" as="geometry"><mxRectangle width="60" height="40" as="alternateBounds"/></mxGeometry></mxCell><mxCell id="nHsgwOCxEVJ2XdIft6rS-352" value="" style="shape=partialRectangle;html=1;whiteSpace=wrap;connectable=0;overflow=hidden;fillColor=none;top=0;left=0;bottom=0;right=0;pointerEvents=1;" parent="nHsgwOCxEVJ2XdIft6rS-348" vertex="1"><mxGeometry x="180" width="60" height="40" as="geometry"><mxRectangle width="60" height="40" as="alternateBounds"/></mxGeometry></mxCell><mxCell id="nHsgwOCxEVJ2XdIft6rS-353" value="" style="shape=partialRectangle;html=1;whiteSpace=wrap;connectable=0;overflow=hidden;fillColor=none;top=0;left=0;bottom=0;right=0;pointerEvents=1;strokeColor=#000000;" parent="nHsgwOCxEVJ2XdIft6rS-348" vertex="1"><mxGeometry x="240" width="60" height="40" as="geometry"><mxRectangle width="60" height="40" as="alternateBounds"/></mxGeometry></mxCell><mxCell id="nHsgwOCxEVJ2XdIft6rS-354" value="" style="shape=partialRectangle;html=1;whiteSpace=wrap;connectable=0;overflow=hidden;fillColor=none;top=0;left=0;bottom=0;right=0;pointerEvents=1;" parent="nHsgwOCxEVJ2XdIft6rS-348" vertex="1"><mxGeometry x="300" width="60" height="40" as="geometry"><mxRectangle width="60" height="40" as="alternateBounds"/></mxGeometry></mxCell><mxCell id="nHsgwOCxEVJ2XdIft6rS-355" value="" style="shape=partialRectangle;collapsible=0;dropTarget=0;pointerEvents=0;fillColor=none;top=0;left=0;bottom=0;right=0;points=[[0,0.5],[1,0.5]];portConstraint=eastwest;" parent="nHsgwOCxEVJ2XdIft6rS-333" vertex="1"><mxGeometry y="120" width="360" height="40" as="geometry"/></mxCell><mxCell id="nHsgwOCxEVJ2XdIft6rS-356" value="16" style="shape=partialRectangle;html=1;whiteSpace=wrap;connectable=0;overflow=hidden;fillColor=#dae8fc;top=0;left=0;bottom=0;right=0;pointerEvents=1;strokeColor=#6c8ebf;" parent="nHsgwOCxEVJ2XdIft6rS-355" vertex="1"><mxGeometry width="60" height="40" as="geometry"><mxRectangle width="60" height="40" as="alternateBounds"/></mxGeometry></mxCell><mxCell id="nHsgwOCxEVJ2XdIft6rS-357" value="" style="shape=partialRectangle;html=1;whiteSpace=wrap;connectable=0;overflow=hidden;fillColor=none;top=0;left=0;bottom=0;right=0;pointerEvents=1;" parent="nHsgwOCxEVJ2XdIft6rS-355" vertex="1"><mxGeometry x="60" width="60" height="40" as="geometry"><mxRectangle width="60" height="40" as="alternateBounds"/></mxGeometry></mxCell><mxCell id="nHsgwOCxEVJ2XdIft6rS-358" value="" style="shape=partialRectangle;html=1;whiteSpace=wrap;connectable=0;overflow=hidden;fillColor=none;top=0;left=0;bottom=0;right=0;pointerEvents=1;" parent="nHsgwOCxEVJ2XdIft6rS-355" vertex="1"><mxGeometry x="120" width="60" height="40" as="geometry"><mxRectangle width="60" height="40" as="alternateBounds"/></mxGeometry></mxCell><mxCell id="nHsgwOCxEVJ2XdIft6rS-359" value="" style="shape=partialRectangle;html=1;whiteSpace=wrap;connectable=0;overflow=hidden;fillColor=none;top=0;left=0;bottom=0;right=0;pointerEvents=1;" parent="nHsgwOCxEVJ2XdIft6rS-355" vertex="1"><mxGeometry x="180" width="60" height="40" as="geometry"><mxRectangle width="60" height="40" as="alternateBounds"/></mxGeometry></mxCell><mxCell id="nHsgwOCxEVJ2XdIft6rS-360" value="" style="shape=partialRectangle;html=1;whiteSpace=wrap;connectable=0;overflow=hidden;fillColor=none;top=0;left=0;bottom=0;right=0;pointerEvents=1;strokeColor=#000000;" parent="nHsgwOCxEVJ2XdIft6rS-355" vertex="1"><mxGeometry x="240" width="60" height="40" as="geometry"><mxRectangle width="60" height="40" as="alternateBounds"/></mxGeometry></mxCell><mxCell id="nHsgwOCxEVJ2XdIft6rS-361" value="" style="shape=partialRectangle;html=1;whiteSpace=wrap;connectable=0;overflow=hidden;fillColor=none;top=0;left=0;bottom=0;right=0;pointerEvents=1;" parent="nHsgwOCxEVJ2XdIft6rS-355" vertex="1"><mxGeometry x="300" width="60" height="40" as="geometry"><mxRectangle width="60" height="40" as="alternateBounds"/></mxGeometry></mxCell><mxCell id="nHsgwOCxEVJ2XdIft6rS-362" value="" style="shape=partialRectangle;collapsible=0;dropTarget=0;pointerEvents=0;fillColor=none;top=0;left=0;bottom=0;right=0;points=[[0,0.5],[1,0.5]];portConstraint=eastwest;" parent="nHsgwOCxEVJ2XdIft6rS-333" vertex="1"><mxGeometry y="160" width="360" height="40" as="geometry"/></mxCell><mxCell id="nHsgwOCxEVJ2XdIft6rS-363" value="15 / 0" style="shape=partialRectangle;html=1;whiteSpace=wrap;connectable=0;overflow=hidden;fillColor=#dae8fc;top=0;left=0;bottom=0;right=0;pointerEvents=1;strokeColor=#6c8ebf;" parent="nHsgwOCxEVJ2XdIft6rS-362" vertex="1"><mxGeometry width="60" height="40" as="geometry"><mxRectangle width="60" height="40" as="alternateBounds"/></mxGeometry></mxCell><mxCell id="nHsgwOCxEVJ2XdIft6rS-364" value="1" style="shape=partialRectangle;html=1;whiteSpace=wrap;connectable=0;overflow=hidden;fillColor=#dae8fc;top=0;left=0;bottom=0;right=0;pointerEvents=1;strokeColor=#6c8ebf;" parent="nHsgwOCxEVJ2XdIft6rS-362" vertex="1"><mxGeometry x="60" width="60" height="40" as="geometry"><mxRectangle width="60" height="40" as="alternateBounds"/></mxGeometry></mxCell><mxCell id="nHsgwOCxEVJ2XdIft6rS-365" value="2" style="shape=partialRectangle;html=1;whiteSpace=wrap;connectable=0;overflow=hidden;fillColor=#dae8fc;top=0;left=0;bottom=0;right=0;pointerEvents=1;strokeColor=#6c8ebf;" parent="nHsgwOCxEVJ2XdIft6rS-362" vertex="1"><mxGeometry x="120" width="60" height="40" as="geometry"><mxRectangle width="60" height="40" as="alternateBounds"/></mxGeometry></mxCell><mxCell id="nHsgwOCxEVJ2XdIft6rS-366" value="3" style="shape=partialRectangle;html=1;whiteSpace=wrap;connectable=0;overflow=hidden;fillColor=#dae8fc;top=0;left=0;bottom=0;right=0;pointerEvents=1;strokeColor=#6c8ebf;" parent="nHsgwOCxEVJ2XdIft6rS-362" vertex="1"><mxGeometry x="180" width="60" height="40" as="geometry"><mxRectangle width="60" height="40" as="alternateBounds"/></mxGeometry></mxCell><mxCell id="nHsgwOCxEVJ2XdIft6rS-367" value="4" style="shape=partialRectangle;html=1;whiteSpace=wrap;connectable=0;overflow=hidden;fillColor=#dae8fc;top=0;left=0;bottom=0;right=0;pointerEvents=1;strokeColor=#6c8ebf;" parent="nHsgwOCxEVJ2XdIft6rS-362" vertex="1"><mxGeometry x="240" width="60" height="40" as="geometry"><mxRectangle width="60" height="40" as="alternateBounds"/></mxGeometry></mxCell><mxCell id="nHsgwOCxEVJ2XdIft6rS-368" value="5" style="shape=partialRectangle;html=1;whiteSpace=wrap;connectable=0;overflow=hidden;fillColor=#dae8fc;top=0;left=0;bottom=0;right=0;pointerEvents=1;strokeColor=#6c8ebf;" parent="nHsgwOCxEVJ2XdIft6rS-362" vertex="1"><mxGeometry x="300" width="60" height="40" as="geometry"><mxRectangle width="60" height="40" as="alternateBounds"/></mxGeometry></mxCell></root></mxGraphModel></diagram></mxfile>